<svg width="225" height="93" viewBox="0 0 225 93" fill="none" xmlns="http://www.w3.org/2000/svg">
<path d="M1.68435 88.5562C0.966046 87.4832 0.449882 86.2636 0.19034 84.9516L0.680834 84.8546C0.562251 84.2552 0.5 83.6351 0.5 83L0.5 80.7188H0L0 76.1562H0.5L0.5 71.5938H0L0 67.0312H0.5L0.5 62.4688H0L0 57.9062H0.5L0.5 53.3438H0L0 48.7812H0.5L0.5 46.5L0.5 44.2188H0L0 39.6562H0.5L0.5 35.0938H0L0 30.5312H0.5L0.5 25.9688H0L0 21.4062H0.5L0.5 16.8438H0L0 12.2812H0.5L0.5 10C0.5 9.3649 0.562251 8.74483 0.680834 8.14541L0.19034 8.04838C0.449883 6.73643 0.966046 5.51676 1.68435 4.44384L2.09983 4.722C2.79355 3.6858 3.6858 2.79355 4.722 2.09983L4.44384 1.68435C5.51676 0.966046 6.73643 0.449883 8.04838 0.19034L8.14541 0.680834C8.74483 0.562252 9.3649 0.5 10 0.5L12.4405 0.5V0L17.3215 0V0.5L22.2024 0.5V0L27.0834 0V0.5L31.9643 0.5V0L36.8453 0V0.5L41.7262 0.5V0L46.6072 0V0.5L51.4881 0.5V0L56.3691 0V0.5L61.25 0.5V0L66.131 0V0.5L71.0119 0.5V0L75.8929 0V0.5L80.7738 0.5V0L85.6548 0V0.5L90.5357 0.5V0L95.4167 0V0.5L100.298 0.5V0L105.179 0V0.5L110.06 0.5V0L114.94 0V0.5L119.821 0.5V0L124.702 0V0.5L129.583 0.5V0L134.464 0V0.5L139.345 0.5V0L144.226 0V0.5L149.107 0.5V0L153.988 0V0.5L158.869 0.5V0L163.75 0V0.5L168.631 0.5V0L173.512 0V0.5L178.393 0.5V0L183.274 0V0.5L188.155 0.5V0L193.036 0V0.5L197.917 0.5V0L202.798 0V0.5L207.679 0.5V0L212.56 0V0.5L215 0.5C215.635 0.5 216.255 0.562252 216.855 0.680835L216.952 0.190341C218.264 0.449884 219.483 0.966048 220.556 1.68435L220.278 2.09983C221.314 2.79355 222.206 3.6858 222.9 4.722L223.316 4.44384C224.034 5.51676 224.55 6.73643 224.81 8.04838L224.319 8.14541C224.438 8.74483 224.5 9.3649 224.5 10V12.2813H225V16.8438H224.5V21.4063H225V25.9688H224.5V30.5313H225V35.0938H224.5V39.6563H225V44.2188H224.5V46.5V48.7813H225V53.3438H224.5V57.9063H225V62.4688H224.5V67.0312H225V71.5938H224.5V76.1562H225V80.7188H224.5V83C224.5 83.6351 224.438 84.2552 224.319 84.8546L224.81 84.9516C224.55 86.2636 224.034 87.4832 223.316 88.5562L222.9 88.278C222.206 89.3142 221.314 90.2065 220.278 90.9002L220.556 91.3157C219.483 92.034 218.264 92.5501 216.952 92.8097L216.855 92.3192C216.255 92.4378 215.635 92.5 215 92.5H212.559V93H207.679V92.5H202.798V93H197.917V92.5H193.036V93H188.155V92.5H183.274V93H178.393V92.5H173.512V93H168.631V92.5H163.75V93H158.869V92.5H153.988V93H149.107V92.5H144.226V93H139.345V92.5H134.464V93H129.583V92.5H124.702V93H119.821V92.5H114.94V93H110.06V92.5H105.179V93H100.298V92.5H95.4167V93H90.5357V92.5H85.6548V93H80.7738V92.5H75.8929V93H71.0119V92.5H66.1309V93H61.25V92.5H56.369V93H51.4881V92.5H46.6071V93H41.7262V92.5H36.8452V93H31.9643V92.5H27.0833V93H22.2024V92.5H17.3214V93H12.4405V92.5H10C9.3649 92.5 8.74483 92.4378 8.14541 92.3192L8.04838 92.8097C6.73643 92.5501 5.51676 92.034 4.44384 91.3157L4.722 90.9002C3.6858 90.2065 2.79355 89.3142 2.09983 88.278L1.68435 88.5562Z" fill="#099FE5" stroke="#099FE5" stroke-dasharray="5 5"/>
<path d="M39.6738 38.4C40.9458 38.4 42.0078 38.814 42.8598 39.642C43.7118 40.458 44.1378 41.49 44.1378 42.738C44.1378 43.974 43.7118 45.006 42.8598 45.834C42.0078 46.65 40.9458 47.058 39.6738 47.058H37.5678V51H34.8318V38.4H39.6738ZM39.5658 44.538C40.1058 44.538 40.5378 44.37 40.8618 44.034C41.1978 43.698 41.3658 43.266 41.3658 42.738C41.3658 42.21 41.1978 41.778 40.8618 41.442C40.5378 41.094 40.1058 40.92 39.5658 40.92H37.5678V44.538H39.5658ZM49.125 48.462L54.147 48.462V51L46.389 51V38.4L53.949 38.4V40.92L49.125 40.92V43.404L53.481 43.404V45.87L49.125 45.87V48.462ZM63.9677 38.4V40.938H59.5397V51H56.8037V38.4H63.9677ZM74.6417 38.4H76.6217V51H73.8857V43.422L68.0537 51H66.1637V38.4H68.8997V45.888L74.6417 38.4ZM85.6435 51.27C84.4315 51.27 83.3275 50.988 82.3315 50.424C81.3355 49.848 80.5555 49.062 79.9915 48.066C79.4275 47.058 79.1455 45.942 79.1455 44.718C79.1455 42.846 79.7635 41.28 80.9995 40.02C82.2475 38.76 83.7955 38.13 85.6435 38.13C87.1795 38.13 88.5055 38.592 89.6215 39.516C90.7375 40.44 91.4455 41.652 91.7455 43.152H89.0095C88.8415 42.66 88.5955 42.234 88.2715 41.874C87.9475 41.502 87.5575 41.22 87.1015 41.028C86.6575 40.824 86.1715 40.722 85.6435 40.722C84.5755 40.722 83.6815 41.106 82.9615 41.874C82.2535 42.63 81.8995 43.578 81.8995 44.718C81.8995 45.846 82.2535 46.788 82.9615 47.544C83.6815 48.3 84.5755 48.678 85.6435 48.678C86.4715 48.678 87.1855 48.444 87.7855 47.976C88.3855 47.508 88.7995 46.872 89.0275 46.068H91.7815C91.4935 47.628 90.7855 48.888 89.6575 49.848C88.5415 50.796 87.2035 51.27 85.6435 51.27ZM102.595 38.4V40.938H99.0853V51H96.3493V40.938H92.8573V38.4H102.595ZM109.615 38.4C110.887 38.4 111.949 38.814 112.801 39.642C113.653 40.458 114.079 41.49 114.079 42.738C114.079 43.974 113.653 45.006 112.801 45.834C111.949 46.65 110.887 47.058 109.615 47.058H107.509V51H104.773V38.4H109.615ZM109.507 44.538C110.047 44.538 110.479 44.37 110.803 44.034C111.139 43.698 111.307 43.266 111.307 42.738C111.307 42.21 111.139 41.778 110.803 41.442C110.479 41.094 110.047 40.92 109.507 40.92H107.509V44.538H109.507ZM124.808 38.4H126.788V51H124.052V43.422L118.22 51H116.33V38.4H119.066V45.888L124.808 38.4ZM134.874 38.4C136.146 38.4 137.208 38.814 138.06 39.642C138.912 40.458 139.338 41.49 139.338 42.738C139.338 43.974 138.912 45.006 138.06 45.834C137.208 46.65 136.146 47.058 134.874 47.058H132.768V51H130.032V38.4H134.874ZM134.766 44.538C135.306 44.538 135.738 44.37 136.062 44.034C136.398 43.698 136.566 43.266 136.566 42.738C136.566 42.21 136.398 41.778 136.062 41.442C135.738 41.094 135.306 40.92 134.766 40.92H132.768V44.538H134.766ZM148.468 38.4L151.312 38.4L147.748 46.896C147.112 48.456 146.398 49.536 145.606 50.136C144.826 50.736 143.752 51.036 142.384 51.036H141.88V48.498H142.672C143.236 48.498 143.668 48.414 143.968 48.246C144.268 48.078 144.544 47.76 144.796 47.292L140.116 38.4H143.176L146.164 44.16L148.468 38.4ZM155.577 37.014V34.98H160.995V37.014H155.577ZM161.625 38.4H163.605V51H160.869V43.422L155.037 51H153.147V38.4H155.883V45.888L161.625 38.4ZM172.626 51.27C171.414 51.27 170.31 50.988 169.314 50.424C168.318 49.848 167.538 49.062 166.974 48.066C166.41 47.058 166.128 45.942 166.128 44.718C166.128 42.846 166.746 41.28 167.982 40.02C169.23 38.76 170.778 38.13 172.626 38.13C174.162 38.13 175.488 38.592 176.604 39.516C177.72 40.44 178.428 41.652 178.728 43.152H175.992C175.824 42.66 175.578 42.234 175.254 41.874C174.93 41.502 174.54 41.22 174.084 41.028C173.64 40.824 173.154 40.722 172.626 40.722C171.558 40.722 170.664 41.106 169.944 41.874C169.236 42.63 168.882 43.578 168.882 44.718C168.882 45.846 169.236 46.788 169.944 47.544C170.664 48.3 171.558 48.678 172.626 48.678C173.454 48.678 174.168 48.444 174.768 47.976C175.368 47.508 175.782 46.872 176.01 46.068H178.764C178.476 47.628 177.768 48.888 176.64 49.848C175.524 50.796 174.186 51.27 172.626 51.27ZM184.983 38.4H190.167V51H187.431V46.626H185.685L183.291 51H180.231L182.967 46.212C182.583 46.044 182.235 45.834 181.923 45.582C181.623 45.33 181.371 45.054 181.167 44.754C180.963 44.442 180.801 44.1 180.681 43.728C180.573 43.356 180.519 42.972 180.519 42.576C180.519 41.388 180.945 40.398 181.797 39.606C182.649 38.802 183.711 38.4 184.983 38.4ZM185.145 44.232H187.431V40.938H185.145C184.605 40.938 184.167 41.088 183.831 41.388C183.495 41.688 183.327 42.084 183.327 42.576C183.327 42.9 183.405 43.188 183.561 43.44C183.717 43.692 183.933 43.89 184.209 44.034C184.485 44.166 184.797 44.232 185.145 44.232Z" fill="white"/>
</svg>
