<svg width="443" height="135" viewBox="0 0 443 135" fill="none" xmlns="http://www.w3.org/2000/svg">
<path d="M7.32833 7.90331C6.72856 7.19305 6.39947 6.39799 6.29441 5.60082L5.7987 5.66614C5.54686 3.75518 6.4478 1.8152 8.07032 0.774691L8.34023 1.19558C9.01708 0.761526 9.83685 0.5 10.7665 0.5H13.2353V0L18.1731 0V0.5L23.1109 0.5V0L28.0486 0V0.5L32.9864 0.5V0L37.9241 0V0.5L42.8619 0.5V0L47.7996 0V0.5L52.7374 0.5V0L57.6751 0V0.5L62.6129 0.5V0L67.5507 0V0.5L72.4884 0.5V0L77.4262 0V0.5L82.3639 0.5V0L87.3017 0V0.5L92.2395 0.5V0L97.1772 0V0.5L102.115 0.5V0L107.053 0V0.5L111.99 0.5V0L116.928 0V0.5L121.866 0.5V0L126.804 0V0.5L131.742 0.5V0L136.679 0V0.5L141.617 0.5V0L146.555 0V0.5L151.493 0.5V0L156.43 0V0.5L161.368 0.5V0L166.306 0V0.5L171.244 0.5V0L176.181 0V0.5L181.119 0.5V0L186.057 0V0.5L190.995 0.5V0L195.932 0V0.5L200.87 0.5V0L205.808 0V0.5L210.746 0.5V0L215.683 0V0.5L220.621 0.5V0L225.559 0V0.5L230.497 0.5V0L235.434 0V0.5L240.372 0.5V0L245.31 0V0.5L250.248 0.5V0L255.186 0V0.5L260.123 0.5V0L265.061 0V0.5L269.999 0.5V0L274.937 0V0.5L279.874 0.5V0L284.812 0V0.5L289.75 0.5V0L294.688 0V0.5L299.625 0.5V0L304.563 0V0.5L309.501 0.5V0L314.438 0V0.5L319.376 0.5V0L324.314 0V0.5L329.252 0.5V0L334.189 0V0.5L339.127 0.5V0L344.065 0V0.5L346.534 0.5C347.595 0.5 348.643 0.616291 349.661 0.84115L349.769 0.352918C351.9 0.823567 353.903 1.75401 355.637 3.07822L355.334 3.47561C356.163 4.10827 356.928 4.83391 357.612 5.64488L359.196 7.51988L359.578 7.19729L362.744 10.9473L362.362 11.2699L365.529 15.0199L365.911 14.6973L369.078 18.4473L368.696 18.7699L371.862 22.5199L372.244 22.1973L375.411 25.9473L375.029 26.2699L378.196 30.0199L378.578 29.6973L381.744 33.4473L381.362 33.7699L384.529 37.5199L384.911 37.1973L388.078 40.9473L387.696 41.2699L390.862 45.0199L391.244 44.6973L394.411 48.4473L394.029 48.7699L397.196 52.5199L397.578 52.1973L400.744 55.9473L400.362 56.2699L401.946 58.1449C402.501 58.8028 402.989 59.4976 403.409 60.2203L403.841 59.9691C404.738 61.5111 405.337 63.1765 405.638 64.8835L405.146 64.9705C405.441 66.6431 405.441 68.357 405.146 70.0296L405.638 70.1165C405.337 71.8235 404.738 73.4889 403.841 75.031L403.409 74.7797C402.989 75.5024 402.501 76.1972 401.946 76.8551L400.362 78.7301L400.744 79.0527L397.578 82.8027L397.196 82.4801L394.029 86.2301L394.411 86.5527L391.244 90.3027L390.862 89.9801L387.696 93.7301L388.078 94.0527L384.911 97.8027L384.529 97.4801L381.362 101.23L381.744 101.553L378.578 105.303L378.196 104.98L375.029 108.73L375.411 109.053L372.244 112.803L371.862 112.48L368.696 116.23L369.078 116.553L365.911 120.303L365.529 119.98L362.362 123.73L362.744 124.053L359.578 127.803L359.196 127.48L357.612 129.355C356.928 130.166 356.163 130.892 355.334 131.524L355.637 131.922C353.903 133.246 351.9 134.176 349.769 134.647L349.661 134.159C348.643 134.384 347.595 134.5 346.534 134.5H344.065V135H339.127V134.5H334.19V135H329.252V134.5H324.314V135H319.376V134.5H314.439V135H309.501V134.5H304.563V135H299.625V134.5H294.688V135H289.75V134.5H284.812V135H279.874V134.5H274.936V135H269.999V134.5H265.061V135H260.123V134.5H255.185V135H250.248V134.5H245.31V135H240.372V134.5H235.434V135H230.497V134.5H225.559V135H220.621V134.5H215.683V135H210.746V134.5H205.808V135H200.87V134.5H195.932V135H190.995V134.5H186.057V135H181.119V134.5H176.181V135H171.244V134.5H166.306V135H161.368V134.5H156.43V135H151.492V134.5H146.555V135H141.617V134.5H136.679V135H131.741V134.5H126.804V135H121.866V134.5H116.928V135H111.99V134.5H107.053V135H102.115V134.5H97.1771V135H92.2394V134.5H87.3016V135H82.3639V134.5H77.4261V135H72.4884V134.5H67.5507V135H62.6129V134.5H57.6752V135H52.7374V134.5H47.7997V135H42.8619V134.5H37.9242V135H32.9864V134.5H28.0487V135H23.111V134.5H18.1732V135H13.2355V134.5H10.7665C9.83686 134.5 9.01708 134.238 8.34024 133.804L8.07032 134.225C6.4478 133.185 5.54687 131.245 5.79871 129.334L6.29442 129.399C6.39948 128.602 6.72857 127.807 7.32833 127.097L9.07339 125.03L8.69138 124.708L12.1815 120.575L12.5635 120.897L16.0536 116.764L15.6716 116.442L19.1617 112.308L19.5437 112.631L23.0339 108.498L22.6518 108.175L26.142 104.042L26.524 104.365L30.0141 100.232L29.6321 99.9094L33.1222 95.7764L33.5042 96.0989L36.9943 91.9659L36.6123 91.6433L40.1024 87.5103L40.4844 87.8329L43.9746 83.6998L43.5925 83.3773L47.0827 79.2442L47.4647 79.5668L49.2097 77.5003C49.8032 76.7976 50.3245 76.055 50.7737 75.2822L50.3414 75.0309C51.2377 73.4889 51.8366 71.8235 52.1381 70.1165L52.6305 70.2035C52.9462 68.4158 52.9462 66.5842 52.6305 64.7965L52.1381 64.8835C51.8366 63.1765 51.2377 61.5111 50.3414 59.9691L50.7737 59.7178C50.3245 58.945 49.8031 58.2024 49.2097 57.4997L47.4647 55.4332L47.0826 55.7558L43.5925 51.6227L43.9745 51.3001L40.4844 47.1671L40.1024 47.4897L36.6123 43.3567L36.9943 43.0341L33.5042 38.9011L33.1222 39.2236L29.6321 35.0906L30.0141 34.768L26.524 30.635L26.142 30.9576L22.6518 26.8245L23.0339 26.502L19.5437 22.3689L19.1617 22.6915L15.6716 18.5585L16.0536 18.2359L12.5635 14.1029L12.1815 14.4254L8.69137 10.2924L9.07339 9.96982L7.32833 7.90331Z" stroke="#099FE5" stroke-dasharray="5 5"/>
<path d="M99.592 50.288C100.376 50.624 100.992 51.16 101.44 51.896C101.888 52.632 102.112 53.456 102.112 54.368C102.112 55.68 101.624 56.784 100.648 57.68C99.672 58.56 98.464 59 97.024 59H90.304V42.2H96.928C98.304 42.2 99.432 42.608 100.312 43.424C101.208 44.24 101.656 45.264 101.656 46.496C101.656 47.248 101.464 47.976 101.08 48.68C100.712 49.384 100.216 49.92 99.592 50.288ZM99.52 46.784C99.52 46.304 99.4 45.872 99.16 45.488C98.936 45.104 98.624 44.808 98.224 44.6C97.824 44.376 97.376 44.264 96.88 44.264H92.368V49.304H96.904C97.64 49.304 98.256 49.064 98.752 48.584C99.264 48.088 99.52 47.488 99.52 46.784ZM97 56.912C97.832 56.912 98.528 56.648 99.088 56.12C99.648 55.592 99.928 54.928 99.928 54.128C99.928 53.344 99.648 52.688 99.088 52.16C98.528 51.632 97.832 51.368 97 51.368H92.368V56.912H97ZM112.397 48.176C113.469 48.176 114.437 48.408 115.301 48.872C116.165 49.336 116.837 49.984 117.317 50.816C117.797 51.632 118.037 52.56 118.037 53.6C118.037 55.152 117.501 56.44 116.429 57.464C115.373 58.488 114.029 59 112.397 59H106.253V42.2H108.341V48.176H112.397ZM120.557 42.2H122.645V59H120.557V42.2ZM112.229 57.032C113.301 57.032 114.173 56.704 114.845 56.048C115.533 55.392 115.877 54.568 115.877 53.576C115.877 52.568 115.533 51.744 114.845 51.104C114.173 50.448 113.301 50.12 112.229 50.12H108.341V57.032H112.229ZM133.853 48.608C135.421 48.608 136.709 49.096 137.717 50.072C138.725 51.032 139.229 52.264 139.229 53.768C139.229 55.288 138.717 56.544 137.693 57.536C136.669 58.512 135.373 59 133.805 59H127.733V42.2H138.005V44.192H129.821V48.608H133.853ZM133.661 56.936C134.653 56.936 135.469 56.64 136.109 56.048C136.749 55.456 137.069 54.704 137.069 53.792C137.069 52.864 136.749 52.112 136.109 51.536C135.485 50.96 134.677 50.672 133.685 50.672H129.821V56.936H133.661ZM145.019 56.984H152.699V59H142.931V42.2H152.435V44.192H145.019V49.4H151.811V51.344H145.019V56.984ZM162.701 42.2C164.285 42.2 165.605 42.712 166.661 43.736C167.733 44.76 168.269 46.04 168.269 47.576C168.269 49.112 167.733 50.392 166.661 51.416C165.605 52.44 164.285 52.952 162.701 52.952H158.765V59H156.677V42.2H162.701ZM162.581 50.912C163.605 50.912 164.445 50.6 165.101 49.976C165.773 49.336 166.109 48.536 166.109 47.576C166.109 46.616 165.773 45.824 165.101 45.2C164.445 44.56 163.605 44.24 162.581 44.24H158.765V50.912H162.581ZM183.398 42.2H184.934V59H182.822V46.208L173.246 59H171.806V42.2H173.894V54.896L183.398 42.2ZM199.526 42.2H210.686V59H207.062V45.584H202.694L201.902 52.856C201.678 54.936 201.078 56.488 200.102 57.512C199.142 58.536 197.782 59.048 196.022 59.048H195.086V55.496H196.046C197.342 55.496 198.086 54.672 198.278 53.024L199.526 42.2ZM224.338 42.2H228.13L223.378 53.528C222.53 55.608 221.578 57.048 220.522 57.848C219.482 58.648 218.05 59.048 216.226 59.048H215.554V55.664H216.61C217.362 55.664 217.938 55.552 218.338 55.328C218.738 55.104 219.106 54.68 219.442 54.056L213.202 42.2H217.282L221.266 49.88L224.338 42.2ZM238.88 42.2H242.504V59H238.88V53.024C237.824 53.408 236.8 53.6 235.808 53.6C234.944 53.6 234.136 53.456 233.384 53.168C232.648 52.864 232 52.448 231.44 51.92C230.896 51.376 230.464 50.696 230.144 49.88C229.84 49.048 229.688 48.128 229.688 47.12V42.2H233.336V47.096C233.336 48.152 233.576 48.952 234.056 49.496C234.552 50.04 235.256 50.312 236.168 50.312C236.952 50.312 237.856 50.104 238.88 49.688V42.2ZM262.717 42.2H266.365V59H246.829V42.2H250.477V55.616H254.821V42.2H258.373V55.616H262.717V42.2ZM280.013 42.2H283.805L279.053 53.528C278.205 55.608 277.253 57.048 276.197 57.848C275.157 58.648 273.725 59.048 271.901 59.048H271.229V55.664H272.285C273.037 55.664 273.613 55.552 274.013 55.328C274.413 55.104 274.781 54.68 275.117 54.056L268.877 42.2H272.957L276.941 49.88L280.013 42.2ZM300.29 41.84C302.77 41.84 304.81 42.664 306.41 44.312C308.026 45.96 308.834 48.056 308.834 50.6C308.834 53.16 308.034 55.264 306.434 56.912C304.834 58.544 302.786 59.36 300.29 59.36C298.098 59.36 296.226 58.712 294.674 57.416C293.138 56.104 292.202 54.384 291.866 52.256H289.898V59L286.25 59V42.2L289.898 42.2V48.896H291.866C292.218 46.784 293.162 45.08 294.698 43.784C296.234 42.488 298.098 41.84 300.29 41.84ZM300.17 55.904C301.658 55.904 302.866 55.408 303.794 54.416C304.738 53.424 305.21 52.152 305.21 50.6C305.21 49.064 304.738 47.792 303.794 46.784C302.85 45.776 301.642 45.272 300.17 45.272C299.21 45.272 298.346 45.504 297.578 45.968C296.81 46.416 296.202 47.048 295.754 47.864C295.322 48.68 295.106 49.592 295.106 50.6C295.106 52.136 295.586 53.408 296.546 54.416C297.506 55.408 298.714 55.904 300.17 55.904ZM93.064 73.2H104.224V90H100.6V76.584H96.232L95.44 83.856C95.216 85.936 94.616 87.488 93.64 88.512C92.68 89.536 91.32 90.048 89.56 90.048H88.624V86.496H89.584C90.88 86.496 91.624 85.672 91.816 84.024L93.064 73.2ZM116.509 90.36C113.949 90.36 111.813 89.528 110.101 87.864C108.405 86.184 107.557 84.096 107.557 81.6C107.557 79.104 108.405 77.024 110.101 75.36C111.813 73.68 113.949 72.84 116.509 72.84C118.189 72.84 119.709 73.224 121.069 73.992C122.445 74.744 123.517 75.792 124.285 77.136C125.053 78.464 125.437 79.952 125.437 81.6C125.437 84.112 124.589 86.2 122.893 87.864C121.197 89.528 119.069 90.36 116.509 90.36ZM116.509 86.928C117.501 86.928 118.397 86.704 119.197 86.256C119.997 85.792 120.621 85.152 121.069 84.336C121.533 83.52 121.765 82.608 121.765 81.6C121.765 80.08 121.261 78.816 120.253 77.808C119.261 76.784 118.013 76.272 116.509 76.272C115.021 76.272 113.765 76.784 112.741 77.808C111.733 78.816 111.229 80.08 111.229 81.6C111.229 83.12 111.733 84.392 112.741 85.416C113.765 86.424 115.021 86.928 116.509 86.928ZM138.33 73.2V76.584H132.426V90H128.778V73.2H138.33ZM152.562 73.2H155.202V90H151.554V79.896L143.778 90H141.258V73.2H144.906V83.184L152.562 73.2ZM167.231 90.36C165.615 90.36 164.143 89.984 162.815 89.232C161.487 88.464 160.447 87.416 159.695 86.088C158.943 84.744 158.567 83.256 158.567 81.624C158.567 79.128 159.391 77.04 161.039 75.36C162.703 73.68 164.767 72.84 167.231 72.84C169.279 72.84 171.047 73.456 172.535 74.688C174.023 75.92 174.967 77.536 175.367 79.536H171.719C171.495 78.88 171.167 78.312 170.735 77.832C170.303 77.336 169.783 76.96 169.175 76.704C168.583 76.432 167.935 76.296 167.231 76.296C165.807 76.296 164.615 76.808 163.655 77.832C162.711 78.84 162.239 80.104 162.239 81.624C162.239 83.128 162.711 84.384 163.655 85.392C164.615 86.4 165.807 86.904 167.231 86.904C168.335 86.904 169.287 86.592 170.087 85.968C170.887 85.344 171.439 84.496 171.743 83.424H175.415C175.031 85.504 174.087 87.184 172.583 88.464C171.095 89.728 169.311 90.36 167.231 90.36ZM189.834 73.2V76.584H185.154V90H181.506V76.584H176.85V73.2H189.834ZM204.041 73.2H206.681V90H203.033V79.896L195.257 90H192.737V73.2H196.385V83.184L204.041 73.2ZM225.023 90H220.583L214.655 81.792V90H211.007V73.2H214.655V80.952L220.151 73.2L224.399 73.2L218.663 81.24L225.023 90ZM236.573 73.2H240.365L235.613 84.528C234.765 86.608 233.813 88.048 232.757 88.848C231.717 89.648 230.285 90.048 228.461 90.048H227.789V86.664H228.845C229.597 86.664 230.173 86.552 230.573 86.328C230.973 86.104 231.341 85.68 231.677 85.056L225.437 73.2H229.517L233.501 80.88L236.573 73.2Z" fill="#099FE5"/>
</svg>
