<svg width="343" height="135" viewBox="0 0 343 135" fill="none" xmlns="http://www.w3.org/2000/svg">
<path d="M2.52652 128.334C1.44907 126.725 0.674826 124.895 0.285511 122.927L0.776005 122.83C0.594986 121.915 0.5 120.969 0.5 120L0.5 117.375H0L0 112.125H0.5L0.5 106.875H0L0 101.625H0.5L0.5 96.375H0L0 91.125H0.5L0.5 85.875H0L0 80.625H0.5L0.5 75.375H0L0 70.125H0.5L0.5 67.5L0.5 64.875H0L0 59.625H0.5L0.5 54.375H0L0 49.125H0.5L0.5 43.875H0L0 38.625H0.5L0.5 33.375H0L0 28.125H0.5L0.5 22.875H0L0 17.625H0.5L0.5 15C0.5 14.031 0.594986 13.0846 0.776005 12.1696L0.285511 12.0726C0.674825 10.1046 1.44907 8.27514 2.52652 6.66576L2.942 6.94392C4.00076 5.36246 5.36246 4.00076 6.94392 2.942L6.66576 2.52652C8.27514 1.44907 10.1046 0.674825 12.0726 0.285511L12.1696 0.776005C13.0846 0.594986 14.031 0.5 15 0.5H17.5388V0L22.6164 0V0.5L27.6939 0.5V0L32.7715 0V0.5L37.8491 0.5V0L42.9267 0V0.5L48.0042 0.5V0L53.0818 0V0.5L58.1594 0.5V0L63.237 0V0.5L68.3145 0.5V0L73.3921 0V0.5L78.4697 0.5V0L83.5473 0V0.5L88.6248 0.5V0L93.7024 0V0.5L98.78 0.5V0L103.858 0V0.5L108.935 0.5V0L114.013 0V0.5L119.09 0.5V0L124.168 0V0.5L129.245 0.5V0L134.323 0V0.5L139.401 0.5V0L144.478 0V0.5L149.556 0.5V0L154.633 0V0.5L159.711 0.5V0L164.788 0V0.5L169.866 0.5V0L174.944 0V0.5L180.021 0.5V0L185.099 0V0.5L190.176 0.5V0L195.254 0V0.5L200.332 0.5V0L205.409 0V0.5L210.487 0.5V0L215.564 0V0.5L220.642 0.5V0L225.719 0V0.5L230.797 0.5V0L235.875 0V0.5L240.952 0.5V0L246.03 0V0.5L251.107 0.5V0L256.185 0V0.5L261.262 0.5V0L266.34 0V0.5L271.418 0.5V0L276.495 0V0.5L279.034 0.5C280.095 0.5 281.143 0.616291 282.161 0.84115L282.269 0.352918C284.4 0.823567 286.403 1.75401 288.137 3.07822L287.834 3.47561C288.663 4.10827 289.428 4.83391 290.112 5.64488L291.696 7.51988L292.078 7.1973L295.244 10.9473L294.862 11.2699L298.029 15.0199L298.411 14.6973L301.578 18.4473L301.196 18.7699L304.362 22.5199L304.744 22.1973L307.911 25.9473L307.529 26.2699L310.696 30.0199L311.078 29.6973L314.244 33.4473L313.862 33.7699L317.029 37.5199L317.411 37.1973L320.578 40.9473L320.196 41.2699L323.362 45.0199L323.744 44.6973L326.911 48.4473L326.529 48.7699L329.696 52.5199L330.078 52.1973L333.244 55.9473L332.862 56.2699L334.446 58.1449C335.001 58.8028 335.489 59.4976 335.909 60.2203L336.341 59.9691C337.238 61.5111 337.837 63.1765 338.138 64.8835L337.646 64.9705C337.941 66.6431 337.941 68.357 337.646 70.0296L338.138 70.1165C337.837 71.8235 337.238 73.4889 336.341 75.031L335.909 74.7797C335.489 75.5024 335.001 76.1972 334.446 76.8551L332.862 78.7301L333.244 79.0527L330.078 82.8027L329.696 82.4801L326.529 86.2301L326.911 86.5527L323.744 90.3027L323.362 89.9801L320.196 93.7301L320.578 94.0527L317.411 97.8027L317.029 97.4801L313.862 101.23L314.244 101.553L311.078 105.303L310.696 104.98L307.529 108.73L307.911 109.053L304.744 112.803L304.362 112.48L301.196 116.23L301.578 116.553L298.411 120.303L298.029 119.98L294.862 123.73L295.244 124.053L292.078 127.803L291.696 127.48L290.112 129.355C289.428 130.166 288.663 130.892 287.834 131.524L288.137 131.922C286.403 133.246 284.4 134.176 282.269 134.647L282.161 134.159C281.143 134.384 280.095 134.5 279.034 134.5H276.495V135H271.418V134.5H266.34V135H261.262V134.5H256.185V135H251.107V134.5H246.03V135H240.952V134.5H235.875V135H230.797V134.5H225.719V135H220.642V134.5H215.564V135H210.487V134.5H205.409V135H200.332V134.5H195.254V135H190.176V134.5H185.099V135H180.021V134.5H174.944V135H169.866V134.5H164.788V135H159.711V134.5H154.633V135H149.556V134.5H144.478V135H139.401V134.5H134.323V135H129.245V134.5H124.168V135H119.09V134.5H114.013V135H108.935V134.5H103.858V135H98.78V134.5H93.7024V135H88.6248V134.5H83.5473V135H78.4697V134.5H73.3921V135H68.3145V134.5H63.237V135H58.1594V134.5H53.0818V135H48.0042V134.5H42.9267V135H37.8491V134.5H32.7715V135H27.6939V134.5H22.6164V135H17.5388V134.5H15C14.031 134.5 13.0846 134.405 12.1696 134.224L12.0726 134.714C10.1047 134.325 8.27514 133.551 6.66577 132.473L6.94393 132.058C5.36246 130.999 4.00077 129.638 2.942 128.056L2.52652 128.334Z" fill="#099FE5" stroke="#099FE5" stroke-dasharray="5 5"/>
<path d="M44.074 56.8C45.9113 56.8 47.4453 57.398 48.676 58.594C49.9067 59.7727 50.522 61.2633 50.522 63.066C50.522 64.8513 49.9067 66.342 48.676 67.538C47.4453 68.7167 45.9113 69.306 44.074 69.306H41.032V75H37.08V56.8H44.074ZM43.918 65.666C44.698 65.666 45.322 65.4233 45.79 64.938C46.2753 64.4527 46.518 63.8287 46.518 63.066C46.518 62.3033 46.2753 61.6793 45.79 61.194C45.322 60.6913 44.698 60.44 43.918 60.44H41.032V65.666H43.918ZM57.7258 71.334H64.9798V75H53.7738V56.8H64.6938V60.44H57.7258V64.028H64.0178V67.59H57.7258V71.334ZM79.1653 56.8V60.466H72.7693V75H68.8173V56.8H79.1653ZM94.5833 56.8H97.4433V75H93.4913V64.054L85.0673 75H82.3373V56.8H86.2893V67.616L94.5833 56.8ZM110.475 75.39C108.724 75.39 107.129 74.9827 105.691 74.168C104.252 73.336 103.125 72.2007 102.311 70.762C101.496 69.306 101.089 67.694 101.089 65.926C101.089 63.222 101.981 60.96 103.767 59.14C105.569 57.32 107.805 56.41 110.475 56.41C112.693 56.41 114.609 57.0773 116.221 58.412C117.833 59.7467 118.855 61.4973 119.289 63.664H115.337C115.094 62.9533 114.739 62.338 114.271 61.818C113.803 61.2807 113.239 60.8733 112.581 60.596C111.939 60.3013 111.237 60.154 110.475 60.154C108.932 60.154 107.641 60.7087 106.601 61.818C105.578 62.91 105.067 64.2793 105.067 65.926C105.067 67.5553 105.578 68.916 106.601 70.008C107.641 71.1 108.932 71.646 110.475 71.646C111.671 71.646 112.702 71.308 113.569 70.632C114.435 69.956 115.033 69.0373 115.363 67.876H119.341C118.925 70.1293 117.902 71.9493 116.273 73.336C114.661 74.7053 112.728 75.39 110.475 75.39ZM134.961 56.8V60.466H129.891V75H125.939V60.466H120.895V56.8H134.961ZM145.1 56.8C146.938 56.8 148.472 57.398 149.702 58.594C150.933 59.7727 151.548 61.2633 151.548 63.066C151.548 64.8513 150.933 66.342 149.702 67.538C148.472 68.7167 146.938 69.306 145.1 69.306H142.058V75H138.106V56.8H145.1ZM144.944 65.666C145.724 65.666 146.348 65.4233 146.816 64.938C147.302 64.4527 147.544 63.8287 147.544 63.066C147.544 62.3033 147.302 61.6793 146.816 61.194C146.348 60.6913 145.724 60.44 144.944 60.44H142.058V65.666H144.944ZM167.046 56.8H169.906V75H165.954V64.054L157.53 75H154.8V56.8H158.752V67.616L167.046 56.8ZM181.586 56.8C183.423 56.8 184.957 57.398 186.188 58.594C187.418 59.7727 188.034 61.2633 188.034 63.066C188.034 64.8513 187.418 66.342 186.188 67.538C184.957 68.7167 183.423 69.306 181.586 69.306H178.544V75H174.592V56.8H181.586ZM181.43 65.666C182.21 65.666 182.834 65.4233 183.302 64.938C183.787 64.4527 184.03 63.8287 184.03 63.066C184.03 62.3033 183.787 61.6793 183.302 61.194C182.834 60.6913 182.21 60.44 181.43 60.44H178.544V65.666H181.43ZM201.222 56.8L205.33 56.8L200.182 69.072C199.263 71.3253 198.232 72.8853 197.088 73.752C195.961 74.6187 194.41 75.052 192.434 75.052H191.706V71.386H192.85C193.664 71.386 194.288 71.2647 194.722 71.022C195.155 70.7793 195.554 70.32 195.918 69.644L189.158 56.8H193.578L197.894 65.12L201.222 56.8ZM211.489 54.798V51.86H219.315V54.798H211.489ZM220.225 56.8H223.085V75H219.133V64.054L210.709 75H207.979V56.8H211.931V67.616L220.225 56.8ZM236.117 75.39C234.366 75.39 232.771 74.9827 231.333 74.168C229.894 73.336 228.767 72.2007 227.953 70.762C227.138 69.306 226.731 67.694 226.731 65.926C226.731 63.222 227.623 60.96 229.409 59.14C231.211 57.32 233.447 56.41 236.117 56.41C238.335 56.41 240.251 57.0773 241.863 58.412C243.475 59.7467 244.497 61.4973 244.931 63.664H240.979C240.736 62.9533 240.381 62.338 239.913 61.818C239.445 61.2807 238.881 60.8733 238.223 60.596C237.581 60.3013 236.879 60.154 236.117 60.154C234.574 60.154 233.283 60.7087 232.243 61.818C231.22 62.91 230.709 64.2793 230.709 65.926C230.709 67.5553 231.22 68.916 232.243 70.008C233.283 71.1 234.574 71.646 236.117 71.646C237.313 71.646 238.344 71.308 239.211 70.632C240.077 69.956 240.675 69.0373 241.005 67.876H244.983C244.567 70.1293 243.544 71.9493 241.915 73.336C240.303 74.7053 238.37 75.39 236.117 75.39ZM253.965 56.8H261.453V75H257.501V68.682H254.979L251.521 75H247.101L251.053 68.084C250.499 67.8413 249.996 67.538 249.545 67.174C249.112 66.81 248.748 66.4113 248.453 65.978C248.159 65.5273 247.925 65.0333 247.751 64.496C247.595 63.9587 247.517 63.404 247.517 62.832C247.517 61.116 248.133 59.686 249.363 58.542C250.594 57.3807 252.128 56.8 253.965 56.8ZM254.199 65.224H257.501V60.466H254.199C253.419 60.466 252.787 60.6827 252.301 61.116C251.816 61.5493 251.573 62.1213 251.573 62.832C251.573 63.3 251.686 63.716 251.911 64.08C252.137 64.444 252.449 64.73 252.847 64.938C253.246 65.1287 253.697 65.224 254.199 65.224Z" fill="white"/>
</svg>
