<svg width="568" height="93" viewBox="0 0 568 93" fill="none" xmlns="http://www.w3.org/2000/svg">
<path d="M1.68435 88.5562C0.96605 87.4832 0.449884 86.2636 0.190341 84.9516L0.680835 84.8546C0.562252 84.2552 0.5 83.6351 0.5 83L0.5 80.7188H0L0 76.1562H0.5L0.5 71.5938H0L0 67.0312H0.5L0.5 62.4688H0L0 57.9062H0.5L0.5 53.3438H0L0 48.7812H0.5L0.5 46.5L0.5 44.2188H0L0 39.6562H0.5L0.5 35.0938H0L0 30.5312H0.5L0.5 25.9688H0L0 21.4062H0.5L0.5 16.8438H0L0 12.2812H0.5L0.5 10C0.5 9.3649 0.562251 8.74483 0.680834 8.14541L0.19034 8.04838C0.449883 6.73643 0.966046 5.51676 1.68435 4.44384L2.09983 4.722C2.79355 3.6858 3.6858 2.79355 4.722 2.09983L4.44384 1.68435C5.51676 0.966046 6.73643 0.449883 8.04838 0.19034L8.14541 0.680834C8.74483 0.562252 9.3649 0.5 10 0.5L12.4914 0.5V0L17.4732 0V0.5L22.455 0.5V0L27.4368 0V0.5L32.4186 0.5V0L37.4005 0V0.5L42.3823 0.5V0L47.3641 0V0.5L52.3459 0.5V0L57.3277 0V0.5L62.3095 0.5V0L67.2913 0V0.5L72.2731 0.5V0L77.2549 0V0.5L82.2367 0.5V0L87.2186 0V0.5L92.2004 0.5V0L97.1822 0V0.5L102.164 0.5V0L107.146 0V0.5L112.128 0.5V0L117.109 0V0.5L122.091 0.5V0L127.073 0V0.5L132.055 0.5V0L137.037 0V0.5L142.018 0.5V0L147 0V0.5L151.982 0.5V0L156.964 0V0.5L161.946 0.5V0L166.928 0V0.5L171.909 0.5V0L176.891 0V0.5L181.873 0.5V0L186.855 0V0.5L191.837 0.5V0L196.818 0V0.5L201.8 0.5V0L206.782 0V0.5L211.764 0.5V0L216.746 0V0.5L221.727 0.5V0L226.709 0V0.5L231.691 0.5V0L236.673 0V0.5L241.655 0.5V0L246.637 0V0.5L251.618 0.5V0L256.6 0V0.5L261.582 0.5V0L266.564 0V0.5L271.546 0.5V0L276.527 0V0.5L281.509 0.5V0L286.491 0V0.5L291.473 0.5V0L296.455 0V0.5L301.436 0.5V0L306.418 0V0.5L311.4 0.5V0L316.382 0V0.5L321.364 0.5V0L326.346 0V0.5L331.327 0.5V0L336.309 0V0.5L341.291 0.5V0L346.273 0V0.5L351.255 0.5V0L356.236 0V0.5L361.218 0.5V0L366.2 0V0.5L371.182 0.5V0L376.164 0V0.5L381.145 0.5V0L386.127 0V0.5L391.109 0.5V0L396.091 0V0.5L401.073 0.5V0L406.055 0V0.5L411.036 0.5V0L416.018 0V0.5L421 0.5V0L425.982 0V0.5L430.964 0.5V0L435.945 0V0.5L440.927 0.5V0L445.909 0V0.5L450.891 0.5V0L455.873 0V0.5L460.854 0.5V0L465.836 0V0.5L470.818 0.5V0L475.8 0V0.5L480.782 0.5V0L485.764 0V0.5L490.745 0.5V0L495.727 0V0.5L500.709 0.5V0L505.691 0V0.5L510.673 0.5V0L515.654 0V0.5L520.636 0.5V0L525.618 0V0.5L530.6 0.5V0L535.582 0V0.5L540.564 0.5V0L545.545 0V0.5L550.527 0.5V0L555.509 0V0.5H558C558.635 0.5 559.255 0.562251 559.855 0.680833L559.952 0.19034C561.263 0.449881 562.483 0.966042 563.556 1.68434L563.278 2.09982C564.314 2.79354 565.206 3.68579 565.9 4.72199L566.316 4.44383C567.034 5.51675 567.55 6.73643 567.81 8.04838L567.319 8.14541C567.438 8.74483 567.5 9.3649 567.5 10V12.2813H568V16.8438H567.5V21.4063H568V25.9688H567.5V30.5313H568V35.0938H567.5V39.6563H568V44.2188H567.5V46.5V48.7813H568V53.3438H567.5V57.9063H568V62.4688H567.5V67.0313H568V71.5938H567.5V76.1563H568V80.7188H567.5V83C567.5 83.6351 567.438 84.2552 567.319 84.8546L567.81 84.9516C567.55 86.2636 567.034 87.4832 566.316 88.5562L565.9 88.278C565.206 89.3142 564.314 90.2064 563.278 90.9002L563.556 91.3157C562.483 92.034 561.264 92.5501 559.952 92.8097L559.855 92.3192C559.255 92.4378 558.635 92.5 558 92.5H555.509V93H550.527V92.5H545.545V93H540.563V92.5H535.581V93H530.6V92.5H525.618V93H520.636V92.5H515.654V93H510.672V92.5H505.69V93H500.709V92.5H495.727V93H490.745V92.5H485.763V93H480.781V92.5H475.8V93H470.818V92.5H465.836V93H460.854V92.5H455.872V93H450.891V92.5H445.909V93H440.927V92.5H435.945V93H430.963V92.5H425.981V93H421V92.5H416.018V93H411.036V92.5H406.054V93H401.072V92.5H396.091V93H391.109V92.5H386.127V93H381.145V92.5H376.163V93H371.182V92.5H366.2V93H361.218V92.5H356.236V93H351.254V92.5H346.273V93H341.291V92.5H336.309V93H331.327V92.5H326.345V93H321.363V92.5H316.382V93H311.4V92.5H306.418V93H301.436V92.5H296.454V93H291.473V92.5H286.491V93H281.509V92.5H276.527V93H271.545V92.5H266.564V93H261.582V92.5H256.6V93L251.618 93V92.5H246.636V93H241.654V92.5H236.673V93H231.691V92.5H226.709V93H221.727V92.5H216.745V93H211.764V92.5H206.782V93H201.8V92.5H196.818V93H191.836V92.5H186.855V93H181.873V92.5H176.891V93H171.909V92.5H166.927V93H161.945V92.5H156.964V93H151.982V92.5H147V93H142.018V92.5H137.036V93H132.055V92.5H127.073V93H122.091V92.5H117.109V93H112.127V92.5H107.145V93H102.164V92.5H97.1818V93H92.2V92.5H87.2182V93H82.2364V92.5H77.2546V93H72.2728V92.5H67.2909V93H62.3091V92.5H57.3273V93H52.3455V92.5H47.3637V93H42.3818V92.5H37.4V93H32.4182V92.5H27.4364V93H22.4546V92.5H17.4727V93H12.4909V92.5H10C9.36491 92.5 8.74485 92.4378 8.14543 92.3192L8.0484 92.8097C6.73645 92.5501 5.51677 92.034 4.44385 91.3157L4.72201 90.9002C3.68581 90.2065 2.79356 89.3142 2.09984 88.278L1.68435 88.5562Z" stroke="#099FE5" stroke-dasharray="5 5"/>
<path d="M92.8765 28.1H93.9645V40H92.4685V30.939L85.6855 40H84.6655V28.1H86.1445V37.093L92.8765 28.1ZM102.843 40.187C101.075 40.187 99.6133 39.609 98.4573 38.453C97.3126 37.297 96.7403 35.8293 96.7403 34.05C96.7403 32.2707 97.3126 30.803 98.4573 29.647C99.6133 28.491 101.075 27.913 102.843 27.913C103.75 27.913 104.589 28.0887 105.359 28.44C106.141 28.78 106.799 29.2673 107.331 29.902C107.875 30.5367 108.255 31.279 108.47 32.129H106.957C106.64 31.2677 106.119 30.5933 105.393 30.106C104.668 29.6187 103.818 29.375 102.843 29.375C101.506 29.375 100.407 29.817 99.5453 30.701C98.6953 31.5737 98.2703 32.6957 98.2703 34.067C98.2703 35.427 98.6953 36.5433 99.5453 37.416C100.407 38.2887 101.506 38.725 102.843 38.725C103.841 38.725 104.708 38.47 105.444 37.96C106.181 37.4387 106.702 36.719 107.008 35.801H108.538C108.198 37.1497 107.513 38.2207 106.481 39.014C105.461 39.796 104.249 40.187 102.843 40.187ZM111.095 28.1H119.765V40H118.252V29.494H112.574V40H111.095V28.1ZM133.231 38.453C132.053 39.6203 130.562 40.204 128.76 40.204C126.97 40.204 125.485 39.6203 124.306 38.453C123.128 37.2857 122.538 35.8237 122.538 34.067C122.538 32.299 123.128 30.8313 124.306 29.664C125.485 28.4853 126.97 27.896 128.76 27.896C130.562 27.896 132.053 28.4797 133.231 29.647C134.41 30.8143 134.999 32.282 134.999 34.05C134.999 35.818 134.41 37.2857 133.231 38.453ZM125.394 37.399C126.29 38.2943 127.412 38.742 128.76 38.742C130.12 38.742 131.242 38.3 132.126 37.416C133.022 36.5207 133.469 35.3987 133.469 34.05C133.469 32.7013 133.022 31.585 132.126 30.701C131.242 29.8057 130.12 29.358 128.76 29.358C127.412 29.358 126.29 29.8057 125.394 30.701C124.51 31.5963 124.068 32.7127 124.068 34.05C124.068 35.3873 124.51 36.5037 125.394 37.399ZM139.246 28.1H146.59V40H145.111V29.494H140.606L140.045 36.243C139.829 38.759 138.634 40.017 136.458 40.017H135.965V38.538H136.441C137.687 38.538 138.379 37.79 138.515 36.294L139.246 28.1ZM154.55 32.333C155.31 32.333 155.995 32.4973 156.607 32.826C157.219 33.1547 157.695 33.6137 158.035 34.203C158.375 34.781 158.545 35.4383 158.545 36.175C158.545 37.2743 158.166 38.1867 157.406 38.912C156.658 39.6373 155.706 40 154.55 40H150.198V28.1H151.677V32.333H154.55ZM154.431 38.606C155.191 38.606 155.808 38.3737 156.284 37.909C156.772 37.4443 157.015 36.8607 157.015 36.158C157.015 35.444 156.772 34.8603 156.284 34.407C155.808 33.9423 155.191 33.71 154.431 33.71H151.677V38.606H154.431ZM166.572 33.71C167.093 33.982 167.507 34.3843 167.813 34.917C168.119 35.4383 168.272 36.0163 168.272 36.651C168.272 37.671 167.881 38.5153 167.099 39.184C166.328 39.8527 165.354 40.187 164.175 40.187C163.042 40.187 162.101 39.8583 161.353 39.201C160.605 38.5437 160.203 37.6993 160.146 36.668H161.608C161.665 37.3027 161.931 37.8183 162.407 38.215C162.883 38.6003 163.472 38.793 164.175 38.793C164.685 38.793 165.138 38.7023 165.535 38.521C165.932 38.3283 166.238 38.0677 166.453 37.739C166.68 37.399 166.793 37.0193 166.793 36.6C166.793 35.954 166.583 35.427 166.164 35.019C165.745 34.611 165.206 34.407 164.549 34.407H163.172V33.098H164.549C165.127 33.098 165.603 32.9223 165.977 32.571C166.362 32.2083 166.555 31.7493 166.555 31.194C166.555 30.616 166.334 30.1513 165.892 29.8C165.45 29.4373 164.878 29.256 164.175 29.256C163.552 29.256 163.013 29.4317 162.56 29.783C162.118 30.123 161.857 30.5707 161.778 31.126H160.35C160.429 30.1853 160.826 29.4147 161.54 28.814C162.265 28.202 163.144 27.896 164.175 27.896C165.286 27.896 166.198 28.202 166.912 28.814C167.637 29.4147 168 30.191 168 31.143C168 31.5057 167.943 31.857 167.83 32.197C167.717 32.5257 167.552 32.8203 167.337 33.081C167.122 33.3417 166.867 33.5513 166.572 33.71ZM177.985 28.1H179.583L175.911 36.328C175.276 37.7787 174.653 38.759 174.041 39.269C173.429 39.779 172.584 40.034 171.508 40.034H170.947V38.64H171.627C172.273 38.64 172.766 38.5097 173.106 38.249C173.446 37.977 173.814 37.433 174.211 36.617L169.672 28.1H171.389L174.993 34.883L177.985 28.1ZM183.841 26.179V25.057L188.669 25.057V26.179L183.841 26.179ZM189.893 28.1H190.981V40H189.485V30.939L182.702 40H181.682V28.1H183.161V37.093L189.893 28.1ZM207.097 28.1H208.967V40H206.383V32.843L200.875 40H199.09V28.1H201.674V35.172L207.097 28.1ZM219.086 28.1H221.653V40L219.086 40V35.087H214.615V40H212.031V28.1H214.615V32.69H219.086V28.1ZM230.18 40.255C229.035 40.255 227.992 39.9887 227.052 39.456C226.111 38.912 225.374 38.1697 224.842 37.229C224.309 36.277 224.043 35.223 224.043 34.067C224.043 32.299 224.626 30.82 225.794 29.63C226.972 28.44 228.434 27.845 230.18 27.845C231.63 27.845 232.883 28.2813 233.937 29.154C234.991 30.0267 235.659 31.1713 235.943 32.588H233.359C233.2 32.1233 232.968 31.721 232.662 31.381C232.356 31.0297 231.987 30.7633 231.557 30.582C231.137 30.3893 230.678 30.293 230.18 30.293C229.171 30.293 228.327 30.6557 227.647 31.381C226.978 32.095 226.644 32.9903 226.644 34.067C226.644 35.1323 226.978 36.022 227.647 36.736C228.327 37.45 229.171 37.807 230.18 37.807C230.962 37.807 231.636 37.586 232.203 37.144C232.769 36.702 233.16 36.1013 233.376 35.342H235.977C235.705 36.8153 235.036 38.0053 233.971 38.912C232.917 39.8073 231.653 40.255 230.18 40.255ZM246.19 28.1V30.497H242.875V40H240.291V30.497H236.993V28.1H246.19ZM252.819 28.1C254.021 28.1 255.024 28.491 255.828 29.273C256.633 30.0437 257.035 31.0183 257.035 32.197C257.035 33.3643 256.633 34.339 255.828 35.121C255.024 35.8917 254.021 36.277 252.819 36.277H250.83V40H248.246V28.1H252.819ZM252.717 33.897C253.227 33.897 253.635 33.7383 253.941 33.421C254.259 33.1037 254.417 32.6957 254.417 32.197C254.417 31.6983 254.259 31.2903 253.941 30.973C253.635 30.6443 253.227 30.48 252.717 30.48H250.83V33.897H252.717ZM265.658 28.1H268.344L264.978 36.124C264.378 37.5973 263.703 38.6173 262.955 39.184C262.219 39.7507 261.204 40.034 259.912 40.034H259.436V37.637H260.184C260.717 37.637 261.125 37.5577 261.408 37.399C261.692 37.2403 261.952 36.94 262.19 36.498L257.77 28.1H260.66L263.482 33.54L265.658 28.1ZM284.131 40H281.513L280.34 32.231L276.787 39.983H276.158L272.605 32.231L271.432 40H268.797L270.667 28.1H273.251L276.464 35.393L279.694 28.1H282.278L284.131 40ZM289.038 37.603H293.781V40H286.454V28.1H293.594V30.48H289.038V32.826H293.152V35.155H289.038V37.603ZM303.345 28.1H305.912V40H303.345V35.087H298.874V40H296.29V28.1H298.874V32.69H303.345V28.1ZM317.192 28.1V30.497H313.877V40H311.293V30.497H307.995V28.1H317.192ZM333.07 40H329.925L325.726 34.186V40H323.142V28.1H325.726V33.591L329.619 28.1H332.628L328.565 33.795L333.07 40ZM339.618 40.255C337.805 40.255 336.292 39.6657 335.079 38.487C333.878 37.297 333.277 35.818 333.277 34.05C333.277 32.282 333.878 30.8087 335.079 29.63C336.292 28.44 337.805 27.845 339.618 27.845C340.808 27.845 341.885 28.117 342.848 28.661C343.823 29.1937 344.582 29.936 345.126 30.888C345.67 31.8287 345.942 32.8827 345.942 34.05C345.942 35.8293 345.341 37.3083 344.14 38.487C342.939 39.6657 341.431 40.255 339.618 40.255ZM339.618 37.824C340.321 37.824 340.955 37.6653 341.522 37.348C342.089 37.0193 342.531 36.566 342.848 35.988C343.177 35.41 343.341 34.764 343.341 34.05C343.341 32.9733 342.984 32.078 342.27 31.364C341.567 30.6387 340.683 30.276 339.618 30.276C338.564 30.276 337.674 30.6387 336.949 31.364C336.235 32.078 335.878 32.9733 335.878 34.05C335.878 35.1267 336.235 36.0277 336.949 36.753C337.674 37.467 338.564 37.824 339.618 37.824ZM362.779 40H360.161L358.988 32.231L355.435 39.983H354.806L351.253 32.231L350.08 40H347.445L349.315 28.1H351.899L355.112 35.393L358.342 28.1H360.926L362.779 40ZM379.687 40H377.069L375.896 32.231L372.343 39.983H371.714L368.161 32.231L366.988 40H364.353L366.223 28.1H368.807L372.02 35.393L375.25 28.1H377.834L379.687 40ZM384.594 37.603H389.337V40H382.01V28.1L389.15 28.1V30.48L384.594 30.48V32.826H388.708V35.155H384.594V37.603ZM396.419 28.1C397.62 28.1 398.623 28.491 399.428 29.273C400.232 30.0437 400.635 31.0183 400.635 32.197C400.635 33.3643 400.232 34.339 399.428 35.121C398.623 35.8917 397.62 36.277 396.419 36.277H394.43V40H391.846V28.1H396.419ZM396.317 33.897C396.827 33.897 397.235 33.7383 397.541 33.421C397.858 33.1037 398.017 32.6957 398.017 32.197C398.017 31.6983 397.858 31.2903 397.541 30.973C397.235 30.6443 396.827 30.48 396.317 30.48H394.43V33.897H396.317ZM408.643 28.1H411.21V40H408.643V35.767C407.895 36.039 407.17 36.175 406.467 36.175C405.855 36.175 405.283 36.073 404.75 35.869C404.229 35.6537 403.77 35.359 403.373 34.985C402.988 34.5997 402.682 34.118 402.455 33.54C402.24 32.9507 402.132 32.299 402.132 31.585V28.1H404.716V31.568C404.716 32.316 404.886 32.8827 405.226 33.268C405.577 33.6533 406.076 33.846 406.722 33.846C407.277 33.846 407.918 33.6987 408.643 33.404V28.1ZM416.858 37.603H421.601V40H414.274V28.1H421.414V30.48H416.858V32.826H420.972V35.155H416.858V37.603ZM429.384 40.255C428.24 40.255 427.197 39.9887 426.256 39.456C425.316 38.912 424.579 38.1697 424.046 37.229C423.514 36.277 423.247 35.223 423.247 34.067C423.247 32.299 423.831 30.82 424.998 29.63C426.177 28.44 427.639 27.845 429.384 27.845C430.835 27.845 432.087 28.2813 433.141 29.154C434.195 30.0267 434.864 31.1713 435.147 32.588H432.563C432.405 32.1233 432.172 31.721 431.866 31.381C431.56 31.0297 431.192 30.7633 430.761 30.582C430.342 30.3893 429.883 30.293 429.384 30.293C428.376 30.293 427.531 30.6557 426.851 31.381C426.183 32.095 425.848 32.9903 425.848 34.067C425.848 35.1323 426.183 36.022 426.851 36.736C427.531 37.45 428.376 37.807 429.384 37.807C430.166 37.807 430.841 37.586 431.407 37.144C431.974 36.702 432.365 36.1013 432.58 35.342H435.181C434.909 36.8153 434.241 38.0053 433.175 38.912C432.121 39.8073 430.858 40.255 429.384 40.255ZM447.311 40H444.166L439.967 34.186V40H437.383V28.1H439.967V33.591L443.86 28.1H446.869L442.806 33.795L447.311 40ZM453.859 40.255C452.045 40.255 450.532 39.6657 449.32 38.487C448.118 37.297 447.518 35.818 447.518 34.05C447.518 32.282 448.118 30.8087 449.32 29.63C450.532 28.44 452.045 27.845 453.859 27.845C455.049 27.845 456.125 28.117 457.089 28.661C458.063 29.1937 458.823 29.936 459.367 30.888C459.911 31.8287 460.183 32.8827 460.183 34.05C460.183 35.8293 459.582 37.3083 458.381 38.487C457.179 39.6657 455.672 40.255 453.859 40.255ZM453.859 37.824C454.561 37.824 455.196 37.6653 455.763 37.348C456.329 37.0193 456.771 36.566 457.089 35.988C457.417 35.41 457.582 34.764 457.582 34.05C457.582 32.9733 457.225 32.078 456.511 31.364C455.808 30.6387 454.924 30.276 453.859 30.276C452.805 30.276 451.915 30.6387 451.19 31.364C450.476 32.078 450.119 32.9733 450.119 34.05C450.119 35.1267 450.476 36.0277 451.19 36.753C451.915 37.467 452.805 37.824 453.859 37.824ZM469.316 28.1V30.497H465.134V40H462.55V28.1H469.316ZM476.635 40.255C474.822 40.255 473.309 39.6657 472.096 38.487C470.895 37.297 470.294 35.818 470.294 34.05C470.294 32.282 470.895 30.8087 472.096 29.63C473.309 28.44 474.822 27.845 476.635 27.845C477.825 27.845 478.902 28.117 479.865 28.661C480.84 29.1937 481.599 29.936 482.143 30.888C482.687 31.8287 482.959 32.8827 482.959 34.05C482.959 35.8293 482.359 37.3083 481.157 38.487C479.956 39.6657 478.449 40.255 476.635 40.255ZM476.635 37.824C477.338 37.824 477.973 37.6653 478.539 37.348C479.106 37.0193 479.548 36.566 479.865 35.988C480.194 35.41 480.358 34.764 480.358 34.05C480.358 32.9733 480.001 32.078 479.287 31.364C478.585 30.6387 477.701 30.276 476.635 30.276C475.581 30.276 474.692 30.6387 473.966 31.364C473.252 32.078 472.895 32.9733 472.895 34.05C472.895 35.1267 473.252 36.0277 473.966 36.753C474.692 37.467 475.581 37.824 476.635 37.824ZM76.2049 50.1H85.4699V62H82.9029V52.497H78.7889V62H76.2049V50.1ZM93.1042 50.1C94.3056 50.1 95.3086 50.491 96.1132 51.273C96.9179 52.0437 97.3202 53.0183 97.3202 54.197C97.3202 55.3643 96.9179 56.339 96.1132 57.121C95.3086 57.8917 94.3056 58.277 93.1042 58.277H91.1152V62H88.5312V50.1H93.1042ZM93.0022 55.897C93.5122 55.897 93.9202 55.7383 94.2262 55.421C94.5436 55.1037 94.7022 54.6957 94.7022 54.197C94.7022 53.6983 94.5436 53.2903 94.2262 52.973C93.9202 52.6443 93.5122 52.48 93.0022 52.48H91.1152V55.897H93.0022ZM102.03 59.603H106.773V62H99.4464V50.1H106.586V52.48H102.03V54.826H106.144V57.155H102.03V59.603ZM119.024 59.603H120.18V64.108H117.8V62H110.762V64.108H108.382V59.603H109.334C109.504 59.467 109.645 59.3197 109.759 59.161C109.883 59.0023 109.997 58.753 110.099 58.413C110.212 58.0617 110.303 57.7047 110.371 57.342C110.439 56.968 110.512 56.3957 110.592 55.625C110.682 54.8543 110.762 54.0893 110.83 53.33C110.898 52.5593 110.988 51.4827 111.102 50.1H119.024V59.603ZM113.329 52.497C113.193 54.6957 113.028 56.3107 112.836 57.342C112.643 58.362 112.36 59.1157 111.986 59.603H116.457V52.497H113.329ZM124.832 50.1H132.737V62H130.17V52.497H127.076L126.515 57.648C126.356 59.1213 125.931 60.2207 125.24 60.946C124.56 61.6713 123.597 62.034 122.35 62.034H121.687V59.518H122.367C123.285 59.518 123.812 58.9343 123.948 57.767L124.832 50.1ZM141.439 62.255C139.625 62.255 138.112 61.6657 136.9 60.487C135.698 59.297 135.098 57.818 135.098 56.05C135.098 54.282 135.698 52.8087 136.9 51.63C138.112 50.44 139.625 49.845 141.439 49.845C142.629 49.845 143.705 50.117 144.669 50.661C145.643 51.1937 146.403 51.936 146.947 52.888C147.491 53.8287 147.763 54.8827 147.763 56.05C147.763 57.8293 147.162 59.3083 145.961 60.487C144.759 61.6657 143.252 62.255 141.439 62.255ZM141.439 59.824C142.141 59.824 142.776 59.6653 143.343 59.348C143.909 59.0193 144.351 58.566 144.669 57.988C144.997 57.41 145.162 56.764 145.162 56.05C145.162 54.9733 144.805 54.078 144.091 53.364C143.388 52.6387 142.504 52.276 141.439 52.276C140.385 52.276 139.495 52.6387 138.77 53.364C138.056 54.078 137.699 54.9733 137.699 56.05C137.699 57.1267 138.056 58.0277 138.77 58.753C139.495 59.467 140.385 59.824 141.439 59.824ZM164.851 62H161.808L157.711 56.237V62H155.127V56.237L151.013 62H147.97L152.424 55.812L148.463 50.1H151.421L155.127 55.557V50.1H157.711V55.557L161.417 50.1H164.375L160.414 55.812L164.851 62ZM169.058 59.603H173.801V62H166.474V50.1H173.614V52.48H169.058V54.826H173.172V57.155H169.058V59.603ZM183.365 50.1H185.932V62H183.365V57.087H178.894V62H176.31V50.1H178.894V54.69H183.365V50.1ZM197.008 50.1H198.878V62H196.294V54.843L190.786 62H189.001V50.1H191.585V57.172L197.008 50.1ZM205.614 50.1H210.51V62H207.926V57.869H206.277L204.016 62H201.126L203.71 57.478C203.347 57.3193 203.019 57.121 202.724 56.883C202.441 56.645 202.203 56.3843 202.01 56.101C201.817 55.8063 201.664 55.4833 201.551 55.132C201.449 54.7807 201.398 54.418 201.398 54.044C201.398 52.922 201.8 51.987 202.605 51.239C203.41 50.4797 204.413 50.1 205.614 50.1ZM205.767 55.608H207.926V52.497H205.767C205.257 52.497 204.843 52.6387 204.526 52.922C204.209 53.2053 204.05 53.5793 204.05 54.044C204.05 54.35 204.124 54.622 204.271 54.86C204.418 55.098 204.622 55.285 204.883 55.421C205.144 55.5457 205.438 55.608 205.767 55.608ZM226.843 50.1H227.931V62H226.435V52.939L219.652 62H218.632V50.1H220.111V59.093L226.843 50.1ZM241.497 62.255C240.352 62.255 239.31 61.9887 238.369 61.456C237.428 60.912 236.692 60.1697 236.159 59.229C235.626 58.277 235.36 57.223 235.36 56.067C235.36 54.299 235.944 52.82 237.111 51.63C238.29 50.44 239.752 49.845 241.497 49.845C242.948 49.845 244.2 50.2813 245.254 51.154C246.308 52.0267 246.977 53.1713 247.26 54.588H244.676C244.517 54.1233 244.285 53.721 243.979 53.381C243.673 53.0297 243.305 52.7633 242.874 52.582C242.455 52.3893 241.996 52.293 241.497 52.293C240.488 52.293 239.644 52.6557 238.964 53.381C238.295 54.095 237.961 54.9903 237.961 56.067C237.961 57.1323 238.295 58.022 238.964 58.736C239.644 59.45 240.488 59.807 241.497 59.807C242.279 59.807 242.953 59.586 243.52 59.144C244.087 58.702 244.478 58.1013 244.693 57.342H247.294C247.022 58.8153 246.353 60.0053 245.288 60.912C244.234 61.8073 242.97 62.255 241.497 62.255ZM254.068 50.1C255.27 50.1 256.273 50.491 257.077 51.273C257.882 52.0437 258.284 53.0183 258.284 54.197C258.284 55.3643 257.882 56.339 257.077 57.121C256.273 57.8917 255.27 58.277 254.068 58.277H252.079V62H249.495V50.1H254.068ZM253.966 55.897C254.476 55.897 254.884 55.7383 255.19 55.421C255.508 55.1037 255.666 54.6957 255.666 54.197C255.666 53.6983 255.508 53.2903 255.19 52.973C254.884 52.6443 254.476 52.48 253.966 52.48H252.079V55.897H253.966ZM267.386 62L266.553 59.739H261.81L260.994 62H258.274L262.932 50.1H265.363L270.174 62H267.386ZM264.173 53.245L262.626 57.495H265.737L264.173 53.245ZM279.18 55.727C279.701 55.999 280.104 56.3843 280.387 56.883C280.682 57.3703 280.829 57.9313 280.829 58.566C280.829 59.518 280.461 60.3283 279.724 60.997C278.999 61.6657 278.12 62 277.089 62H272.023V50.1H276.953C277.973 50.1 278.823 50.3947 279.503 50.984C280.183 51.562 280.523 52.2873 280.523 53.16C280.523 53.67 280.404 54.1517 280.166 54.605C279.928 55.0583 279.599 55.4323 279.18 55.727ZM278.024 53.568C278.024 53.3753 277.99 53.2053 277.922 53.058C277.865 52.8993 277.78 52.7633 277.667 52.65C277.554 52.5367 277.412 52.4517 277.242 52.395C277.083 52.327 276.902 52.293 276.698 52.293H274.556V54.826H276.698C277.106 54.826 277.429 54.7127 277.667 54.486C277.905 54.248 278.024 53.942 278.024 53.568ZM276.834 59.637C277.253 59.637 277.593 59.5123 277.854 59.263C278.115 59.0137 278.245 58.6907 278.245 58.294C278.245 57.9087 278.115 57.5913 277.854 57.342C277.593 57.0927 277.253 56.968 276.834 56.968H274.556V59.637H276.834ZM290.325 50.1H292.892V62H290.325V57.087H285.854V62H283.27V50.1H285.854V54.69H290.325V50.1ZM303.969 50.1H305.839V62H303.255V54.843L297.747 62H295.962V50.1H298.546V57.172L303.969 50.1ZM317.113 50.1V52.497H313.798V62H311.214V52.497H307.916V50.1H317.113ZM321.754 59.603H326.497V62H319.17V50.1H326.31V52.48H321.754V54.826H325.868V57.155H321.754V59.603ZM331.233 50.1H339.138V62H336.571V52.497H333.477L332.916 57.648C332.758 59.1213 332.333 60.2207 331.641 60.946C330.961 61.6713 329.998 62.034 328.751 62.034H328.088V59.518H328.768C329.686 59.518 330.213 58.9343 330.349 57.767L331.233 50.1ZM346.82 53.704C347.647 53.704 348.384 53.8797 349.03 54.231C349.687 54.5823 350.197 55.0753 350.56 55.71C350.934 56.3333 351.121 57.0473 351.121 57.852C351.121 59.0647 350.718 60.062 349.914 60.844C349.109 61.6147 348.078 62 346.82 62H342.196V50.1H344.78V53.704H346.82ZM346.633 59.586C347.177 59.586 347.619 59.4273 347.959 59.11C348.31 58.7813 348.486 58.362 348.486 57.852C348.486 57.512 348.406 57.2117 348.248 56.951C348.1 56.6903 347.885 56.4863 347.602 56.339C347.318 56.1917 346.995 56.118 346.633 56.118H344.78V59.586H346.633ZM360.315 50.1H362.882V62H360.315V57.087H355.844V62H353.26V50.1H355.844V54.69H360.315V50.1ZM371.596 62.255C369.783 62.255 368.27 61.6657 367.057 60.487C365.856 59.297 365.255 57.818 365.255 56.05C365.255 54.282 365.856 52.8087 367.057 51.63C368.27 50.44 369.783 49.845 371.596 49.845C372.786 49.845 373.863 50.117 374.826 50.661C375.801 51.1937 376.56 51.936 377.104 52.888C377.648 53.8287 377.92 54.8827 377.92 56.05C377.92 57.8293 377.319 59.3083 376.118 60.487C374.917 61.6657 373.409 62.255 371.596 62.255ZM371.596 59.824C372.299 59.824 372.933 59.6653 373.5 59.348C374.067 59.0193 374.509 58.566 374.826 57.988C375.155 57.41 375.319 56.764 375.319 56.05C375.319 54.9733 374.962 54.078 374.248 53.364C373.545 52.6387 372.661 52.276 371.596 52.276C370.542 52.276 369.652 52.6387 368.927 53.364C368.213 54.078 367.856 54.9733 367.856 56.05C367.856 57.1267 368.213 58.0277 368.927 58.753C369.652 59.467 370.542 59.824 371.596 59.824ZM387.053 50.1V52.497H382.871V62H380.287V50.1H387.053ZM394.373 62.255C392.559 62.255 391.046 61.6657 389.834 60.487C388.632 59.297 388.032 57.818 388.032 56.05C388.032 54.282 388.632 52.8087 389.834 51.63C391.046 50.44 392.559 49.845 394.373 49.845C395.563 49.845 396.639 50.117 397.603 50.661C398.577 51.1937 399.337 51.936 399.881 52.888C400.425 53.8287 400.697 54.8827 400.697 56.05C400.697 57.8293 400.096 59.3083 398.895 60.487C397.693 61.6657 396.186 62.255 394.373 62.255ZM394.373 59.824C395.075 59.824 395.71 59.6653 396.277 59.348C396.843 59.0193 397.285 58.566 397.603 57.988C397.931 57.41 398.096 56.764 398.096 56.05C398.096 54.9733 397.739 54.078 397.025 53.364C396.322 52.6387 395.438 52.276 394.373 52.276C393.319 52.276 392.429 52.6387 391.704 53.364C390.99 54.078 390.633 54.9733 390.633 56.05C390.633 57.1267 390.99 58.0277 391.704 58.753C392.429 59.467 393.319 59.824 394.373 59.824ZM415.376 62L414.543 59.739H409.8L408.984 62H406.264L410.922 50.1H413.353L418.164 62H415.376ZM412.163 53.245L410.616 57.495H413.727L412.163 53.245ZM427.068 50.1H429.635V62H427.068V57.087H422.597V62H420.013V50.1H422.597V54.69H427.068V50.1ZM440.61 62L439.777 59.739H435.034L434.218 62H431.498L436.156 50.1H438.587L443.398 62H440.61ZM437.397 53.245L435.85 57.495H438.961L437.397 53.245ZM447.474 50.1H455.379V62H452.812V52.497H449.718L449.157 57.648C448.998 59.1213 448.573 60.2207 447.882 60.946C447.202 61.6713 446.239 62.034 444.992 62.034H444.329V59.518H445.009C445.927 59.518 446.454 58.9343 446.59 57.767L447.474 50.1ZM466.444 50.1H468.314V62H465.73V54.843L460.222 62H458.437V50.1H461.021V57.172L466.444 50.1ZM477.718 55.812C478.206 56.118 478.58 56.509 478.84 56.985C479.112 57.461 479.248 57.9767 479.248 58.532C479.248 59.314 479.039 59.994 478.619 60.572C478.2 61.1387 477.667 61.5637 477.021 61.847C476.375 62.119 475.667 62.255 474.896 62.255C474.148 62.255 473.457 62.1133 472.822 61.83C472.188 61.5467 471.661 61.1047 471.241 60.504C470.833 59.9033 470.624 59.2007 470.612 58.396H473.128C473.14 58.906 473.315 59.3083 473.655 59.603C474.007 59.8863 474.42 60.028 474.896 60.028C475.406 60.028 475.837 59.8863 476.188 59.603C476.551 59.3197 476.732 58.94 476.732 58.464C476.732 58.0107 476.562 57.648 476.222 57.376C475.894 57.104 475.457 56.968 474.913 56.968H473.825V54.792H474.913C475.378 54.792 475.758 54.6673 476.052 54.418C476.347 54.1573 476.494 53.823 476.494 53.415C476.494 52.973 476.341 52.6273 476.035 52.378C475.729 52.1173 475.35 51.987 474.896 51.987C474.466 51.987 474.086 52.1173 473.757 52.378C473.429 52.6387 473.259 52.99 473.247 53.432H470.799C470.799 52.684 470.998 52.0323 471.394 51.477C471.802 50.9103 472.307 50.4967 472.907 50.236C473.519 49.9753 474.182 49.845 474.896 49.845C475.61 49.845 476.268 49.9753 476.868 50.236C477.48 50.4967 477.979 50.9047 478.364 51.46C478.761 52.004 478.959 52.6443 478.959 53.381C478.959 54.4123 478.546 55.2227 477.718 55.812ZM489.218 62L488.385 59.739L483.642 59.739L482.826 62H480.106L484.764 50.1L487.195 50.1L492.006 62H489.218ZM486.005 53.245L484.458 57.495L487.569 57.495L486.005 53.245Z" fill="#099FE5"/>
</svg>
