<svg width="540" height="135" viewBox="0 0 540 135" fill="none" xmlns="http://www.w3.org/2000/svg">
<path d="M7.32833 7.90331C6.72856 7.19305 6.39947 6.39799 6.29441 5.60082L5.7987 5.66614C5.54686 3.75518 6.4478 1.8152 8.07032 0.774691L8.34023 1.19558C9.01708 0.761526 9.83685 0.5 10.7665 0.5H13.2413V0L18.1909 0V0.5L23.1406 0.5V0L28.0903 0V0.5L33.0399 0.5V0L37.9896 0V0.5L42.9392 0.5V0L47.8889 0V0.5L52.8385 0.5V0L57.7882 0V0.5L62.7378 0.5V0L67.6875 0V0.5L72.6371 0.5V0L77.5868 0V0.5L82.5364 0.5V0L87.4861 0V0.5L92.4358 0.5V0L97.3854 0V0.5L102.335 0.5V0L107.285 0V0.5L112.234 0.5V0L117.184 0V0.5L122.134 0.5V0L127.083 0V0.5L132.033 0.5V0L136.983 0V0.5L141.932 0.5V0L146.882 0V0.5L151.832 0.5V0L156.781 0V0.5L161.731 0.5V0L166.681 0V0.5L171.63 0.5V0L176.58 0V0.5L181.529 0.5V0L186.479 0V0.5L191.429 0.5V0L196.378 0V0.5L201.328 0.5V0L206.278 0V0.5L211.227 0.5V0L216.177 0V0.5L221.127 0.5V0L226.076 0V0.5L231.026 0.5V0L235.976 0V0.5L240.925 0.5V0L245.875 0V0.5L250.825 0.5V0L255.774 0V0.5L260.724 0.5V0L265.673 0V0.5L270.623 0.5V0L275.573 0V0.5L280.522 0.5V0L285.472 0V0.5L290.422 0.5V0L295.371 0V0.5L300.321 0.5V0L305.271 0V0.5L310.22 0.5V0L315.17 0V0.5L320.12 0.5V0L325.069 0V0.5L330.019 0.5V0L334.969 0V0.5L339.918 0.5V0L344.868 0V0.5L349.817 0.5V0L354.767 0V0.5L359.717 0.5V0L364.666 0V0.5L369.616 0.5V0L374.566 0V0.5L379.515 0.5V0L384.465 0V0.5L389.415 0.5V0L394.364 0V0.5L399.314 0.5V0L404.264 0V0.5L409.213 0.5V0L414.163 0V0.5L419.112 0.5V0L424.062 0V0.5L429.012 0.5V0L433.961 0V0.5L438.911 0.5V0L443.861 0V0.5L448.81 0.5V0L453.76 0V0.5L458.71 0.5V0L463.659 0V0.5L468.609 0.5V0L473.559 0V0.5L476.034 0.5C477.095 0.5 478.143 0.616291 479.161 0.84115L479.269 0.352918C481.4 0.823567 483.403 1.75401 485.137 3.07822L484.834 3.47561C485.663 4.10827 486.428 4.83391 487.112 5.64488L488.696 7.51988L489.078 7.19729L492.244 10.9473L491.862 11.2699L495.029 15.0199L495.411 14.6973L498.578 18.4473L498.196 18.7699L501.362 22.5199L501.744 22.1973L504.911 25.9473L504.529 26.2699L507.696 30.0199L508.078 29.6973L511.244 33.4473L510.862 33.7699L514.029 37.5199L514.411 37.1973L517.578 40.9473L517.196 41.2699L520.362 45.0199L520.744 44.6973L523.911 48.4473L523.529 48.7699L526.696 52.5199L527.078 52.1973L530.244 55.9473L529.862 56.2699L531.446 58.1449C532.001 58.8028 532.489 59.4976 532.909 60.2203L533.341 59.9691C534.238 61.5111 534.837 63.1765 535.138 64.8835L534.646 64.9705C534.941 66.6431 534.941 68.357 534.646 70.0295L535.138 70.1165C534.837 71.8235 534.238 73.4889 533.341 75.031L532.909 74.7797C532.489 75.5024 532.001 76.1972 531.446 76.8551L529.862 78.7301L530.244 79.0527L527.078 82.8027L526.696 82.4801L523.529 86.2301L523.911 86.5527L520.744 90.3027L520.362 89.9801L517.196 93.7301L517.578 94.0527L514.411 97.8027L514.029 97.4801L510.862 101.23L511.244 101.553L508.078 105.303L507.696 104.98L504.529 108.73L504.911 109.053L501.744 112.803L501.362 112.48L498.196 116.23L498.578 116.553L495.411 120.303L495.029 119.98L491.862 123.73L492.244 124.053L489.078 127.803L488.696 127.48L487.112 129.355C486.428 130.166 485.663 130.892 484.834 131.524L485.137 131.922C483.403 133.246 481.4 134.176 479.269 134.647L479.161 134.159C478.143 134.384 477.095 134.5 476.034 134.5H473.559V135H468.609V134.5H463.66V135H458.71V134.5H453.76V135H448.811V134.5H443.861V135H438.912V134.5H433.962V135H429.012V134.5H424.063V135H419.113V134.5H414.163V135H409.214V134.5H404.264V135H399.314V134.5H394.365V135H389.415V134.5H384.465V135H379.516V134.5H374.566V135H369.616V134.5H364.667V135H359.717V134.5H354.767V135H349.818V134.5H344.868V135H339.918V134.5H334.969V135H330.019V134.5H325.07V135H320.12V134.5H315.17V135H310.221V134.5H305.271V135H300.321V134.5H295.372V135H290.422V134.5H285.472V135H280.523V134.5H275.573V135H270.623V134.5H265.674V135H260.724V134.5H255.774V135H250.825V134.5H245.875V135H240.926V134.5H235.976V135H231.026V134.5H226.077V135H221.127V134.5H216.177V135H211.228V134.5H206.278V135H201.328V134.5H196.379V135H191.429V134.5H186.479V135H181.53V134.5H176.58V135H171.63V134.5H166.681V135H161.731V134.5H156.782V135H151.832V134.5H146.882V135H141.933V134.5H136.983V135H132.033V134.5H127.084V135H122.134V134.5H117.184V135H112.235V134.5H107.285V135H102.335V134.5H97.3858V135H92.4361V134.5H87.4865V135H82.5368V134.5H77.5872V135H72.6376V134.5H67.6879V135H62.7383V134.5H57.7886V135H52.839V134.5H47.8893V135H42.9397V134.5H37.99V135H33.0404V134.5H28.0907V135H23.1411V134.5H18.1915V135H13.2418V134.5H10.7665C9.83685 134.5 9.01708 134.238 8.34023 133.804L8.07032 134.225C6.4478 133.185 5.54687 131.245 5.79871 129.334L6.29442 129.399C6.39948 128.602 6.72857 127.807 7.32833 127.097L9.07339 125.03L8.69138 124.708L12.1815 120.575L12.5635 120.897L16.0536 116.764L15.6716 116.442L19.1617 112.308L19.5437 112.631L23.0339 108.498L22.6518 108.175L26.142 104.042L26.524 104.365L30.0141 100.232L29.6321 99.9094L33.1222 95.7764L33.5042 96.0989L36.9943 91.9659L36.6123 91.6433L40.1024 87.5103L40.4844 87.8329L43.9746 83.6998L43.5925 83.3773L47.0827 79.2442L47.4647 79.5668L49.2097 77.5003C49.8032 76.7976 50.3245 76.055 50.7737 75.2822L50.3414 75.0309C51.2377 73.4889 51.8366 71.8235 52.1381 70.1165L52.6305 70.2035C52.9462 68.4158 52.9462 66.5842 52.6305 64.7965L52.1381 64.8835C51.8366 63.1765 51.2377 61.5111 50.3414 59.9691L50.7737 59.7178C50.3245 58.945 49.8031 58.2024 49.2097 57.4997L47.4647 55.4332L47.0826 55.7558L43.5925 51.6227L43.9745 51.3001L40.4844 47.1671L40.1024 47.4897L36.6123 43.3567L36.9943 43.0341L33.5042 38.9011L33.1222 39.2236L29.6321 35.0906L30.0141 34.768L26.524 30.635L26.142 30.9576L22.6518 26.8245L23.0339 26.502L19.5437 22.3689L19.1617 22.6915L15.6716 18.5585L16.0536 18.2359L12.5635 14.1029L12.1815 14.4254L8.69137 10.2924L9.07339 9.96982L7.32833 7.90331Z" stroke="#099FE5" stroke-dasharray="5 5"/>
<path d="M90.738 30.6H92.146V46H90.21V34.274L81.432 46H80.112V30.6H82.026V42.238L90.738 30.6ZM103.636 46.242C101.348 46.242 99.4562 45.494 97.9602 43.998C96.4789 42.502 95.7382 40.6027 95.7382 38.3C95.7382 35.9973 96.4789 34.098 97.9602 32.602C99.4562 31.106 101.348 30.358 103.636 30.358C104.81 30.358 105.895 30.5853 106.892 31.04C107.904 31.48 108.755 32.1107 109.444 32.932C110.148 33.7533 110.64 34.714 110.918 35.814H108.96C108.55 34.6993 107.875 33.8267 106.936 33.196C105.998 32.5653 104.898 32.25 103.636 32.25C101.906 32.25 100.483 32.822 99.3682 33.966C98.2682 35.0953 97.7182 36.5473 97.7182 38.322C97.7182 40.082 98.2682 41.5267 99.3682 42.656C100.483 43.7853 101.906 44.35 103.636 44.35C104.927 44.35 106.049 44.02 107.002 43.36C107.956 42.6853 108.63 41.754 109.026 40.566H111.006C110.566 42.3113 109.679 43.6973 108.344 44.724C107.024 45.736 105.455 46.242 103.636 46.242ZM114.314 30.6H125.534V46H123.576V32.404H116.228V46H114.314V30.6ZM142.962 43.998C141.437 45.5087 139.508 46.264 137.176 46.264C134.859 46.264 132.937 45.5087 131.412 43.998C129.887 42.4873 129.124 40.5953 129.124 38.322C129.124 36.034 129.887 34.1347 131.412 32.624C132.937 31.0987 134.859 30.336 137.176 30.336C139.508 30.336 141.437 31.0913 142.962 32.602C144.487 34.1127 145.25 36.012 145.25 38.3C145.25 40.588 144.487 42.4873 142.962 43.998ZM132.82 42.634C133.979 43.7927 135.431 44.372 137.176 44.372C138.936 44.372 140.388 43.8 141.532 42.656C142.691 41.4973 143.27 40.0453 143.27 38.3C143.27 36.5547 142.691 35.11 141.532 33.966C140.388 32.8073 138.936 32.228 137.176 32.228C135.431 32.228 133.979 32.8073 132.82 33.966C131.676 35.1247 131.104 36.5693 131.104 38.3C131.104 40.0307 131.676 41.4753 132.82 42.634ZM150.745 30.6H160.249V46H158.335V32.404H152.505L151.779 41.138C151.501 44.394 149.953 46.022 147.137 46.022H146.499V44.108H147.115C148.729 44.108 149.623 43.14 149.799 41.204L150.745 30.6ZM170.551 36.078C171.534 36.078 172.421 36.2907 173.213 36.716C174.005 37.1413 174.621 37.7353 175.061 38.498C175.501 39.246 175.721 40.0967 175.721 41.05C175.721 42.4727 175.23 43.6533 174.247 44.592C173.279 45.5307 172.047 46 170.551 46H164.919V30.6H166.833V36.078H170.551ZM170.397 44.196C171.38 44.196 172.179 43.8953 172.795 43.294C173.426 42.6927 173.741 41.9373 173.741 41.028C173.741 40.104 173.426 39.3487 172.795 38.762C172.179 38.1607 171.38 37.86 170.397 37.86H166.833V44.196H170.397ZM186.109 37.86C186.783 38.212 187.319 38.7327 187.715 39.422C188.111 40.0967 188.309 40.8447 188.309 41.666C188.309 42.986 187.803 44.0787 186.791 44.944C185.793 45.8093 184.532 46.242 183.007 46.242C181.54 46.242 180.323 45.8167 179.355 44.966C178.387 44.1153 177.866 43.0227 177.793 41.688H179.685C179.758 42.5093 180.103 43.1767 180.719 43.69C181.335 44.1887 182.097 44.438 183.007 44.438C183.667 44.438 184.253 44.3207 184.767 44.086C185.28 43.8367 185.676 43.4993 185.955 43.074C186.248 42.634 186.395 42.1427 186.395 41.6C186.395 40.764 186.123 40.082 185.581 39.554C185.038 39.026 184.341 38.762 183.491 38.762H181.709V37.068H183.491C184.239 37.068 184.855 36.8407 185.339 36.386C185.837 35.9167 186.087 35.3227 186.087 34.604C186.087 33.856 185.801 33.2547 185.229 32.8C184.657 32.3307 183.916 32.096 183.007 32.096C182.2 32.096 181.503 32.3233 180.917 32.778C180.345 33.218 180.007 33.7973 179.905 34.516H178.057C178.159 33.2987 178.673 32.3013 179.597 31.524C180.535 30.732 181.672 30.336 183.007 30.336C184.444 30.336 185.625 30.732 186.549 31.524C187.487 32.3013 187.957 33.306 187.957 34.538C187.957 35.0073 187.883 35.462 187.737 35.902C187.59 36.3273 187.377 36.7087 187.099 37.046C186.82 37.3833 186.49 37.6547 186.109 37.86ZM200.878 30.6H202.946L198.194 41.248C197.373 43.1253 196.566 44.394 195.774 45.054C194.982 45.714 193.889 46.044 192.496 46.044H191.77V44.24H192.65C193.486 44.24 194.124 44.0713 194.564 43.734C195.004 43.382 195.481 42.678 195.994 41.622L190.12 30.6H192.342L197.006 39.378L200.878 30.6ZM208.457 28.114V26.662H214.705V28.114H208.457ZM216.289 30.6H217.697V46H215.761V34.274L206.983 46H205.663V30.6H207.577V42.238L216.289 30.6ZM238.553 30.6H240.973V46H237.629V36.738L230.501 46H228.191V30.6H231.535V39.752L238.553 30.6ZM254.068 30.6H257.39V46H254.068V39.642H248.282V46H244.938V30.6H248.282V36.54H254.068V30.6ZM268.424 46.33C266.943 46.33 265.594 45.9853 264.376 45.296C263.159 44.592 262.206 43.6313 261.516 42.414C260.827 41.182 260.482 39.818 260.482 38.322C260.482 36.034 261.238 34.12 262.748 32.58C264.274 31.04 266.166 30.27 268.424 30.27C270.302 30.27 271.922 30.8347 273.286 31.964C274.65 33.0933 275.516 34.5747 275.882 36.408H272.538C272.333 35.8067 272.032 35.286 271.636 34.846C271.24 34.3913 270.764 34.0467 270.206 33.812C269.664 33.5627 269.07 33.438 268.424 33.438C267.119 33.438 266.026 33.9073 265.146 34.846C264.281 35.77 263.848 36.9287 263.848 38.322C263.848 39.7007 264.281 40.852 265.146 41.776C266.026 42.7 267.119 43.162 268.424 43.162C269.436 43.162 270.309 42.876 271.042 42.304C271.776 41.732 272.282 40.9547 272.56 39.972H275.926C275.574 41.8787 274.709 43.4187 273.33 44.592C271.966 45.7507 270.331 46.33 268.424 46.33ZM289.143 30.6V33.702H284.853V46H281.509V33.702H277.241V30.6H289.143ZM297.723 30.6C299.277 30.6 300.575 31.106 301.617 32.118C302.658 33.1153 303.179 34.3767 303.179 35.902C303.179 37.4127 302.658 38.674 301.617 39.686C300.575 40.6833 299.277 41.182 297.723 41.182H295.149V46H291.805V30.6H297.723ZM297.591 38.102C298.251 38.102 298.779 37.8967 299.175 37.486C299.585 37.0753 299.791 36.5473 299.791 35.902C299.791 35.2567 299.585 34.7287 299.175 34.318C298.779 33.8927 298.251 33.68 297.591 33.68H295.149V38.102H297.591ZM314.338 30.6H317.814L313.458 40.984C312.681 42.8907 311.808 44.2107 310.84 44.944C309.887 45.6773 308.574 46.044 306.902 46.044H306.286V42.942H307.254C307.943 42.942 308.471 42.8393 308.838 42.634C309.205 42.4287 309.542 42.04 309.85 41.468L304.13 30.6H307.87L311.522 37.64L314.338 30.6ZM338.244 46H334.856L333.338 35.946L328.74 45.978H327.926L323.328 35.946L321.81 46H318.4L320.82 30.6H324.164L328.322 40.038L332.502 30.6H335.846L338.244 46ZM344.594 42.898H350.732V46H341.25V30.6H350.49V33.68H344.594V36.716H349.918V39.73H344.594V42.898ZM363.109 30.6H366.431V46H363.109V39.642H357.323V46H353.979V30.6H357.323V36.54H363.109V30.6ZM381.029 30.6V33.702H376.739V46H373.395V33.702H369.127V30.6L381.029 30.6ZM92.608 74H88.538L83.104 66.476V74H79.76V58.6H83.104V65.706L88.142 58.6H92.036L86.778 65.97L92.608 74ZM101.082 74.33C98.7355 74.33 96.7775 73.5673 95.2081 72.042C93.6535 70.502 92.8761 68.588 92.8761 66.3C92.8761 64.012 93.6535 62.1053 95.2081 60.58C96.7775 59.04 98.7355 58.27 101.082 58.27C102.622 58.27 104.015 58.622 105.262 59.326C106.523 60.0153 107.506 60.976 108.21 62.208C108.914 63.4253 109.266 64.7893 109.266 66.3C109.266 68.6027 108.489 70.5167 106.934 72.042C105.379 73.5673 103.429 74.33 101.082 74.33ZM101.082 71.184C101.991 71.184 102.813 70.9787 103.546 70.568C104.279 70.1427 104.851 69.556 105.262 68.808C105.687 68.06 105.9 67.224 105.9 66.3C105.9 64.9067 105.438 63.748 104.514 62.824C103.605 61.8853 102.461 61.416 101.082 61.416C99.7181 61.416 98.5668 61.8853 97.6281 62.824C96.7041 63.748 96.2421 64.9067 96.2421 66.3C96.2421 67.6933 96.7041 68.8593 97.6281 69.798C98.5668 70.722 99.7181 71.184 101.082 71.184ZM131.055 74H127.667L126.149 63.946L121.551 73.978H120.737L116.139 63.946L114.621 74H111.211L113.631 58.6H116.975L121.133 68.038L125.313 58.6H128.657L131.055 74ZM152.936 74H149.548L148.03 63.946L143.432 73.978H142.618L138.02 63.946L136.502 74H133.092L135.512 58.6H138.856L143.014 68.038L147.194 58.6H150.538L152.936 74ZM159.286 70.898H165.424V74H155.942V58.6H165.182V61.68H159.286V64.716H164.61V67.73H159.286V70.898ZM174.589 58.6C176.144 58.6 177.442 59.106 178.483 60.118C179.524 61.1153 180.045 62.3767 180.045 63.902C180.045 65.4127 179.524 66.674 178.483 67.686C177.442 68.6833 176.144 69.182 174.589 69.182H172.015V74H168.671V58.6H174.589ZM174.457 66.102C175.117 66.102 175.645 65.8967 176.041 65.486C176.452 65.0753 176.657 64.5473 176.657 63.902C176.657 63.2567 176.452 62.7287 176.041 62.318C175.645 61.8927 175.117 61.68 174.457 61.68H172.015V66.102H174.457ZM190.408 58.6H193.73V74H190.408V68.522C189.44 68.874 188.502 69.05 187.592 69.05C186.8 69.05 186.06 68.918 185.37 68.654C184.696 68.3753 184.102 67.994 183.588 67.51C183.09 67.0113 182.694 66.388 182.4 65.64C182.122 64.8773 181.982 64.034 181.982 63.11V58.6H185.326V63.088C185.326 64.056 185.546 64.7893 185.986 65.288C186.441 65.7867 187.086 66.036 187.922 66.036C188.641 66.036 189.47 65.8453 190.408 65.464V58.6ZM201.039 70.898H207.177V74H197.695V58.6H206.935V61.68H201.039V64.716H206.363V67.73H201.039V70.898ZM217.25 74.33C215.769 74.33 214.42 73.9853 213.202 73.296C211.985 72.592 211.032 71.6313 210.342 70.414C209.653 69.182 209.308 67.818 209.308 66.322C209.308 64.034 210.064 62.12 211.574 60.58C213.1 59.04 214.992 58.27 217.25 58.27C219.128 58.27 220.748 58.8347 222.112 59.964C223.476 61.0933 224.342 62.5747 224.708 64.408H221.364C221.159 63.8067 220.858 63.286 220.462 62.846C220.066 62.3913 219.59 62.0467 219.032 61.812C218.49 61.5627 217.896 61.438 217.25 61.438C215.945 61.438 214.852 61.9073 213.972 62.846C213.107 63.77 212.674 64.9287 212.674 66.322C212.674 67.7007 213.107 68.852 213.972 69.776C214.852 70.7 215.945 71.162 217.25 71.162C218.262 71.162 219.135 70.876 219.868 70.304C220.602 69.732 221.108 68.9547 221.386 67.972H224.752C224.4 69.8787 223.535 71.4187 222.156 72.592C220.792 73.7507 219.157 74.33 217.25 74.33ZM240.449 74H236.379L230.945 66.476V74H227.601V58.6H230.945V65.706L235.983 58.6H239.877L234.619 65.97L240.449 74ZM248.923 74.33C246.576 74.33 244.618 73.5673 243.049 72.042C241.494 70.502 240.717 68.588 240.717 66.3C240.717 64.012 241.494 62.1053 243.049 60.58C244.618 59.04 246.576 58.27 248.923 58.27C250.463 58.27 251.856 58.622 253.103 59.326C254.364 60.0153 255.347 60.976 256.051 62.208C256.755 63.4253 257.107 64.7893 257.107 66.3C257.107 68.6027 256.33 70.5167 254.775 72.042C253.22 73.5673 251.27 74.33 248.923 74.33ZM248.923 71.184C249.832 71.184 250.654 70.9787 251.387 70.568C252.12 70.1427 252.692 69.556 253.103 68.808C253.528 68.06 253.741 67.224 253.741 66.3C253.741 64.9067 253.279 63.748 252.355 62.824C251.446 61.8853 250.302 61.416 248.923 61.416C247.559 61.416 246.408 61.8853 245.469 62.824C244.545 63.748 244.083 64.9067 244.083 66.3C244.083 67.6933 244.545 68.8593 245.469 69.798C246.408 70.722 247.559 71.184 248.923 71.184ZM268.926 58.6V61.702H263.514V74H260.17V58.6H268.926ZM278.399 74.33C276.052 74.33 274.094 73.5673 272.525 72.042C270.97 70.502 270.193 68.588 270.193 66.3C270.193 64.012 270.97 62.1053 272.525 60.58C274.094 59.04 276.052 58.27 278.399 58.27C279.939 58.27 281.332 58.622 282.579 59.326C283.84 60.0153 284.823 60.976 285.527 62.208C286.231 63.4253 286.583 64.7893 286.583 66.3C286.583 68.6027 285.805 70.5167 284.251 72.042C282.696 73.5673 280.745 74.33 278.399 74.33ZM278.399 71.184C279.308 71.184 280.129 70.9787 280.863 70.568C281.596 70.1427 282.168 69.556 282.579 68.808C283.004 68.06 283.217 67.224 283.217 66.3C283.217 64.9067 282.755 63.748 281.831 62.824C280.921 61.8853 279.777 61.416 278.399 61.416C277.035 61.416 275.883 61.8853 274.945 62.824C274.021 63.748 273.559 64.9067 273.559 66.3C273.559 67.6933 274.021 68.8593 274.945 69.798C275.883 70.722 277.035 71.184 278.399 71.184ZM295.35 58.6H307.34V74H304.018V61.702H298.694V74H295.35V58.6ZM317.219 58.6C318.774 58.6 320.072 59.106 321.113 60.118C322.155 61.1153 322.675 62.3767 322.675 63.902C322.675 65.4127 322.155 66.674 321.113 67.686C320.072 68.6833 318.774 69.182 317.219 69.182H314.645V74H311.301V58.6H317.219ZM317.087 66.102C317.747 66.102 318.275 65.8967 318.671 65.486C319.082 65.0753 319.287 64.5473 319.287 63.902C319.287 63.2567 319.082 62.7287 318.671 62.318C318.275 61.8927 317.747 61.68 317.087 61.68H314.645V66.102H317.087ZM328.771 70.898H334.909V74H325.427V58.6H334.667V61.68H328.771V64.716H334.095V67.73H328.771V70.898ZM350.762 70.898H352.258V76.728H349.178V74H340.07V76.728H336.99V70.898H338.222C338.442 70.722 338.625 70.5313 338.772 70.326C338.933 70.1207 339.08 69.798 339.212 69.358C339.359 68.9033 339.476 68.4413 339.564 67.972C339.652 67.488 339.747 66.7473 339.85 65.75C339.967 64.7527 340.07 63.7627 340.158 62.78C340.246 61.7827 340.363 60.3893 340.51 58.6H350.762V70.898ZM343.392 61.702C343.216 64.5473 343.003 66.6373 342.754 67.972C342.505 69.292 342.138 70.2673 341.654 70.898H347.44V61.702H343.392ZM358.279 58.6H368.509V74H365.187V61.702H361.183L360.457 68.368C360.251 70.2747 359.701 71.6973 358.807 72.636C357.927 73.5747 356.68 74.044 355.067 74.044H354.209V70.788H355.089C356.277 70.788 356.959 70.0327 357.135 68.522L358.279 58.6ZM379.77 74.33C377.423 74.33 375.465 73.5673 373.896 72.042C372.341 70.502 371.564 68.588 371.564 66.3C371.564 64.012 372.341 62.1053 373.896 60.58C375.465 59.04 377.423 58.27 379.77 58.27C381.31 58.27 382.703 58.622 383.95 59.326C385.211 60.0153 386.194 60.976 386.898 62.208C387.602 63.4253 387.954 64.7893 387.954 66.3C387.954 68.6027 387.176 70.5167 385.622 72.042C384.067 73.5673 382.116 74.33 379.77 74.33ZM379.77 71.184C380.679 71.184 381.5 70.9787 382.234 70.568C382.967 70.1427 383.539 69.556 383.95 68.808C384.375 68.06 384.588 67.224 384.588 66.3C384.588 64.9067 384.126 63.748 383.202 62.824C382.292 61.8853 381.148 61.416 379.77 61.416C378.406 61.416 377.254 61.8853 376.316 62.824C375.392 63.748 374.93 64.9067 374.93 66.3C374.93 67.6933 375.392 68.8593 376.316 69.798C377.254 70.722 378.406 71.184 379.77 71.184ZM410.069 74H406.131L400.829 66.542V74H397.485V66.542L392.161 74H388.223L393.987 65.992L388.861 58.6H392.689L397.485 65.662V58.6H400.829V65.662L405.625 58.6L409.453 58.6L404.327 65.992L410.069 74ZM415.512 70.898H421.65V74H412.168V58.6H421.408V61.68H415.512V64.716H420.836V67.73H415.512V70.898ZM434.027 58.6H437.349V74H434.027V67.642H428.241V74H424.897V58.6H428.241V64.54H434.027V58.6ZM451.683 58.6H454.103V74H450.759V64.738L443.631 74H441.321V58.6H444.665V67.752L451.683 58.6ZM462.82 58.6H469.156V74H465.812V68.654H463.678L460.752 74H457.012L460.356 68.148C459.887 67.9427 459.461 67.686 459.08 67.378C458.713 67.07 458.405 66.7327 458.156 66.366C457.907 65.9847 457.709 65.5667 457.562 65.112C457.43 64.6573 457.364 64.188 457.364 63.704C457.364 62.252 457.885 61.042 458.926 60.074C459.967 59.0913 461.265 58.6 462.82 58.6ZM463.018 65.728H465.812V61.702H463.018C462.358 61.702 461.823 61.8853 461.412 62.252C461.001 62.6187 460.796 63.1027 460.796 63.704C460.796 64.1 460.891 64.452 461.082 64.76C461.273 65.068 461.537 65.31 461.874 65.486C462.211 65.6473 462.593 65.728 463.018 65.728ZM490.293 58.6H491.701V74H489.765V62.274L480.987 74H479.667V58.6H481.581V70.238L490.293 58.6ZM86.822 102.33C85.3407 102.33 83.9913 101.985 82.774 101.296C81.5567 100.592 80.6033 99.6313 79.914 98.414C79.2247 97.182 78.88 95.818 78.88 94.322C78.88 92.034 79.6353 90.12 81.146 88.58C82.6713 87.04 84.5633 86.27 86.822 86.27C88.6993 86.27 90.32 86.8347 91.684 87.964C93.048 89.0933 93.9133 90.5747 94.28 92.408H90.936C90.7307 91.8067 90.43 91.286 90.034 90.846C89.638 90.3913 89.1613 90.0467 88.604 89.812C88.0613 89.5627 87.4673 89.438 86.822 89.438C85.5167 89.438 84.424 89.9073 83.544 90.846C82.6787 91.77 82.246 92.9287 82.246 94.322C82.246 95.7007 82.6787 96.852 83.544 97.776C84.424 98.7 85.5167 99.162 86.822 99.162C87.834 99.162 88.7067 98.876 89.44 98.304C90.1733 97.732 90.6793 96.9547 90.958 95.972H94.324C93.972 97.8787 93.1067 99.4187 91.728 100.592C90.364 101.751 88.7287 102.33 86.822 102.33ZM103.091 86.6C104.645 86.6 105.943 87.106 106.985 88.118C108.026 89.1153 108.547 90.3767 108.547 91.902C108.547 93.4127 108.026 94.674 106.985 95.686C105.943 96.6833 104.645 97.182 103.091 97.182H100.517V102H97.1727V86.6H103.091ZM102.959 94.102C103.619 94.102 104.147 93.8967 104.543 93.486C104.953 93.0753 105.159 92.5473 105.159 91.902C105.159 91.2567 104.953 90.7287 104.543 90.318C104.147 89.8927 103.619 89.68 102.959 89.68H100.517V94.102H102.959ZM120.325 102L119.247 99.074H113.109L112.053 102H108.533L114.561 86.6H117.707L123.933 102H120.325ZM116.167 90.67L114.165 96.17H118.191L116.167 90.67ZM135.588 93.882C136.263 94.234 136.783 94.7327 137.15 95.378C137.531 96.0087 137.722 96.7347 137.722 97.556C137.722 98.788 137.245 99.8367 136.292 100.702C135.353 101.567 134.217 102 132.882 102H126.326V86.6H132.706C134.026 86.6 135.126 86.9813 136.006 87.744C136.886 88.492 137.326 89.4307 137.326 90.56C137.326 91.22 137.172 91.8433 136.864 92.43C136.556 93.0167 136.131 93.5007 135.588 93.882ZM134.092 91.088C134.092 90.8387 134.048 90.6187 133.96 90.428C133.887 90.2227 133.777 90.0467 133.63 89.9C133.483 89.7533 133.3 89.6433 133.08 89.57C132.875 89.482 132.64 89.438 132.376 89.438H129.604V92.716H132.376C132.904 92.716 133.322 92.5693 133.63 92.276C133.938 91.968 134.092 91.572 134.092 91.088ZM132.552 98.942C133.095 98.942 133.535 98.7807 133.872 98.458C134.209 98.1353 134.378 97.7173 134.378 97.204C134.378 96.7053 134.209 96.2947 133.872 95.972C133.535 95.6493 133.095 95.488 132.552 95.488H129.604V98.942H132.552ZM150.011 86.6H153.333V102H150.011V95.642H144.225V102H140.881V86.6H144.225V92.54H150.011V86.6ZM167.668 86.6H170.088V102H166.744V92.738L159.616 102H157.306V86.6H160.65V95.752L167.668 86.6ZM184.678 86.6V89.702H180.388V102H177.044V89.702H172.776V86.6H184.678ZM190.684 98.898H196.822V102H187.34V86.6H196.58V89.68H190.684V92.716H196.008V95.73H190.684V98.898ZM202.951 86.6L213.181 86.6V102L209.859 102V89.702H205.855L205.129 96.368C204.924 98.2747 204.374 99.6973 203.479 100.636C202.599 101.575 201.352 102.044 199.739 102.044H198.881V98.788H199.761C200.949 98.788 201.631 98.0327 201.807 96.522L202.951 86.6ZM223.122 91.264C224.193 91.264 225.146 91.4913 225.982 91.946C226.833 92.4007 227.493 93.0387 227.962 93.86C228.446 94.6667 228.688 95.5907 228.688 96.632C228.688 98.2013 228.167 99.492 227.126 100.504C226.085 101.501 224.75 102 223.122 102H217.138V86.6H220.482V91.264H223.122ZM222.88 98.876C223.584 98.876 224.156 98.6707 224.596 98.26C225.051 97.8347 225.278 97.292 225.278 96.632C225.278 96.192 225.175 95.8033 224.97 95.466C224.779 95.1287 224.501 94.8647 224.134 94.674C223.767 94.4833 223.349 94.388 222.88 94.388H220.482V98.876H222.88ZM240.587 86.6H243.909V102H240.587V95.642H234.801V102H231.457V86.6H234.801V92.54H240.587V86.6ZM255.185 102.33C252.839 102.33 250.881 101.567 249.311 100.042C247.757 98.502 246.979 96.588 246.979 94.3C246.979 92.012 247.757 90.1053 249.311 88.58C250.881 87.04 252.839 86.27 255.185 86.27C256.725 86.27 258.119 86.622 259.365 87.326C260.627 88.0153 261.609 88.976 262.313 90.208C263.017 91.4253 263.369 92.7893 263.369 94.3C263.369 96.6027 262.592 98.5167 261.037 100.042C259.483 101.567 257.532 102.33 255.185 102.33ZM255.185 99.184C256.095 99.184 256.916 98.9787 257.649 98.568C258.383 98.1427 258.955 97.556 259.365 96.808C259.791 96.06 260.003 95.224 260.003 94.3C260.003 92.9067 259.541 91.748 258.617 90.824C257.708 89.8853 256.564 89.416 255.185 89.416C253.821 89.416 252.67 89.8853 251.731 90.824C250.807 91.748 250.345 92.9067 250.345 94.3C250.345 95.6933 250.807 96.8593 251.731 97.798C252.67 98.722 253.821 99.184 255.185 99.184ZM275.189 86.6V89.702H269.777V102H266.433V86.6H275.189ZM284.661 102.33C282.314 102.33 280.356 101.567 278.787 100.042C277.232 98.502 276.455 96.588 276.455 94.3C276.455 92.012 277.232 90.1053 278.787 88.58C280.356 87.04 282.314 86.27 284.661 86.27C286.201 86.27 287.594 86.622 288.841 87.326C290.102 88.0153 291.085 88.976 291.789 90.208C292.493 91.4253 292.845 92.7893 292.845 94.3C292.845 96.6027 292.068 98.5167 290.513 100.042C288.958 101.567 287.008 102.33 284.661 102.33ZM284.661 99.184C285.57 99.184 286.392 98.9787 287.125 98.568C287.858 98.1427 288.43 97.556 288.841 96.808C289.266 96.06 289.479 95.224 289.479 94.3C289.479 92.9067 289.017 91.748 288.093 90.824C287.184 89.8853 286.04 89.416 284.661 89.416C283.297 89.416 282.146 89.8853 281.207 90.824C280.283 91.748 279.821 92.9067 279.821 94.3C279.821 95.6933 280.283 96.8593 281.207 97.798C282.146 98.722 283.297 99.184 284.661 99.184ZM311.842 102L310.764 99.074H304.626L303.57 102H300.05L306.078 86.6H309.224L315.45 102H311.842ZM307.684 90.67L305.682 96.17H309.708L307.684 90.67ZM326.973 86.6H330.295V102H326.973V95.642H321.187V102H317.843V86.6H321.187V92.54H326.973V86.6ZM344.497 102L343.419 99.074H337.281L336.225 102H332.705L338.733 86.6H341.879L348.105 102H344.497ZM340.339 90.67L338.337 96.17H342.363L340.339 90.67ZM353.38 86.6H363.61V102H360.288V89.702H356.284L355.558 96.368C355.353 98.2747 354.803 99.6973 353.908 100.636C353.028 101.575 351.782 102.044 350.168 102.044H349.31V98.788H350.19C351.378 98.788 352.06 98.0327 352.236 96.522L353.38 86.6ZM377.929 86.6H380.349V102H377.005V92.738L369.877 102H367.567V86.6H370.911V95.752L377.929 86.6ZM392.52 93.992C393.151 94.388 393.635 94.894 393.972 95.51C394.324 96.126 394.5 96.7933 394.5 97.512C394.5 98.524 394.229 99.404 393.686 100.152C393.143 100.885 392.454 101.435 391.618 101.802C390.782 102.154 389.865 102.33 388.868 102.33C387.9 102.33 387.005 102.147 386.184 101.78C385.363 101.413 384.681 100.841 384.138 100.064C383.61 99.2867 383.339 98.3773 383.324 97.336H386.58C386.595 97.996 386.822 98.5167 387.262 98.898C387.717 99.2647 388.252 99.448 388.868 99.448C389.528 99.448 390.085 99.2647 390.54 98.898C391.009 98.5313 391.244 98.04 391.244 97.424C391.244 96.8373 391.024 96.368 390.584 96.016C390.159 95.664 389.594 95.488 388.89 95.488H387.482V92.672H388.89C389.491 92.672 389.983 92.5107 390.364 92.188C390.745 91.8507 390.936 91.418 390.936 90.89C390.936 90.318 390.738 89.8707 390.342 89.548C389.946 89.2107 389.455 89.042 388.868 89.042C388.311 89.042 387.819 89.2107 387.394 89.548C386.969 89.8853 386.749 90.34 386.734 90.912H383.566C383.566 89.944 383.823 89.1007 384.336 88.382C384.864 87.6487 385.517 87.1133 386.294 86.776C387.086 86.4387 387.944 86.27 388.868 86.27C389.792 86.27 390.643 86.4387 391.42 86.776C392.212 87.1133 392.857 87.6413 393.356 88.36C393.869 89.064 394.126 89.8927 394.126 90.846C394.126 92.1807 393.591 93.2293 392.52 93.992ZM407.402 102L406.324 99.074H400.186L399.13 102H395.61L401.638 86.6H404.784L411.01 102H407.402ZM403.244 90.67L401.242 96.17H405.268L403.244 90.67Z" fill="#099FE5"/>
</svg>
