<svg width="460" height="93" viewBox="0 0 460 93" fill="none" xmlns="http://www.w3.org/2000/svg">
<path d="M1.68435 88.5562C0.966046 87.4832 0.449882 86.2636 0.19034 84.9516L0.680834 84.8546C0.562251 84.2552 0.5 83.6351 0.5 83L0.5 80.7188H0L0 76.1562H0.5L0.5 71.5938H0L0 67.0312H0.5L0.5 62.4688H0L0 57.9062H0.5L0.5 53.3438H0L0 48.7812H0.5L0.5 46.5L0.5 44.2188H0L0 39.6562H0.5L0.5 35.0938H0L0 30.5312H0.5L0.5 25.9688H0L0 21.4062H0.5L0.5 16.8438H0L0 12.2812H0.5L0.5 10C0.5 9.3649 0.562251 8.74483 0.680834 8.14541L0.19034 8.04838C0.449883 6.73643 0.966046 5.51676 1.68435 4.44384L2.09983 4.722C2.79355 3.6858 3.6858 2.79355 4.722 2.09983L4.44384 1.68435C5.51676 0.966046 6.73643 0.449883 8.04838 0.19034L8.14541 0.680834C8.74483 0.562251 9.3649 0.5 10 0.5L12.5 0.5V0L17.5 0V0.5L22.5 0.5V0L27.5 0V0.5L32.5 0.5V0L37.5 0V0.5L42.5 0.5V0L47.5 0V0.5L52.5 0.5V0L57.5 0V0.5L62.5 0.5V0L67.5 0V0.5L72.5 0.5V0L77.5 0V0.5L82.5 0.5V0L87.5 0V0.5L92.5 0.5V0L97.5 0V0.5L102.5 0.5V0L107.5 0V0.5L112.5 0.5V0L117.5 0V0.5L122.5 0.5V0L127.5 0V0.5L132.5 0.5V0L137.5 0V0.5L142.5 0.5V0L147.5 0V0.5L152.5 0.5V0L157.5 0V0.5L162.5 0.5V0L167.5 0V0.5L172.5 0.5V0L177.5 0V0.5L182.5 0.5V0L187.5 0V0.5L192.5 0.5V0L197.5 0V0.5L202.5 0.5V0L207.5 0V0.5L212.5 0.5V0L217.5 0V0.5L222.5 0.5V0L227.5 0V0.5L232.5 0.5V0L237.5 0V0.5L242.5 0.5V0L247.5 0V0.5L252.5 0.5V0L257.5 0V0.5L262.5 0.5V0L267.5 0V0.5L272.5 0.5V0L277.5 0V0.5L282.5 0.5V0L287.5 0V0.5L292.5 0.5V0L297.5 0V0.5L302.5 0.5V0L307.5 0V0.5L312.5 0.5V0L317.5 0V0.5L322.5 0.5V0L327.5 0V0.5L332.5 0.5V0L337.5 0V0.5L342.5 0.5V0L347.5 0V0.5L352.5 0.5V0L357.5 0V0.5L362.5 0.5V0L367.5 0V0.5L372.5 0.5V0L377.5 0V0.5L382.5 0.5V0L387.5 0V0.5L392.5 0.5V0L397.5 0V0.5L402.5 0.5V0L407.5 0V0.5L412.5 0.5V0L417.5 0V0.5L422.5 0.5V0L427.5 0V0.5L432.5 0.5V0L437.5 0V0.5L442.5 0.5V0L447.5 0V0.5L450 0.5C450.635 0.5 451.255 0.562251 451.855 0.680834L451.952 0.190339C453.264 0.44988 454.483 0.966043 455.556 1.68434L455.278 2.09983C456.314 2.79355 457.206 3.6858 457.9 4.722L458.316 4.44384C459.034 5.51676 459.55 6.73643 459.81 8.04838L459.319 8.14541C459.438 8.74483 459.5 9.3649 459.5 10V12.2813H460V16.8438H459.5V21.4063H460V25.9688H459.5V30.5313H460V35.0938H459.5V39.6563H460V44.2188H459.5V46.5V48.7813H460V53.3438H459.5V57.9063H460V62.4688H459.5V67.0313H460V71.5938H459.5V76.1563H460V80.7188H459.5V83C459.5 83.6351 459.438 84.2552 459.319 84.8546L459.81 84.9516C459.55 86.2636 459.034 87.4832 458.316 88.5562L457.9 88.278C457.206 89.3142 456.314 90.2065 455.278 90.9002L455.556 91.3157C454.483 92.034 453.264 92.5501 451.952 92.8097L451.855 92.3192C451.255 92.4378 450.635 92.5 450 92.5H447.5V93H442.5V92.5H437.5V93H432.5V92.5H427.5V93H422.5V92.5H417.5V93H412.5V92.5H407.5V93H402.5V92.5H397.5V93H392.5V92.5H387.5V93H382.5V92.5H377.5V93H372.5V92.5H367.5V93H362.5V92.5H357.5V93H352.5V92.5H347.5V93H342.5V92.5H337.5V93H332.5V92.5H327.5V93H322.5V92.5H317.5V93H312.5V92.5H307.5V93H302.5V92.5H297.5V93H292.5V92.5H287.5V93H282.5V92.5H277.5V93H272.5V92.5H267.5V93H262.5V92.5H257.5V93L252.5 93V92.5H247.5V93H242.5V92.5H237.5V93H232.5V92.5H227.5V93H222.5V92.5H217.5V93H212.5V92.5H207.5V93H202.5V92.5H197.5V93H192.5V92.5H187.5V93H182.5V92.5H177.5V93H172.5V92.5H167.5V93H162.5V92.5H157.5V93H152.5V92.5H147.5V93H142.5V92.5H137.5V93H132.5V92.5H127.5V93H122.5V92.5H117.5V93H112.5V92.5H107.5V93H102.5V92.5H97.5V93H92.5V92.5H87.5V93H82.5V92.5H77.5V93H72.5V92.5H67.5V93H62.5V92.5H57.5V93H52.5V92.5H47.5V93H42.5V92.5H37.5V93H32.5V92.5H27.5V93H22.5V92.5H17.5V93H12.5V92.5H10C9.3649 92.5 8.74483 92.4378 8.14541 92.3192L8.04838 92.8097C6.73643 92.5501 5.51676 92.034 4.44384 91.3157L4.722 90.9002C3.6858 90.2065 2.79355 89.3142 2.09983 88.278L1.68435 88.5562Z" stroke="#099FE5" stroke-dasharray="5 5"/>
<path d="M71.1909 28.1L79.8609 28.1V40H78.3479V29.494L72.6699 29.494V40H71.1909V28.1ZM93.3278 38.453C92.1491 39.6203 90.6588 40.204 88.8568 40.204C87.0661 40.204 85.5814 39.6203 84.4028 38.453C83.2241 37.2857 82.6348 35.8237 82.6348 34.067C82.6348 32.299 83.2241 30.8313 84.4028 29.664C85.5814 28.4853 87.0661 27.896 88.8568 27.896C90.6588 27.896 92.1491 28.4797 93.3278 29.647C94.5064 30.8143 95.0958 32.282 95.0958 34.05C95.0958 35.818 94.5064 37.2857 93.3278 38.453ZM85.4908 37.399C86.3861 38.2943 87.5081 38.742 88.8568 38.742C90.2168 38.742 91.3388 38.3 92.2228 37.416C93.1181 36.5207 93.5658 35.3987 93.5658 34.05C93.5658 32.7013 93.1181 31.585 92.2228 30.701C91.3388 29.8057 90.2168 29.358 88.8568 29.358C87.5081 29.358 86.3861 29.8057 85.4908 30.701C84.6068 31.5963 84.1648 32.7127 84.1648 34.05C84.1648 35.3873 84.6068 36.5037 85.4908 37.399ZM99.3421 28.1H106.686V40H105.207V29.494H100.702L100.141 36.243C99.9257 38.759 98.7301 40.017 96.5541 40.017H96.0611V38.538H96.5371C97.7837 38.538 98.4751 37.79 98.6111 36.294L99.3421 28.1ZM117.197 28.1H118.795L115.123 36.328C114.488 37.7787 113.865 38.759 113.253 39.269C112.641 39.779 111.797 40.034 110.72 40.034H110.159V38.64H110.839C111.485 38.64 111.978 38.5097 112.318 38.249C112.658 37.977 113.026 37.433 113.423 36.617L108.884 28.1H110.601L114.205 34.883L117.197 28.1ZM126.998 28.1H128.494V40H126.998V35.274C126.046 35.648 125.133 35.835 124.261 35.835C123.003 35.835 121.988 35.461 121.218 34.713C120.458 33.9537 120.079 32.911 120.079 31.585V28.1H121.575V31.483C121.575 32.4123 121.818 33.1263 122.306 33.625C122.793 34.1237 123.49 34.373 124.397 34.373C125.145 34.373 126.012 34.1633 126.998 33.744V28.1ZM140.303 28.1H141.391V40H139.895V30.939L133.112 40H132.092V28.1H133.571V37.093L140.303 28.1ZM159.003 38.606H160.244V42.431H158.867V40H149.908V42.431H148.531V38.606H149.449C149.653 38.4813 149.823 38.334 149.959 38.164C150.095 37.994 150.225 37.7333 150.35 37.382C150.486 37.0193 150.594 36.6227 150.673 36.192C150.764 35.7613 150.86 35.138 150.962 34.322C151.064 33.4947 151.16 32.622 151.251 31.704C151.342 30.786 151.449 29.5847 151.574 28.1H159.003V38.606ZM152.951 29.494C152.702 32.6787 152.458 34.883 152.22 36.107C151.982 37.3197 151.619 38.1527 151.132 38.606H157.507V29.494H152.951ZM172.673 38.453C171.494 39.6203 170.004 40.204 168.202 40.204C166.411 40.204 164.926 39.6203 163.748 38.453C162.569 37.2857 161.98 35.8237 161.98 34.067C161.98 32.299 162.569 30.8313 163.748 29.664C164.926 28.4853 166.411 27.896 168.202 27.896C170.004 27.896 171.494 28.4797 172.673 29.647C173.851 30.8143 174.441 32.282 174.441 34.05C174.441 35.818 173.851 37.2857 172.673 38.453ZM164.836 37.399C165.731 38.2943 166.853 38.742 168.202 38.742C169.562 38.742 170.684 38.3 171.568 37.416C172.463 36.5207 172.911 35.3987 172.911 34.05C172.911 32.7013 172.463 31.585 171.568 30.701C170.684 29.8057 169.562 29.358 168.202 29.358C166.853 29.358 165.731 29.8057 164.836 30.701C163.952 31.5963 163.51 32.7127 163.51 34.05C163.51 35.3873 163.952 36.5037 164.836 37.399ZM182.517 40.187C180.749 40.187 179.287 39.609 178.131 38.453C176.987 37.297 176.414 35.8293 176.414 34.05C176.414 32.2707 176.987 30.803 178.131 29.647C179.287 28.491 180.749 27.913 182.517 27.913C183.424 27.913 184.263 28.0887 185.033 28.44C185.815 28.78 186.473 29.2673 187.005 29.902C187.549 30.5367 187.929 31.279 188.144 32.129H186.631C186.314 31.2677 185.793 30.5933 185.067 30.106C184.342 29.6187 183.492 29.375 182.517 29.375C181.18 29.375 180.081 29.817 179.219 30.701C178.369 31.5737 177.944 32.6957 177.944 34.067C177.944 35.427 178.369 36.5433 179.219 37.416C180.081 38.2887 181.18 38.725 182.517 38.725C183.515 38.725 184.382 38.47 185.118 37.96C185.855 37.4387 186.376 36.719 186.682 35.801H188.212C187.872 37.1497 187.187 38.2207 186.155 39.014C185.135 39.796 183.923 40.187 182.517 40.187ZM198.049 28.1V29.494H194.428V40H192.932V29.494H189.311V28.1H198.049ZM207.274 28.1H208.872L205.2 36.328C204.566 37.7787 203.942 38.759 203.33 39.269C202.718 39.779 201.874 40.034 200.797 40.034H200.236V38.64H200.916C201.562 38.64 202.055 38.5097 202.395 38.249C202.735 37.977 203.104 37.433 203.5 36.617L198.961 28.1H200.678L204.282 34.883L207.274 28.1ZM210.972 28.1H219.642V40H218.129V29.494H212.451V40L210.972 40V28.1ZM235.28 40L231.098 34.543H229.5V40H228.021V28.1H229.5V33.149H231.081L234.889 28.1H236.793L232.441 33.829L237.184 40H235.28ZM251.344 28.1H253.214V40H250.63V32.843L245.122 40H243.337V28.1H245.921V35.172L251.344 28.1ZM263.333 28.1H265.9V40H263.333V35.087H258.862V40H256.278V28.1H258.862V32.69H263.333V28.1ZM274.427 40.255C273.282 40.255 272.239 39.9887 271.299 39.456C270.358 38.912 269.621 38.1697 269.089 37.229C268.556 36.277 268.29 35.223 268.29 34.067C268.29 32.299 268.873 30.82 270.041 29.63C271.219 28.44 272.681 27.845 274.427 27.845C275.877 27.845 277.13 28.2813 278.184 29.154C279.238 30.0267 279.906 31.1713 280.19 32.588H277.606C277.447 32.1233 277.215 31.721 276.909 31.381C276.603 31.0297 276.234 30.7633 275.804 30.582C275.384 30.3893 274.925 30.293 274.427 30.293C273.418 30.293 272.574 30.6557 271.894 31.381C271.225 32.095 270.891 32.9903 270.891 34.067C270.891 35.1323 271.225 36.022 271.894 36.736C272.574 37.45 273.418 37.807 274.427 37.807C275.209 37.807 275.883 37.586 276.45 37.144C277.016 36.702 277.407 36.1013 277.623 35.342H280.224C279.952 36.8153 279.283 38.0053 278.218 38.912C277.164 39.8073 275.9 40.255 274.427 40.255ZM290.437 28.1V30.497H287.122V40H284.538V30.497H281.24V28.1H290.437ZM297.066 28.1C298.268 28.1 299.271 28.491 300.075 29.273C300.88 30.0437 301.282 31.0183 301.282 32.197C301.282 33.3643 300.88 34.339 300.075 35.121C299.271 35.8917 298.268 36.277 297.066 36.277H295.077V40H292.493V28.1H297.066ZM296.964 33.897C297.474 33.897 297.882 33.7383 298.188 33.421C298.506 33.1037 298.664 32.6957 298.664 32.197C298.664 31.6983 298.506 31.2903 298.188 30.973C297.882 30.6443 297.474 30.48 296.964 30.48H295.077V33.897H296.964ZM309.905 28.1H312.591L309.225 36.124C308.625 37.5973 307.95 38.6173 307.202 39.184C306.466 39.7507 305.451 40.034 304.159 40.034H303.683V37.637H304.431C304.964 37.637 305.372 37.5577 305.655 37.399C305.939 37.2403 306.199 36.94 306.437 36.498L302.017 28.1H304.907L307.729 33.54L309.905 28.1ZM328.378 40H325.76L324.587 32.231L321.034 39.983H320.405L316.852 32.231L315.679 40H313.044L314.914 28.1H317.498L320.711 35.393L323.941 28.1H326.525L328.378 40ZM333.285 37.603H338.028V40H330.701V28.1H337.841V30.48H333.285V32.826H337.399V35.155H333.285V37.603ZM347.592 28.1H350.159V40H347.592V35.087H343.121V40H340.537V28.1H343.121V32.69H347.592V28.1ZM361.439 28.1V30.497H358.124V40H355.54V30.497H352.242V28.1H361.439ZM370.256 40L369.423 37.739H364.68L363.864 40H361.144L365.802 28.1H368.233L373.044 40H370.256ZM367.043 31.245L365.496 35.495H368.607L367.043 31.245ZM389.479 40H386.861L385.688 32.231L382.135 39.983H381.506L377.953 32.231L376.78 40H374.145L376.015 28.1H378.599L381.812 35.393L385.042 28.1H387.626L389.479 40ZM94.9628 50.1V52.497H91.6478V62H89.0638V52.497H85.7658V50.1H94.9628ZM102.282 62.255C100.468 62.255 98.9553 61.6657 97.7427 60.487C96.5413 59.297 95.9407 57.818 95.9407 56.05C95.9407 54.282 96.5413 52.8087 97.7427 51.63C98.9553 50.44 100.468 49.845 102.282 49.845C103.472 49.845 104.548 50.117 105.512 50.661C106.486 51.1937 107.246 51.936 107.79 52.888C108.334 53.8287 108.606 54.8827 108.606 56.05C108.606 57.8293 108.005 59.3083 106.804 60.487C105.602 61.6657 104.095 62.255 102.282 62.255ZM102.282 59.824C102.984 59.824 103.619 59.6653 104.186 59.348C104.752 59.0193 105.194 58.566 105.512 57.988C105.84 57.41 106.005 56.764 106.005 56.05C106.005 54.9733 105.648 54.078 104.934 53.364C104.231 52.6387 103.347 52.276 102.282 52.276C101.228 52.276 100.338 52.6387 99.6127 53.364C98.8987 54.078 98.5417 54.9733 98.5417 56.05C98.5417 57.1267 98.8987 58.0277 99.6127 58.753C100.338 59.467 101.228 59.824 102.282 59.824ZM115.546 50.1C116.747 50.1 117.75 50.491 118.555 51.273C119.359 52.0437 119.762 53.0183 119.762 54.197C119.762 55.3643 119.359 56.339 118.555 57.121C117.75 57.8917 116.747 58.277 115.546 58.277H113.557V62H110.973V50.1H115.546ZM115.444 55.897C115.954 55.897 116.362 55.7383 116.668 55.421C116.985 55.1037 117.144 54.6957 117.144 54.197C117.144 53.6983 116.985 53.2903 116.668 52.973C116.362 52.6443 115.954 52.48 115.444 52.48H113.557V55.897H115.444ZM128.654 50.1V52.497H124.472V62H121.888V50.1H128.654ZM135.974 62.255C134.16 62.255 132.647 61.6657 131.435 60.487C130.233 59.297 129.633 57.818 129.633 56.05C129.633 54.282 130.233 52.8087 131.435 51.63C132.647 50.44 134.16 49.845 135.974 49.845C137.164 49.845 138.24 50.117 139.204 50.661C140.178 51.1937 140.938 51.936 141.482 52.888C142.026 53.8287 142.298 54.8827 142.298 56.05C142.298 57.8293 141.697 59.3083 140.496 60.487C139.294 61.6657 137.787 62.255 135.974 62.255ZM135.974 59.824C136.676 59.824 137.311 59.6653 137.878 59.348C138.444 59.0193 138.886 58.566 139.204 57.988C139.532 57.41 139.697 56.764 139.697 56.05C139.697 54.9733 139.34 54.078 138.626 53.364C137.923 52.6387 137.039 52.276 135.974 52.276C134.92 52.276 134.03 52.6387 133.305 53.364C132.591 54.078 132.234 54.9733 132.234 56.05C132.234 57.1267 132.591 58.0277 133.305 58.753C134.03 59.467 134.92 59.824 135.974 59.824ZM151.822 55.727C152.343 55.999 152.745 56.3843 153.029 56.883C153.323 57.3703 153.471 57.9313 153.471 58.566C153.471 59.518 153.102 60.3283 152.366 60.997C151.64 61.6657 150.762 62 149.731 62H144.665V50.1H149.595C150.615 50.1 151.465 50.3947 152.145 50.984C152.825 51.562 153.165 52.2873 153.165 53.16C153.165 53.67 153.046 54.1517 152.808 54.605C152.57 55.0583 152.241 55.4323 151.822 55.727ZM150.666 53.568C150.666 53.3753 150.632 53.2053 150.564 53.058C150.507 52.8993 150.422 52.7633 150.309 52.65C150.195 52.5367 150.054 52.4517 149.884 52.395C149.725 52.327 149.544 52.293 149.34 52.293H147.198V54.826H149.34C149.748 54.826 150.071 54.7127 150.309 54.486C150.547 54.248 150.666 53.942 150.666 53.568ZM149.476 59.637C149.895 59.637 150.235 59.5123 150.496 59.263C150.756 59.0137 150.887 58.6907 150.887 58.294C150.887 57.9087 150.756 57.5913 150.496 57.342C150.235 57.0927 149.895 56.968 149.476 56.968H147.198V59.637H149.476ZM161.556 62.255C159.743 62.255 158.23 61.6657 157.017 60.487C155.816 59.297 155.215 57.818 155.215 56.05C155.215 54.282 155.816 52.8087 157.017 51.63C158.23 50.44 159.743 49.845 161.556 49.845C162.746 49.845 163.823 50.117 164.786 50.661C165.761 51.1937 166.52 51.936 167.064 52.888C167.608 53.8287 167.88 54.8827 167.88 56.05C167.88 57.8293 167.279 59.3083 166.078 60.487C164.877 61.6657 163.369 62.255 161.556 62.255ZM161.556 59.824C162.259 59.824 162.893 59.6653 163.46 59.348C164.027 59.0193 164.469 58.566 164.786 57.988C165.115 57.41 165.279 56.764 165.279 56.05C165.279 54.9733 164.922 54.078 164.208 53.364C163.505 52.6387 162.621 52.276 161.556 52.276C160.502 52.276 159.612 52.6387 158.887 53.364C158.173 54.078 157.816 54.9733 157.816 56.05C157.816 57.1267 158.173 58.0277 158.887 58.753C159.612 59.467 160.502 59.824 161.556 59.824ZM177.013 50.1V52.497H172.831V62H170.247V50.1H177.013ZM184.333 62.255C182.519 62.255 181.006 61.6657 179.794 60.487C178.592 59.297 177.992 57.818 177.992 56.05C177.992 54.282 178.592 52.8087 179.794 51.63C181.006 50.44 182.519 49.845 184.333 49.845C185.523 49.845 186.599 50.117 187.563 50.661C188.537 51.1937 189.297 51.936 189.841 52.888C190.385 53.8287 190.657 54.8827 190.657 56.05C190.657 57.8293 190.056 59.3083 188.855 60.487C187.653 61.6657 186.146 62.255 184.333 62.255ZM184.333 59.824C185.035 59.824 185.67 59.6653 186.237 59.348C186.803 59.0193 187.245 58.566 187.563 57.988C187.891 57.41 188.056 56.764 188.056 56.05C188.056 54.9733 187.699 54.078 186.985 53.364C186.282 52.6387 185.398 52.276 184.333 52.276C183.279 52.276 182.389 52.6387 181.664 53.364C180.95 54.078 180.593 54.9733 180.593 56.05C180.593 57.1267 180.95 58.0277 181.664 58.753C182.389 59.467 183.279 59.824 184.333 59.824ZM210.606 56.016C210.606 56.526 210.549 57.0247 210.436 57.512C210.334 57.9993 210.181 58.4697 209.977 58.923C209.773 59.365 209.507 59.7787 209.178 60.164C208.861 60.538 208.498 60.8723 208.09 61.167C207.682 61.4617 207.206 61.7053 206.662 61.898C206.129 62.0793 205.557 62.1927 204.945 62.238V64.04H202.429V62.238C201.908 62.1927 201.409 62.102 200.933 61.966C200.468 61.8187 200.049 61.6317 199.675 61.405C199.301 61.1783 198.955 60.9177 198.638 60.623C198.321 60.3283 198.043 60.0053 197.805 59.654C197.578 59.3027 197.386 58.9343 197.227 58.549C197.068 58.1523 196.949 57.75 196.87 57.342C196.791 56.9227 196.751 56.4977 196.751 56.067C196.751 55.3077 196.876 54.5767 197.125 53.874C197.374 53.1713 197.726 52.531 198.179 51.953C198.644 51.375 199.244 50.899 199.981 50.525C200.718 50.151 201.534 49.93 202.429 49.862V48.315H204.945V49.862C205.852 49.93 206.673 50.151 207.41 50.525C208.147 50.8877 208.742 51.358 209.195 51.936C209.648 52.5027 209.994 53.1373 210.232 53.84C210.481 54.5313 210.606 55.2567 210.606 56.016ZM204.928 59.841C205.891 59.705 206.645 59.2743 207.189 58.549C207.744 57.8237 208.022 56.9907 208.022 56.05C208.022 55.1207 207.744 54.2933 207.189 53.568C206.645 52.8427 205.891 52.4177 204.928 52.293V59.841ZM199.369 56.05C199.369 56.9907 199.641 57.8237 200.185 58.549C200.74 59.2743 201.5 59.705 202.463 59.841V52.293C201.5 52.4177 200.74 52.8427 200.185 53.568C199.641 54.2933 199.369 55.1207 199.369 56.05ZM221.018 50.1H222.888V62H220.304V54.843L214.796 62H213.011V50.1H215.595V57.172L221.018 50.1ZM233.007 50.1H235.574V62H233.007V57.087H228.536V62H225.952V50.1H228.536V54.69H233.007V50.1ZM246.548 62L245.715 59.739H240.972L240.156 62H237.436L242.094 50.1H244.525L249.336 62H246.548ZM243.335 53.245L241.788 57.495H244.899L243.335 53.245ZM258.241 50.1H260.808V62H258.241V57.087H253.77V62H251.186V50.1H253.77V54.69H258.241V50.1ZM269.334 62.255C268.189 62.255 267.147 61.9887 266.206 61.456C265.265 60.912 264.529 60.1697 263.996 59.229C263.463 58.277 263.197 57.223 263.197 56.067C263.197 54.299 263.781 52.82 264.948 51.63C266.127 50.44 267.589 49.845 269.334 49.845C270.785 49.845 272.037 50.2813 273.091 51.154C274.145 52.0267 274.814 53.1713 275.097 54.588H272.513C272.354 54.1233 272.122 53.721 271.816 53.381C271.51 53.0297 271.142 52.7633 270.711 52.582C270.292 52.3893 269.833 52.293 269.334 52.293C268.325 52.293 267.481 52.6557 266.801 53.381C266.132 54.095 265.798 54.9903 265.798 56.067C265.798 57.1323 266.132 58.022 266.801 58.736C267.481 59.45 268.325 59.807 269.334 59.807C270.116 59.807 270.79 59.586 271.357 59.144C271.924 58.702 272.315 58.1013 272.53 57.342H275.131C274.859 58.8153 274.19 60.0053 273.125 60.912C272.071 61.8073 270.807 62.255 269.334 62.255ZM285.339 50.1H287.209V62H284.625V54.843L279.117 62H277.332V50.1H279.916V57.172L285.339 50.1ZM294.846 50.1C296.047 50.1 297.05 50.491 297.855 51.273C298.66 52.0437 299.062 53.0183 299.062 54.197C299.062 55.3643 298.66 56.339 297.855 57.121C297.05 57.8917 296.047 58.277 294.846 58.277H292.857V62H290.273V50.1H294.846ZM294.744 55.897C295.254 55.897 295.662 55.7383 295.968 55.421C296.285 55.1037 296.444 54.6957 296.444 54.197C296.444 53.6983 296.285 53.2903 295.968 52.973C295.662 52.6443 295.254 52.48 294.744 52.48H292.857V55.897H294.744ZM306.832 62.255C305.019 62.255 303.506 61.6657 302.293 60.487C301.092 59.297 300.491 57.818 300.491 56.05C300.491 54.282 301.092 52.8087 302.293 51.63C303.506 50.44 305.019 49.845 306.832 49.845C308.022 49.845 309.099 50.117 310.062 50.661C311.037 51.1937 311.796 51.936 312.34 52.888C312.884 53.8287 313.156 54.8827 313.156 56.05C313.156 57.8293 312.555 59.3083 311.354 60.487C310.153 61.6657 308.645 62.255 306.832 62.255ZM306.832 59.824C307.535 59.824 308.169 59.6653 308.736 59.348C309.303 59.0193 309.745 58.566 310.062 57.988C310.391 57.41 310.555 56.764 310.555 56.05C310.555 54.9733 310.198 54.078 309.484 53.364C308.781 52.6387 307.897 52.276 306.832 52.276C305.778 52.276 304.888 52.6387 304.163 53.364C303.449 54.078 303.092 54.9733 303.092 56.05C303.092 57.1267 303.449 58.0277 304.163 58.753C304.888 59.467 305.778 59.824 306.832 59.824ZM322.68 55.727C323.202 55.999 323.604 56.3843 323.887 56.883C324.182 57.3703 324.329 57.9313 324.329 58.566C324.329 59.518 323.961 60.3283 323.224 60.997C322.499 61.6657 321.621 62 320.589 62L315.523 62V50.1L320.453 50.1C321.473 50.1 322.323 50.3947 323.003 50.984C323.683 51.562 324.023 52.2873 324.023 53.16C324.023 53.67 323.904 54.1517 323.666 54.605C323.428 55.0583 323.1 55.4323 322.68 55.727ZM321.524 53.568C321.524 53.3753 321.49 53.2053 321.422 53.058C321.366 52.8993 321.281 52.7633 321.167 52.65C321.054 52.5367 320.912 52.4517 320.742 52.395C320.584 52.327 320.402 52.293 320.198 52.293L318.056 52.293V54.826L320.198 54.826C320.606 54.826 320.929 54.7127 321.167 54.486C321.405 54.248 321.524 53.942 321.524 53.568ZM320.334 59.637C320.754 59.637 321.094 59.5123 321.354 59.263C321.615 59.0137 321.745 58.6907 321.745 58.294C321.745 57.9087 321.615 57.5913 321.354 57.342C321.094 57.0927 320.754 56.968 320.334 56.968L318.056 56.968V59.637L320.334 59.637ZM334.41 62L333.577 59.739H328.834L328.018 62H325.298L329.956 50.1H332.387L337.198 62H334.41ZM331.197 53.245L329.65 57.495H332.761L331.197 53.245ZM346.102 50.1H348.669V62H346.102V57.087H341.631V62H339.047V50.1H341.631V54.69H346.102V50.1ZM359.746 50.1H361.616V62H359.032V54.843L353.524 62H351.739V50.1H354.323V57.172L359.746 50.1ZM368.351 50.1H373.247V62H370.663V57.869H369.014L366.753 62H363.863L366.447 57.478C366.085 57.3193 365.756 57.121 365.461 56.883C365.178 56.645 364.94 56.3843 364.747 56.101C364.555 55.8063 364.402 55.4833 364.288 55.132C364.186 54.7807 364.135 54.418 364.135 54.044C364.135 52.922 364.538 51.987 365.342 51.239C366.147 50.4797 367.15 50.1 368.351 50.1ZM368.504 55.608H370.663V52.497H368.504C367.994 52.497 367.581 52.6387 367.263 52.922C366.946 53.2053 366.787 53.5793 366.787 54.044C366.787 54.35 366.861 54.622 367.008 54.86C367.156 55.098 367.36 55.285 367.62 55.421C367.881 55.5457 368.176 55.608 368.504 55.608Z" fill="#099FE5"/>
</svg>
