<svg width="557" height="135" viewBox="0 0 557 135" fill="none" xmlns="http://www.w3.org/2000/svg">
<path d="M7.32833 7.90331C6.72856 7.19305 6.39947 6.39799 6.29441 5.60082L5.7987 5.66614C5.54686 3.75518 6.4478 1.8152 8.07032 0.774691L8.34023 1.19558C9.01708 0.761526 9.83685 0.5 10.7665 0.5H13.2759V0L18.2947 0V0.5L23.3135 0.5V0L28.3323 0V0.5L33.3511 0.5V0L38.3699 0V0.5L43.3887 0.5V0L48.4075 0V0.5L53.4263 0.5V0L58.4451 0V0.5L63.4639 0.5V0L68.4827 0V0.5L73.5015 0.5V0L78.5203 0V0.5L83.5391 0.5V0L88.5579 0V0.5L93.5767 0.5V0L98.5955 0V0.5L103.614 0.5V0L108.633 0V0.5L113.652 0.5V0L118.671 0V0.5L123.689 0.5V0L128.708 0V0.5L133.727 0.5V0L138.746 0V0.5L143.765 0.5V0L148.783 0V0.5L153.802 0.5V0L158.821 0V0.5L163.84 0.5V0L168.859 0V0.5L173.877 0.5V0L178.896 0V0.5L183.915 0.5V0L188.934 0V0.5L193.953 0.5V0L198.971 0V0.5L203.99 0.5V0L209.009 0V0.5L214.028 0.5V0L219.047 0V0.5L224.065 0.5V0L229.084 0V0.5L234.103 0.5V0L239.122 0V0.5L244.141 0.5V0L249.159 0V0.5L254.178 0.5V0L259.197 0V0.5L264.216 0.5V0L269.235 0V0.5L274.253 0.5V0L279.272 0V0.5L284.291 0.5V0L289.31 0V0.5L294.329 0.5V0L299.347 0V0.5L304.366 0.5V0L309.385 0V0.5L314.404 0.5V0L319.423 0V0.5L324.441 0.5V0L329.46 0V0.5L334.479 0.5V0L339.498 0V0.5L344.517 0.5V0L349.535 0V0.5L354.554 0.5V0L359.573 0V0.5L364.592 0.5V0L369.611 0V0.5L374.629 0.5V0L379.648 0V0.5L384.667 0.5V0L389.686 0V0.5L394.705 0.5V0L399.723 0V0.5L404.742 0.5V0L409.761 0V0.5L414.78 0.5V0L419.799 0V0.5L424.817 0.5V0L429.836 0V0.5L434.855 0.5V0L439.874 0V0.5L444.893 0.5V0L449.911 0V0.5L454.93 0.5V0L459.949 0V0.5L464.968 0.5V0L469.987 0V0.5L475.005 0.5V0L480.024 0V0.5L482.534 0.5C483.595 0.5 484.643 0.616291 485.661 0.84115L485.769 0.352918C487.9 0.823567 489.903 1.75401 491.637 3.07822L491.334 3.47561C492.163 4.10827 492.928 4.83391 493.612 5.64488L495.196 7.51988L495.578 7.19729L498.744 10.9473L498.362 11.2699L501.529 15.0199L501.911 14.6973L505.078 18.4473L504.696 18.7699L507.862 22.5199L508.244 22.1973L511.411 25.9473L511.029 26.2699L514.196 30.0199L514.578 29.6973L517.744 33.4473L517.362 33.7699L520.529 37.5199L520.911 37.1973L524.078 40.9473L523.696 41.2699L526.862 45.0199L527.244 44.6973L530.411 48.4473L530.029 48.7699L533.196 52.5199L533.578 52.1973L536.744 55.9473L536.362 56.2699L537.946 58.1449C538.501 58.8028 538.989 59.4976 539.409 60.2203L539.841 59.9691C540.738 61.5111 541.337 63.1765 541.638 64.8835L541.146 64.9705C541.441 66.6431 541.441 68.357 541.146 70.0295L541.638 70.1165C541.337 71.8235 540.738 73.4889 539.841 75.031L539.409 74.7797C538.989 75.5024 538.501 76.1972 537.946 76.8551L536.362 78.7301L536.744 79.0527L533.578 82.8027L533.196 82.4801L530.029 86.2301L530.411 86.5527L527.244 90.3027L526.862 89.9801L523.696 93.7301L524.078 94.0527L520.911 97.8027L520.529 97.4801L517.362 101.23L517.744 101.553L514.578 105.303L514.196 104.98L511.029 108.73L511.411 109.053L508.244 112.803L507.862 112.48L504.696 116.23L505.078 116.553L501.911 120.303L501.529 119.98L498.362 123.73L498.744 124.053L495.578 127.803L495.196 127.48L493.612 129.355C492.928 130.166 492.163 130.892 491.334 131.524L491.637 131.922C489.903 133.246 487.9 134.176 485.769 134.647L485.661 134.159C484.643 134.384 483.595 134.5 482.534 134.5H480.025V135H475.006V134.5H469.987V135H464.968V134.5H459.949V135H454.931V134.5H449.912V135H444.893V134.5H439.874V135H434.855V134.5H429.837V135H424.818V134.5H419.799V135H414.78V134.5H409.761V135H404.742V134.5H399.724V135H394.705V134.5H389.686V135H384.667V134.5H379.648V135H374.63V134.5H369.611V135H364.592V134.5H359.573V135H354.555V134.5H349.536V135H344.517V134.5H339.498V135H334.479V134.5H329.461V135H324.442V134.5H319.423V135H314.404V134.5H309.385V135H304.367V134.5H299.348V135H294.329V134.5H289.31V135H284.291V134.5H279.273V135H274.254V134.5H269.235V135H264.216V134.5H259.197V135H254.179V134.5H249.16V135H244.141V134.5H239.122V135H234.103V134.5H229.085V135H224.066V134.5H219.047V135H214.028V134.5H209.009V135H203.991V134.5H198.972V135H193.953V134.5H188.934V135H183.915V134.5H178.897V135H173.878V134.5H168.859V135H163.84V134.5H158.821V135H153.803V134.5H148.784V135H143.765V134.5H138.746V135H133.727V134.5H128.709V135H123.69V134.5H118.671V135H113.652V134.5H108.633V135H103.615V134.5H98.5957V135H93.5769V134.5H88.5582V135H83.5394V134.5H78.5206V135H73.5018V134.5H68.483V135H63.4642V134.5H58.4454V135H53.4266V134.5H48.4078V135H43.389V134.5H38.3702V135H33.3514V134.5H28.3326V135H23.3138V134.5H18.295V135H13.2762V134.5H10.7665C9.83685 134.5 9.01708 134.238 8.34023 133.804L8.07032 134.225C6.4478 133.185 5.54687 131.245 5.79871 129.334L6.29442 129.399C6.39948 128.602 6.72857 127.807 7.32833 127.097L9.07339 125.03L8.69138 124.708L12.1815 120.575L12.5635 120.897L16.0536 116.764L15.6716 116.442L19.1617 112.308L19.5437 112.631L23.0339 108.498L22.6518 108.175L26.142 104.042L26.524 104.365L30.0141 100.232L29.6321 99.9094L33.1222 95.7764L33.5042 96.0989L36.9943 91.9659L36.6123 91.6433L40.1024 87.5103L40.4844 87.8329L43.9746 83.6998L43.5925 83.3773L47.0827 79.2442L47.4647 79.5668L49.2097 77.5003C49.8032 76.7976 50.3245 76.055 50.7737 75.2822L50.3414 75.0309C51.2377 73.4889 51.8366 71.8235 52.1381 70.1165L52.6305 70.2035C52.9462 68.4158 52.9462 66.5842 52.6305 64.7965L52.1381 64.8835C51.8366 63.1765 51.2377 61.5111 50.3414 59.9691L50.7737 59.7178C50.3245 58.945 49.8031 58.2024 49.2097 57.4997L47.4647 55.4332L47.0826 55.7558L43.5925 51.6227L43.9745 51.3001L40.4844 47.1671L40.1024 47.4897L36.6123 43.3567L36.9943 43.0341L33.5042 38.9011L33.1222 39.2236L29.6321 35.0906L30.0141 34.768L26.524 30.635L26.142 30.9576L22.6518 26.8245L23.0339 26.502L19.5437 22.3689L19.1617 22.6915L15.6716 18.5585L16.0536 18.2359L12.5635 14.1029L12.1815 14.4254L8.69137 10.2924L9.07339 9.96982L7.32833 7.90331Z" stroke="#099FE5" stroke-dasharray="5 5"/>
<path d="M82.112 44.6H93.332V60H91.374V46.404H84.026V60H82.112V44.6ZM110.76 57.998C109.234 59.5087 107.306 60.264 104.974 60.264C102.656 60.264 100.735 59.5087 99.2098 57.998C97.6844 56.4873 96.9218 54.5953 96.9218 52.322C96.9218 50.034 97.6844 48.1347 99.2098 46.624C100.735 45.0987 102.656 44.336 104.974 44.336C107.306 44.336 109.234 45.0913 110.76 46.602C112.285 48.1127 113.048 50.012 113.048 52.3C113.048 54.588 112.285 56.4873 110.76 57.998ZM100.618 56.634C101.776 57.7927 103.228 58.372 104.974 58.372C106.734 58.372 108.186 57.8 109.33 56.656C110.488 55.4973 111.068 54.0453 111.068 52.3C111.068 50.5547 110.488 49.11 109.33 47.966C108.186 46.8073 106.734 46.228 104.974 46.228C103.228 46.228 101.776 46.8073 100.618 47.966C99.4738 49.1247 98.9018 50.5693 98.9018 52.3C98.9018 54.0307 99.4738 55.4753 100.618 56.634ZM118.543 44.6H128.047V60H126.133V46.404H120.303L119.577 55.138C119.298 58.394 117.751 60.022 114.935 60.022H114.297V58.108H114.913C116.526 58.108 117.421 57.14 117.597 55.204L118.543 44.6ZM141.649 44.6H143.717L138.965 55.248C138.144 57.1253 137.337 58.394 136.545 59.054C135.753 59.714 134.66 60.044 133.267 60.044H132.541V58.24H133.421C134.257 58.24 134.895 58.0713 135.335 57.734C135.775 57.382 136.252 56.678 136.765 55.622L130.891 44.6H133.113L137.777 53.378L141.649 44.6ZM154.333 44.6H156.269V60H154.333V53.884C153.101 54.368 151.92 54.61 150.791 54.61C149.163 54.61 147.85 54.126 146.853 53.158C145.87 52.1753 145.379 50.826 145.379 49.11V44.6L147.315 44.6V48.978C147.315 50.1807 147.63 51.1047 148.261 51.75C148.891 52.3953 149.793 52.718 150.967 52.718C151.935 52.718 153.057 52.4467 154.333 51.904V44.6ZM171.551 44.6H172.959V60H171.023V48.274L162.245 60H160.925V44.6H162.839V56.238L171.551 44.6ZM195.751 58.196H197.357V63.146H195.575V60H183.981V63.146H182.199V58.196H183.387C183.651 58.0347 183.871 57.844 184.047 57.624C184.223 57.404 184.392 57.0667 184.553 56.612C184.729 56.1427 184.869 55.6293 184.971 55.072C185.089 54.5147 185.213 53.708 185.345 52.652C185.477 51.5813 185.602 50.452 185.719 49.264C185.837 48.076 185.976 46.5213 186.137 44.6H195.751V58.196ZM187.919 46.404C187.597 50.5253 187.281 53.378 186.973 54.962C186.665 56.5313 186.196 57.6093 185.565 58.196H193.815V46.404H187.919ZM213.441 57.998C211.916 59.5087 209.987 60.264 207.655 60.264C205.338 60.264 203.417 59.5087 201.891 57.998C200.366 56.4873 199.603 54.5953 199.603 52.322C199.603 50.034 200.366 48.1347 201.891 46.624C203.417 45.0987 205.338 44.336 207.655 44.336C209.987 44.336 211.916 45.0913 213.441 46.602C214.967 48.1127 215.729 50.012 215.729 52.3C215.729 54.588 214.967 56.4873 213.441 57.998ZM203.299 56.634C204.458 57.7927 205.91 58.372 207.655 58.372C209.415 58.372 210.867 57.8 212.011 56.656C213.17 55.4973 213.749 54.0453 213.749 52.3C213.749 50.5547 213.17 49.11 212.011 47.966C210.867 46.8073 209.415 46.228 207.655 46.228C205.91 46.228 204.458 46.8073 203.299 47.966C202.155 49.1247 201.583 50.5693 201.583 52.3C201.583 54.0307 202.155 55.4753 203.299 56.634ZM226.182 60.242C223.894 60.242 222.002 59.494 220.506 57.998C219.024 56.502 218.284 54.6027 218.284 52.3C218.284 49.9973 219.024 48.098 220.506 46.602C222.002 45.106 223.894 44.358 226.182 44.358C227.355 44.358 228.44 44.5853 229.438 45.04C230.45 45.48 231.3 46.1107 231.99 46.932C232.694 47.7533 233.185 48.714 233.464 49.814H231.506C231.095 48.6993 230.42 47.8267 229.482 47.196C228.543 46.5653 227.443 46.25 226.182 46.25C224.451 46.25 223.028 46.822 221.914 47.966C220.814 49.0953 220.264 50.5473 220.264 52.322C220.264 54.082 220.814 55.5267 221.914 56.656C223.028 57.7853 224.451 58.35 226.182 58.35C227.472 58.35 228.594 58.02 229.548 57.36C230.501 56.6853 231.176 55.754 231.572 54.566H233.552C233.112 56.3113 232.224 57.6973 230.89 58.724C229.57 59.736 228 60.242 226.182 60.242ZM246.281 44.6V46.404H241.595V60H239.659V46.404H234.973V44.6H246.281ZM258.22 44.6H260.288L255.536 55.248C254.715 57.1253 253.908 58.394 253.116 59.054C252.324 59.714 251.231 60.044 249.838 60.044H249.112V58.24H249.992C250.828 58.24 251.466 58.0713 251.906 57.734C252.346 57.382 252.823 56.678 253.336 55.622L247.462 44.6H249.684L254.348 53.378L258.22 44.6ZM263.005 44.6H274.225V60H272.267V46.404H264.919V60H263.005V44.6ZM294.463 60L289.051 52.938H286.983V60H285.069V44.6H286.983V51.134H289.029L293.957 44.6H296.421L290.789 52.014L296.927 60H294.463ZM315.252 44.6H317.672V60H314.328V50.738L307.2 60H304.89V44.6H308.234V53.752L315.252 44.6ZM330.766 44.6H334.088V60H330.766V53.642H324.98V60H321.636V44.6H324.98V50.54H330.766V44.6ZM345.123 60.33C343.642 60.33 342.292 59.9853 341.075 59.296C339.858 58.592 338.904 57.6313 338.215 56.414C337.526 55.182 337.181 53.818 337.181 52.322C337.181 50.034 337.936 48.12 339.447 46.58C340.972 45.04 342.864 44.27 345.123 44.27C347 44.27 348.621 44.8347 349.985 45.964C351.349 47.0933 352.214 48.5747 352.581 50.408H349.237C349.032 49.8067 348.731 49.286 348.335 48.846C347.939 48.3913 347.462 48.0467 346.905 47.812C346.362 47.5627 345.768 47.438 345.123 47.438C343.818 47.438 342.725 47.9073 341.845 48.846C340.98 49.77 340.547 50.9287 340.547 52.322C340.547 53.7007 340.98 54.852 341.845 55.776C342.725 56.7 343.818 57.162 345.123 57.162C346.135 57.162 347.008 56.876 347.741 56.304C348.474 55.732 348.98 54.9547 349.259 53.972H352.625C352.273 55.8787 351.408 57.4187 350.029 58.592C348.665 59.7507 347.03 60.33 345.123 60.33ZM365.842 44.6V47.702H361.552V60H358.208V47.702H353.94V44.6H365.842ZM374.421 44.6C375.976 44.6 377.274 45.106 378.315 46.118C379.357 47.1153 379.877 48.3767 379.877 49.902C379.877 51.4127 379.357 52.674 378.315 53.686C377.274 54.6833 375.976 55.182 374.421 55.182H371.847V60H368.503V44.6H374.421ZM374.289 52.102C374.949 52.102 375.477 51.8967 375.873 51.486C376.284 51.0753 376.489 50.5473 376.489 49.902C376.489 49.2567 376.284 48.7287 375.873 48.318C375.477 47.8927 374.949 47.68 374.289 47.68H371.847V52.102H374.289ZM391.037 44.6H394.513L390.157 54.984C389.379 56.8907 388.507 58.2107 387.539 58.944C386.585 59.6773 385.273 60.044 383.601 60.044H382.985V56.942H383.953C384.642 56.942 385.17 56.8393 385.537 56.634C385.903 56.4287 386.241 56.04 386.549 55.468L380.829 44.6H384.569L388.221 51.64L391.037 44.6ZM414.943 60H411.555L410.037 49.946L405.439 59.978H404.625L400.027 49.946L398.509 60H395.099L397.519 44.6H400.863L405.021 54.038L409.201 44.6L412.545 44.6L414.943 60ZM421.292 56.898H427.43V60H417.948V44.6H427.188V47.68H421.292V50.716H426.616V53.73H421.292V56.898ZM439.807 44.6H443.129V60H439.807V53.642H434.021V60H430.677V44.6H434.021V50.54H439.807V44.6ZM457.728 44.6V47.702H453.438V60H450.094V47.702H445.826V44.6H457.728ZM469.137 60L468.059 57.074H461.921L460.865 60H457.345L463.373 44.6H466.519L472.745 60H469.137ZM464.979 48.67L462.977 54.17H467.003L464.979 48.67ZM494.014 60H490.626L489.108 49.946L484.51 59.978H483.696L479.098 49.946L477.58 60H474.17L476.59 44.6H479.934L484.092 54.038L488.272 44.6H491.616L494.014 60ZM92.386 72.6V75.702H88.096V88H84.752V75.702H80.484V72.6H92.386ZM101.858 88.33C99.5108 88.33 97.5528 87.5673 95.9835 86.042C94.4288 84.502 93.6515 82.588 93.6515 80.3C93.6515 78.012 94.4288 76.1053 95.9835 74.58C97.5528 73.04 99.5108 72.27 101.858 72.27C103.398 72.27 104.791 72.622 106.038 73.326C107.299 74.0153 108.282 74.976 108.986 76.208C109.69 77.4253 110.042 78.7893 110.042 80.3C110.042 82.6027 109.264 84.5167 107.71 86.042C106.155 87.5673 104.204 88.33 101.858 88.33ZM101.858 85.184C102.767 85.184 103.588 84.9787 104.322 84.568C105.055 84.1427 105.627 83.556 106.038 82.808C106.463 82.06 106.676 81.224 106.676 80.3C106.676 78.9067 106.214 77.748 105.29 76.824C104.38 75.8853 103.236 75.416 101.858 75.416C100.494 75.416 99.3422 75.8853 98.4035 76.824C97.4795 77.748 97.0175 78.9067 97.0175 80.3C97.0175 81.6933 97.4795 82.8593 98.4035 83.798C99.3422 84.722 100.494 85.184 101.858 85.184ZM119.023 72.6C120.578 72.6 121.876 73.106 122.917 74.118C123.958 75.1153 124.479 76.3767 124.479 77.902C124.479 79.4127 123.958 80.674 122.917 81.686C121.876 82.6833 120.578 83.182 119.023 83.182H116.449V88H113.105V72.6H119.023ZM118.891 80.102C119.551 80.102 120.079 79.8967 120.475 79.486C120.886 79.0753 121.091 78.5473 121.091 77.902C121.091 77.2567 120.886 76.7287 120.475 76.318C120.079 75.8927 119.551 75.68 118.891 75.68H116.449V80.102H118.891ZM135.986 72.6V75.702H130.574V88H127.23V72.6H135.986ZM145.459 88.33C143.112 88.33 141.154 87.5673 139.585 86.042C138.03 84.502 137.253 82.588 137.253 80.3C137.253 78.012 138.03 76.1053 139.585 74.58C141.154 73.04 143.112 72.27 145.459 72.27C146.999 72.27 148.392 72.622 149.639 73.326C150.9 74.0153 151.883 74.976 152.587 76.208C153.291 77.4253 153.643 78.7893 153.643 80.3C153.643 82.6027 152.865 84.5167 151.311 86.042C149.756 87.5673 147.805 88.33 145.459 88.33ZM145.459 85.184C146.368 85.184 147.189 84.9787 147.923 84.568C148.656 84.1427 149.228 83.556 149.639 82.808C150.064 82.06 150.277 81.224 150.277 80.3C150.277 78.9067 149.815 77.748 148.891 76.824C147.981 75.8853 146.837 75.416 145.459 75.416C144.095 75.416 142.943 75.8853 142.005 76.824C141.081 77.748 140.619 78.9067 140.619 80.3C140.619 81.6933 141.081 82.8593 142.005 83.798C142.943 84.722 144.095 85.184 145.459 85.184ZM165.968 79.882C166.643 80.234 167.163 80.7327 167.53 81.378C167.911 82.0087 168.102 82.7347 168.102 83.556C168.102 84.788 167.625 85.8367 166.672 86.702C165.733 87.5673 164.597 88 163.262 88H156.706V72.6H163.086C164.406 72.6 165.506 72.9813 166.386 73.744C167.266 74.492 167.706 75.4307 167.706 76.56C167.706 77.22 167.552 77.8433 167.244 78.43C166.936 79.0167 166.511 79.5007 165.968 79.882ZM164.472 77.088C164.472 76.8387 164.428 76.6187 164.34 76.428C164.267 76.2227 164.157 76.0467 164.01 75.9C163.863 75.7533 163.68 75.6433 163.46 75.57C163.255 75.482 163.02 75.438 162.756 75.438H159.984V78.716H162.756C163.284 78.716 163.702 78.5693 164.01 78.276C164.318 77.968 164.472 77.572 164.472 77.088ZM162.932 84.942C163.475 84.942 163.915 84.7807 164.252 84.458C164.589 84.1353 164.758 83.7173 164.758 83.204C164.758 82.7053 164.589 82.2947 164.252 81.972C163.915 81.6493 163.475 81.488 162.932 81.488H159.984V84.942H162.932ZM178.565 88.33C176.219 88.33 174.261 87.5673 172.691 86.042C171.137 84.502 170.359 82.588 170.359 80.3C170.359 78.012 171.137 76.1053 172.691 74.58C174.261 73.04 176.219 72.27 178.565 72.27C180.105 72.27 181.499 72.622 182.745 73.326C184.007 74.0153 184.989 74.976 185.693 76.208C186.397 77.4253 186.749 78.7893 186.749 80.3C186.749 82.6027 185.972 84.5167 184.417 86.042C182.863 87.5673 180.912 88.33 178.565 88.33ZM178.565 85.184C179.475 85.184 180.296 84.9787 181.029 84.568C181.763 84.1427 182.335 83.556 182.745 82.808C183.171 82.06 183.383 81.224 183.383 80.3C183.383 78.9067 182.921 77.748 181.997 76.824C181.088 75.8853 179.944 75.416 178.565 75.416C177.201 75.416 176.05 75.8853 175.111 76.824C174.187 77.748 173.725 78.9067 173.725 80.3C173.725 81.6933 174.187 82.8593 175.111 83.798C176.05 84.722 177.201 85.184 178.565 85.184ZM198.569 72.6V75.702H193.157V88H189.813V72.6H198.569ZM208.041 88.33C205.694 88.33 203.736 87.5673 202.167 86.042C200.612 84.502 199.835 82.588 199.835 80.3C199.835 78.012 200.612 76.1053 202.167 74.58C203.736 73.04 205.694 72.27 208.041 72.27C209.581 72.27 210.974 72.622 212.221 73.326C213.482 74.0153 214.465 74.976 215.169 76.208C215.873 77.4253 216.225 78.7893 216.225 80.3C216.225 82.6027 215.448 84.5167 213.893 86.042C212.338 87.5673 210.388 88.33 208.041 88.33ZM208.041 85.184C208.95 85.184 209.772 84.9787 210.505 84.568C211.238 84.1427 211.81 83.556 212.221 82.808C212.646 82.06 212.859 81.224 212.859 80.3C212.859 78.9067 212.397 77.748 211.473 76.824C210.564 75.8853 209.42 75.416 208.041 75.416C206.677 75.416 205.526 75.8853 204.587 76.824C203.663 77.748 203.201 78.9067 203.201 80.3C203.201 81.6933 203.663 82.8593 204.587 83.798C205.526 84.722 206.677 85.184 208.041 85.184ZM242.042 80.256C242.042 80.916 241.969 81.5613 241.822 82.192C241.69 82.8227 241.492 83.4313 241.228 84.018C240.964 84.59 240.619 85.1253 240.194 85.624C239.783 86.108 239.314 86.5407 238.786 86.922C238.258 87.3033 237.642 87.6187 236.938 87.868C236.249 88.1027 235.508 88.2493 234.716 88.308V90.64H231.46V88.308C230.785 88.2493 230.14 88.132 229.524 87.956C228.923 87.7653 228.38 87.5233 227.896 87.23C227.412 86.9367 226.965 86.5993 226.554 86.218C226.143 85.8367 225.784 85.4187 225.476 84.964C225.183 84.5093 224.933 84.0327 224.728 83.534C224.523 83.0207 224.369 82.5 224.266 81.972C224.163 81.4293 224.112 80.8793 224.112 80.322C224.112 79.3393 224.273 78.3933 224.596 77.484C224.919 76.5747 225.373 75.746 225.96 74.998C226.561 74.25 227.339 73.634 228.292 73.15C229.245 72.666 230.301 72.38 231.46 72.292V70.29H234.716V72.292C235.889 72.38 236.953 72.666 237.906 73.15C238.859 73.6193 239.629 74.228 240.216 74.976C240.803 75.7093 241.25 76.5307 241.558 77.44C241.881 78.3347 242.042 79.2733 242.042 80.256ZM234.694 85.206C235.941 85.03 236.916 84.4727 237.62 83.534C238.339 82.5953 238.698 81.5173 238.698 80.3C238.698 79.0973 238.339 78.0267 237.62 77.088C236.916 76.1493 235.941 75.5993 234.694 75.438V85.206ZM227.5 80.3C227.5 81.5173 227.852 82.5953 228.556 83.534C229.275 84.4727 230.257 85.03 231.504 85.206V75.438C230.257 75.5993 229.275 76.1493 228.556 77.088C227.852 78.0267 227.5 79.0973 227.5 80.3ZM255.517 72.6H257.937V88H254.593V78.738L247.465 88H245.155V72.6H248.499V81.752L255.517 72.6ZM271.031 72.6H274.353V88H271.031V81.642H265.245V88H261.901V72.6H265.245V78.54H271.031V72.6ZM288.556 88L287.478 85.074H281.34L280.284 88H276.764L282.792 72.6H285.938L292.164 88H288.556ZM284.398 76.67L282.396 82.17H286.422L284.398 76.67ZM303.687 72.6H307.009V88H303.687V81.642H297.901V88H294.557V72.6H297.901V78.54H303.687V72.6ZM318.043 88.33C316.562 88.33 315.212 87.9853 313.995 87.296C312.778 86.592 311.824 85.6313 311.135 84.414C310.446 83.182 310.101 81.818 310.101 80.322C310.101 78.034 310.856 76.12 312.367 74.58C313.892 73.04 315.784 72.27 318.043 72.27C319.92 72.27 321.541 72.8347 322.905 73.964C324.269 75.0933 325.134 76.5747 325.501 78.408H322.157C321.952 77.8067 321.651 77.286 321.255 76.846C320.859 76.3913 320.382 76.0467 319.825 75.812C319.282 75.5627 318.688 75.438 318.043 75.438C316.738 75.438 315.645 75.9073 314.765 76.846C313.9 77.77 313.467 78.9287 313.467 80.322C313.467 81.7007 313.9 82.852 314.765 83.776C315.645 84.7 316.738 85.162 318.043 85.162C319.055 85.162 319.928 84.876 320.661 84.304C321.394 83.732 321.9 82.9547 322.179 81.972H325.545C325.193 83.8787 324.328 85.4187 322.949 86.592C321.585 87.7507 319.95 88.33 318.043 88.33ZM338.756 72.6H341.176V88H337.832V78.738L330.704 88H328.394V72.6H331.738V81.752L338.756 72.6ZM351.058 72.6C352.613 72.6 353.911 73.106 354.952 74.118C355.994 75.1153 356.514 76.3767 356.514 77.902C356.514 79.4127 355.994 80.674 354.952 81.686C353.911 82.6833 352.613 83.182 351.058 83.182H348.484V88H345.14V72.6H351.058ZM350.926 80.102C351.586 80.102 352.114 79.8967 352.51 79.486C352.921 79.0753 353.126 78.5473 353.126 77.902C353.126 77.2567 352.921 76.7287 352.51 76.318C352.114 75.8927 351.586 75.68 350.926 75.68H348.484V80.102H350.926ZM366.57 88.33C364.223 88.33 362.265 87.5673 360.696 86.042C359.141 84.502 358.364 82.588 358.364 80.3C358.364 78.012 359.141 76.1053 360.696 74.58C362.265 73.04 364.223 72.27 366.57 72.27C368.11 72.27 369.503 72.622 370.75 73.326C372.011 74.0153 372.994 74.976 373.698 76.208C374.402 77.4253 374.754 78.7893 374.754 80.3C374.754 82.6027 373.977 84.5167 372.422 86.042C370.867 87.5673 368.917 88.33 366.57 88.33ZM366.57 85.184C367.479 85.184 368.301 84.9787 369.034 84.568C369.767 84.1427 370.339 83.556 370.75 82.808C371.175 82.06 371.388 81.224 371.388 80.3C371.388 78.9067 370.926 77.748 370.002 76.824C369.093 75.8853 367.949 75.416 366.57 75.416C365.206 75.416 364.055 75.8853 363.116 76.824C362.192 77.748 361.73 78.9067 361.73 80.3C361.73 81.6933 362.192 82.8593 363.116 83.798C364.055 84.722 365.206 85.184 366.57 85.184ZM387.079 79.882C387.754 80.234 388.275 80.7327 388.641 81.378C389.023 82.0087 389.213 82.7347 389.213 83.556C389.213 84.788 388.737 85.8367 387.783 86.702C386.845 87.5673 385.708 88 384.373 88H377.817V72.6H384.197C385.517 72.6 386.617 72.9813 387.497 73.744C388.377 74.492 388.817 75.4307 388.817 76.56C388.817 77.22 388.663 77.8433 388.355 78.43C388.047 79.0167 387.622 79.5007 387.079 79.882ZM385.583 77.088C385.583 76.8387 385.539 76.6187 385.451 76.428C385.378 76.2227 385.268 76.0467 385.121 75.9C384.975 75.7533 384.791 75.6433 384.571 75.57C384.366 75.482 384.131 75.438 383.867 75.438H381.095V78.716H383.867C384.395 78.716 384.813 78.5693 385.121 78.276C385.429 77.968 385.583 77.572 385.583 77.088ZM384.043 84.942C384.586 84.942 385.026 84.7807 385.363 84.458C385.701 84.1353 385.869 83.7173 385.869 83.204C385.869 82.7053 385.701 82.2947 385.363 81.972C385.026 81.6493 384.586 81.488 384.043 81.488H381.095V84.942H384.043ZM402.259 88L401.181 85.074H395.043L393.987 88H390.467L396.495 72.6H399.641L405.867 88H402.259ZM398.101 76.67L396.099 82.17H400.125L398.101 76.67ZM417.39 72.6H420.712V88H417.39V81.642H411.604V88H408.26V72.6H411.604V78.54H417.39V72.6ZM435.046 72.6H437.466V88H434.122V78.738L426.994 88H424.684V72.6H428.028V81.752L435.046 72.6ZM446.183 72.6H452.519V88H449.175V82.654H447.041L444.115 88H440.375L443.719 82.148C443.249 81.9427 442.824 81.686 442.443 81.378C442.076 81.07 441.768 80.7327 441.519 80.366C441.269 79.9847 441.071 79.5667 440.925 79.112C440.793 78.6573 440.727 78.188 440.727 77.704C440.727 76.252 441.247 75.042 442.289 74.074C443.33 73.0913 444.628 72.6 446.183 72.6ZM446.381 79.728H449.175V75.702H446.381C445.721 75.702 445.185 75.8853 444.775 76.252C444.364 76.6187 444.159 77.1027 444.159 77.704C444.159 78.1 444.254 78.452 444.445 78.76C444.635 79.068 444.899 79.31 445.237 79.486C445.574 79.6473 445.955 79.728 446.381 79.728Z" fill="#099FE5"/>
</svg>
