<svg width="450" height="64" viewBox="0 0 450 64" fill="none" xmlns="http://www.w3.org/2000/svg">
<path d="M449.5 12.75H450V18.25H449.5V23.75H450V29.25H449.5V32V34.75H450V40.25H449.5V45.75H450V51.25H449.5V54C449.5 54.6351 449.438 55.2552 449.319 55.8546L449.81 55.9516C449.55 57.2636 449.034 58.4832 448.316 59.5562L447.9 59.278C447.206 60.3142 446.314 61.2064 445.278 61.9002L445.556 62.3157C444.483 63.034 443.264 63.5501 441.952 63.8097L441.855 63.3192C441.255 63.4377 440.635 63.5 440 63.5L437.5 63.5V64H432.5V63.5H427.5V64H422.5V63.5H417.5V64H412.5V63.5H407.5V64H402.5V63.5H397.5V64H392.5V63.5H387.5V64H382.5V63.5H377.5V64H372.5V63.5H367.5V64H362.5V63.5H357.5V64H352.5V63.5H347.5V64H342.5V63.5H337.5V64H332.5V63.5H327.5V64H322.5V63.5H317.5V64H312.5V63.5H307.5V64H302.5V63.5H297.5V64H292.5V63.5H287.5V64H282.5V63.5H277.5V64H272.5V63.5H267.5V64H262.5V63.5H257.5V64H252.5V63.5H247.5V64H242.5V63.5H237.5V64H232.5V63.5H227.5V64H222.5V63.5H217.5V64H212.5V63.5H207.5V64H202.5V63.5H197.5V64H192.5V63.5H187.5V64H182.5V63.5H177.5V64L172.5 64V63.5H167.5V64H162.5V63.5H157.5V64H152.5V63.5H147.5V64H142.5V63.5H137.5V64H132.5V63.5H127.5V64H122.5V63.5H117.5V64H112.5V63.5H107.5V64H102.5V63.5H97.5V64H92.5V63.5L87.5 63.5V64H82.5V63.5H77.5V64H72.5V63.5H67.5V64H62.5V63.5H57.5V64H52.5V63.5H47.5V64H42.5V63.5H37.5V64H32.5V63.5H27.5V64H22.5V63.5H17.5V64H12.5V63.5H10C9.3649 63.5 8.74483 63.4377 8.14541 63.3192L8.04838 63.8097C6.73643 63.5501 5.51676 63.034 4.44384 62.3157L4.722 61.9002C3.6858 61.2064 2.79355 60.3142 2.09983 59.278L1.68435 59.5562C0.966046 58.4832 0.449883 57.2636 0.19034 55.9516L0.680834 55.8546C0.562252 55.2552 0.5 54.6351 0.5 54L0.5 51.25H0L0 45.75H0.5L0.5 40.25H0L0 34.75H0.5L0.5 32L0.5 29.25H0L0 23.75H0.5L0.5 18.25H0L0 12.75H0.5L0.5 10C0.5 9.3649 0.562251 8.74483 0.680834 8.14542L0.19034 8.04838C0.449883 6.73643 0.966046 5.51676 1.68435 4.44384L2.09983 4.722C2.79355 3.6858 3.6858 2.79355 4.722 2.09983L4.44384 1.68435C5.51676 0.966047 6.73643 0.449883 8.04838 0.19034L8.14541 0.680834C8.74483 0.562252 9.3649 0.5 10 0.5L12.5 0.5V0L17.5 0V0.5L22.5 0.5V0L27.5 0V0.5L32.5 0.5V0L37.5 0V0.5L42.5 0.5V0L47.5 0V0.5L52.5 0.5V0L57.5 0V0.5L62.5 0.5V0L67.5 0V0.5L72.5 0.5V0L77.5 0V0.5L82.5 0.5V0L87.5 0V0.5L92.5 0.5V0L97.5 0V0.5L102.5 0.5V0L107.5 0V0.5L112.5 0.5V0L117.5 0V0.5L122.5 0.5V0L127.5 0V0.5L132.5 0.5V0L137.5 0V0.5L142.5 0.5V0L147.5 0V0.5L152.5 0.5V0L157.5 0V0.5L162.5 0.5V0L167.5 0V0.5L172.5 0.5V0L177.5 0V0.5L182.5 0.5V0L187.5 0V0.5L192.5 0.5V0L197.5 0V0.5L202.5 0.5V0L207.5 0V0.5L212.5 0.5V0L217.5 0V0.5L222.5 0.5V0L227.5 0V0.5L232.5 0.5V0L237.5 0V0.5L242.5 0.5V0L247.5 0V0.5L252.5 0.5V0L257.5 0V0.5L262.5 0.5V0L267.5 0V0.5L272.5 0.5V0L277.5 0V0.5L282.5 0.5V0L287.5 0V0.5L292.5 0.5V0L297.5 0V0.5L302.5 0.5V0L307.5 0V0.5L312.5 0.5V0L317.5 0V0.5L322.5 0.5V0L327.5 0V0.5L332.5 0.5V0L337.5 0V0.5L342.5 0.5V0L347.5 0V0.5L352.5 0.5V0L357.5 0V0.5L362.5 0.5V0L367.5 0V0.5L372.5 0.5V0L377.5 0V0.5L382.5 0.5V0L387.5 0V0.5L392.5 0.5V0L397.5 0V0.5L402.5 0.5V0L407.5 0V0.5L412.5 0.5V0L417.5 0V0.5L422.5 0.5V0L427.5 0V0.5L432.5 0.5V0L437.5 0V0.5L440 0.5C440.635 0.5 441.255 0.562251 441.855 0.680834L441.952 0.190339C443.264 0.44988 444.483 0.966043 445.556 1.68434L445.278 2.09983C446.314 2.79355 447.206 3.6858 447.9 4.722L448.316 4.44384C449.034 5.51676 449.55 6.73643 449.81 8.04838L449.319 8.14541C449.438 8.74483 449.5 9.3649 449.5 10V12.75Z" fill="#099FE5" stroke="#099FE5" stroke-dasharray="5 5"/>
<path d="M138.674 24.4C139.946 24.4 141.008 24.814 141.86 25.642C142.712 26.458 143.138 27.49 143.138 28.738C143.138 29.974 142.712 31.006 141.86 31.834C141.008 32.65 139.946 33.058 138.674 33.058H136.568V37H133.832V24.4H138.674ZM138.566 30.538C139.106 30.538 139.538 30.37 139.862 30.034C140.198 29.698 140.366 29.266 140.366 28.738C140.366 28.21 140.198 27.778 139.862 27.442C139.538 27.094 139.106 26.92 138.566 26.92H136.568V30.538H138.566ZM148.125 34.462H153.147V37H145.389V24.4L152.949 24.4V26.92L148.125 26.92V29.404L152.481 29.404V31.87L148.125 31.87V34.462ZM162.968 24.4V26.938H158.54V37H155.804V24.4H162.968ZM173.642 24.4H175.622V37H172.886V29.422L167.054 37H165.164V24.4H167.9V31.888L173.642 24.4ZM184.644 37.27C183.432 37.27 182.328 36.988 181.332 36.424C180.336 35.848 179.556 35.062 178.992 34.066C178.428 33.058 178.146 31.942 178.146 30.718C178.146 28.846 178.764 27.28 180 26.02C181.248 24.76 182.796 24.13 184.644 24.13C186.18 24.13 187.506 24.592 188.622 25.516C189.738 26.44 190.446 27.652 190.746 29.152H188.01C187.842 28.66 187.596 28.234 187.272 27.874C186.948 27.502 186.558 27.22 186.102 27.028C185.658 26.824 185.172 26.722 184.644 26.722C183.576 26.722 182.682 27.106 181.962 27.874C181.254 28.63 180.9 29.578 180.9 30.718C180.9 31.846 181.254 32.788 181.962 33.544C182.682 34.3 183.576 34.678 184.644 34.678C185.472 34.678 186.186 34.444 186.786 33.976C187.386 33.508 187.8 32.872 188.028 32.068H190.782C190.494 33.628 189.786 34.888 188.658 35.848C187.542 36.796 186.204 37.27 184.644 37.27ZM201.595 24.4V26.938H198.085V37H195.349V26.938H191.857V24.4H201.595ZM208.615 24.4C209.887 24.4 210.949 24.814 211.801 25.642C212.653 26.458 213.079 27.49 213.079 28.738C213.079 29.974 212.653 31.006 211.801 31.834C210.949 32.65 209.887 33.058 208.615 33.058H206.509V37H203.773V24.4H208.615ZM208.507 30.538C209.047 30.538 209.479 30.37 209.803 30.034C210.139 29.698 210.307 29.266 210.307 28.738C210.307 28.21 210.139 27.778 209.803 27.442C209.479 27.094 209.047 26.92 208.507 26.92H206.509V30.538H208.507ZM223.808 24.4H225.788V37H223.052V29.422L217.22 37H215.33V24.4H218.066V31.888L223.808 24.4ZM233.874 24.4C235.146 24.4 236.208 24.814 237.06 25.642C237.912 26.458 238.338 27.49 238.338 28.738C238.338 29.974 237.912 31.006 237.06 31.834C236.208 32.65 235.146 33.058 233.874 33.058H231.768V37H229.032V24.4H233.874ZM233.766 30.538C234.306 30.538 234.738 30.37 235.062 30.034C235.398 29.698 235.566 29.266 235.566 28.738C235.566 28.21 235.398 27.778 235.062 27.442C234.738 27.094 234.306 26.92 233.766 26.92H231.768V30.538H233.766ZM247.468 24.4H250.312L246.748 32.896C246.112 34.456 245.398 35.536 244.606 36.136C243.826 36.736 242.752 37.036 241.384 37.036H240.88V34.498H241.672C242.236 34.498 242.668 34.414 242.968 34.246C243.268 34.078 243.544 33.76 243.796 33.292L239.116 24.4H242.176L245.164 30.16L247.468 24.4ZM254.577 23.014V20.98H259.995V23.014H254.577ZM260.625 24.4H262.605V37H259.869V29.422L254.037 37H252.147V24.4L254.883 24.4V31.888L260.625 24.4ZM271.626 37.27C270.414 37.27 269.31 36.988 268.314 36.424C267.318 35.848 266.538 35.062 265.974 34.066C265.41 33.058 265.128 31.942 265.128 30.718C265.128 28.846 265.746 27.28 266.982 26.02C268.23 24.76 269.778 24.13 271.626 24.13C273.162 24.13 274.488 24.592 275.604 25.516C276.72 26.44 277.428 27.652 277.728 29.152H274.992C274.824 28.66 274.578 28.234 274.254 27.874C273.93 27.502 273.54 27.22 273.084 27.028C272.64 26.824 272.154 26.722 271.626 26.722C270.558 26.722 269.664 27.106 268.944 27.874C268.236 28.63 267.882 29.578 267.882 30.718C267.882 31.846 268.236 32.788 268.944 33.544C269.664 34.3 270.558 34.678 271.626 34.678C272.454 34.678 273.168 34.444 273.768 33.976C274.368 33.508 274.782 32.872 275.01 32.068H277.764C277.476 33.628 276.768 34.888 275.64 35.848C274.524 36.796 273.186 37.27 271.626 37.27ZM283.983 24.4L289.167 24.4V37H286.431V32.626H284.685L282.291 37H279.231L281.967 32.212C281.583 32.044 281.235 31.834 280.923 31.582C280.623 31.33 280.371 31.054 280.167 30.754C279.963 30.442 279.801 30.1 279.681 29.728C279.573 29.356 279.519 28.972 279.519 28.576C279.519 27.388 279.945 26.398 280.797 25.606C281.649 24.802 282.711 24.4 283.983 24.4ZM284.145 30.232H286.431V26.938H284.145C283.605 26.938 283.167 27.088 282.831 27.388C282.495 27.688 282.327 28.084 282.327 28.576C282.327 28.9 282.405 29.188 282.561 29.44C282.717 29.692 282.933 29.89 283.209 30.034C283.485 30.166 283.797 30.232 284.145 30.232Z" fill="white"/>
</svg>
