<svg width="449" height="64" viewBox="0 0 449 64" fill="none" xmlns="http://www.w3.org/2000/svg">
<path d="M1.68434 59.5562C0.966044 58.4832 0.449882 57.2636 0.19034 55.9516L0.680834 55.8546C0.562251 55.2552 0.5 54.6351 0.5 54L0.5 51.25H0L0 45.75H0.5L0.5 40.25H0L0 34.75H0.5L0.5 32L0.5 29.25H0L0 23.75H0.5L0.5 18.25H0L0 12.75H0.5L0.5 10C0.5 9.3649 0.562251 8.74483 0.680834 8.14542L0.19034 8.04838C0.449883 6.73643 0.966046 5.51676 1.68435 4.44384L2.09983 4.722C2.79355 3.6858 3.6858 2.79355 4.722 2.09983L4.44384 1.68435C5.51676 0.966046 6.73643 0.449883 8.04838 0.190341L8.14541 0.680834C8.74483 0.562252 9.3649 0.5 10 0.5L12.4941 0.5V0L17.4825 0V0.5L22.4709 0.5V0L27.4593 0V0.5H32.4476V0L37.436 0V0.5L42.4244 0.5V0L47.4128 0V0.5L52.4011 0.5V0L57.3895 0V0.5H62.3779V0L67.3662 0V0.5L72.3546 0.5V0L77.343 0V0.5L82.3314 0.5V0L87.3197 0V0.5H92.3081V0L97.2965 0V0.5L102.285 0.5V0L107.273 0V0.5L112.262 0.5V0L117.25 0V0.5H122.238V0L127.227 0V0.5L132.215 0.5V0L137.203 0V0.5L142.192 0.5V0L147.18 0V0.5H152.169V0L157.157 0V0.5L162.145 0.5V0L167.134 0V0.5L172.122 0.5V0L177.11 0V0.5H182.099V0L187.087 0V0.5L192.076 0.5V0L197.064 0V0.5L202.052 0.5V0L207.041 0V0.5H212.029V0L217.017 0V0.5L222.006 0.5V0L226.994 0V0.5L231.983 0.5V0L236.971 0V0.5H241.959V0L246.948 0V0.5L251.936 0.5V0L256.924 0V0.5L261.913 0.5V0L266.901 0V0.5H271.89V0L276.878 0V0.5L281.866 0.5V0L286.855 0V0.5L291.843 0.5V0L296.831 0V0.5H301.82V0L306.808 0V0.5L311.797 0.5V0L316.785 0V0.5L321.773 0.5V0L326.762 0V0.5H331.75V0L336.738 0V0.5L341.727 0.5V0L346.715 0V0.5L351.703 0.5V0L356.692 0V0.5L361.68 0.5V0L366.669 0V0.5L371.657 0.5V0L376.645 0V0.5H381.634V0L386.622 0V0.5L391.61 0.5V0L396.599 0V0.5L401.587 0.5V0L406.576 0V0.5H411.564V0L416.552 0V0.5L421.541 0.5V0L426.529 0V0.5L431.517 0.5V0L436.506 0V0.5H439C439.635 0.5 440.255 0.562251 440.855 0.680834L440.952 0.190339C442.264 0.44988 443.483 0.966043 444.556 1.68434L444.278 2.09983C445.314 2.79355 446.206 3.6858 446.9 4.722L447.316 4.44384C448.034 5.51676 448.55 6.73643 448.81 8.04838L448.319 8.14541C448.438 8.74483 448.5 9.3649 448.5 10V12.75H449V18.25H448.5V23.75H449V29.25H448.5V32V34.75H449V40.25H448.5V45.75H449V51.25H448.5V54C448.5 54.6351 448.438 55.2552 448.319 55.8546L448.81 55.9516C448.55 57.2636 448.034 58.4832 447.316 59.5562L446.9 59.278C446.206 60.3142 445.314 61.2064 444.278 61.9002L444.556 62.3157C443.483 63.034 442.264 63.5501 440.952 63.8097L440.855 63.3192C440.255 63.4377 439.635 63.5 439 63.5H436.506V64H431.517V63.5H426.529V64H421.541V63.5H416.552V64H411.564V63.5H406.576V64H401.587V63.5H396.599V64H391.611V63.5H386.622V64H381.634V63.5H376.645V64H371.657V63.5H366.669V64H361.68V63.5H356.692V64H351.704V63.5H346.715V64H341.727V63.5H336.738V64H331.75V63.5H326.762V64H321.773V63.5H316.785V64H311.797V63.5H306.808V64H301.82V63.5H296.831V64H291.843V63.5H286.855V64H281.866V63.5H276.878V64H271.89V63.5H266.901V64H261.913V63.5H256.924V64H251.936V63.5H246.948V64H241.959V63.5L236.971 63.5V64H231.983V63.5H226.994V64H222.006V63.5H217.017V64H212.029V63.5H207.041V64H202.052V63.5H197.064V64H192.076V63.5H187.087V64H182.099V63.5H177.11V64H172.122V63.5H167.134V64H162.145V63.5H157.157V64H152.169V63.5H147.18V64H142.192V63.5H137.203V64H132.215V63.5H127.227V64H122.238V63.5H117.25V64H112.262V63.5H107.273V64H102.285V63.5H97.2965V64H92.3081V63.5H87.3198V64H82.3314V63.5H77.343V64H72.3546V63.5H67.3663V64H62.3779V63.5H57.3895V64H52.4012V63.5H47.4128V64H42.4244V63.5H37.436V64H32.4477V63.5H27.4593V64H22.4709V63.5H17.4825V64H12.4942V63.5H9.99999C9.36489 63.5 8.74482 63.4377 8.1454 63.3192L8.04837 63.8097C6.73642 63.5501 5.51675 63.034 4.44384 62.3157L4.722 61.9002C3.68579 61.2064 2.79355 60.3142 2.09983 59.278L1.68434 59.5562Z" stroke="#099FE5" stroke-dasharray="5 5"/>
<path d="M97.8104 30.829C98.3657 31.067 98.802 31.4467 99.1194 31.968C99.4367 32.4893 99.5953 33.073 99.5953 33.719C99.5953 34.6483 99.2497 35.4303 98.5584 36.065C97.867 36.6883 97.0114 37 95.9914 37H91.2313V25.1H95.9234C96.898 25.1 97.697 25.389 98.3204 25.967C98.955 26.545 99.2724 27.2703 99.2724 28.143C99.2724 28.6757 99.1364 29.1913 98.8644 29.69C98.6037 30.1887 98.2524 30.5683 97.8104 30.829ZM97.7594 28.347C97.7594 28.007 97.6744 27.701 97.5044 27.429C97.3457 27.157 97.1247 26.9473 96.8414 26.8C96.558 26.6413 96.2407 26.562 95.8894 26.562H92.6934V30.132H95.9064C96.4277 30.132 96.864 29.962 97.2154 29.622C97.578 29.2707 97.7594 28.8457 97.7594 28.347ZM95.9744 35.521C96.5637 35.521 97.0567 35.334 97.4534 34.96C97.85 34.586 98.0484 34.1157 98.0484 33.549C98.0484 32.9937 97.85 32.529 97.4534 32.155C97.0567 31.781 96.5637 31.594 95.9744 31.594H92.6934V35.521H95.9744ZM106.88 29.333C107.64 29.333 108.325 29.4973 108.937 29.826C109.549 30.1547 110.025 30.6137 110.365 31.203C110.705 31.781 110.875 32.4383 110.875 33.175C110.875 34.2743 110.496 35.1867 109.736 35.912C108.988 36.6373 108.036 37 106.88 37H102.528V25.1H104.007V29.333H106.88ZM112.66 25.1H114.139V37H112.66V25.1ZM106.761 35.606C107.521 35.606 108.138 35.3737 108.614 34.909C109.102 34.4443 109.345 33.8607 109.345 33.158C109.345 32.444 109.102 31.8603 108.614 31.407C108.138 30.9423 107.521 30.71 106.761 30.71H104.007V35.606H106.761ZM122.078 29.639C123.189 29.639 124.101 29.9847 124.815 30.676C125.529 31.356 125.886 32.2287 125.886 33.294C125.886 34.3707 125.524 35.2603 124.798 35.963C124.073 36.6543 123.155 37 122.044 37H117.743V25.1H125.019V26.511H119.222V29.639H122.078ZM121.942 35.538C122.645 35.538 123.223 35.3283 123.676 34.909C124.13 34.4897 124.356 33.957 124.356 33.311C124.356 32.6537 124.13 32.121 123.676 31.713C123.234 31.305 122.662 31.101 121.959 31.101H119.222V35.538H121.942ZM129.988 35.572H135.428V37H128.509V25.1H135.241V26.511H129.988V30.2H134.799V31.577H129.988V35.572ZM142.513 25.1C143.635 25.1 144.57 25.4627 145.318 26.188C146.077 26.9133 146.457 27.82 146.457 28.908C146.457 29.996 146.077 30.9027 145.318 31.628C144.57 32.3533 143.635 32.716 142.513 32.716H139.725V37H138.246V25.1H142.513ZM142.428 31.271C143.153 31.271 143.748 31.05 144.213 30.608C144.689 30.1547 144.927 29.588 144.927 28.908C144.927 28.228 144.689 27.667 144.213 27.225C143.748 26.7717 143.153 26.545 142.428 26.545H139.725V31.271H142.428ZM157.173 25.1H158.261V37H156.765V27.939L149.982 37H148.962V25.1H150.441V34.093L157.173 25.1ZM168.597 25.1H176.502V37H173.935V27.497H170.841L170.28 32.648C170.121 34.1213 169.696 35.2207 169.005 35.946C168.325 36.6713 167.361 37.034 166.115 37.034H165.452V34.518H166.132C167.05 34.518 167.577 33.9343 167.713 32.767L168.597 25.1ZM186.172 25.1H188.858L185.492 33.124C184.892 34.5973 184.217 35.6173 183.469 36.184C182.733 36.7507 181.718 37.034 180.426 37.034H179.95V34.637H180.698C181.231 34.637 181.639 34.5577 181.922 34.399C182.206 34.2403 182.466 33.94 182.704 33.498L178.284 25.1H181.174L183.996 30.54L186.172 25.1ZM196.473 25.1H199.04V37H196.473V32.767C195.725 33.039 194.999 33.175 194.297 33.175C193.685 33.175 193.112 33.073 192.58 32.869C192.058 32.6537 191.599 32.359 191.203 31.985C190.817 31.5997 190.511 31.118 190.285 30.54C190.069 29.9507 189.962 29.299 189.962 28.585V25.1H192.546V28.568C192.546 29.316 192.716 29.8827 193.056 30.268C193.407 30.6533 193.906 30.846 194.552 30.846C195.107 30.846 195.747 30.6987 196.473 30.404V25.1ZM213.358 25.1H215.942V37H202.103V25.1H204.687V34.603H207.765V25.1H210.281V34.603H213.358V25.1ZM225.608 25.1H228.294L224.928 33.124C224.328 34.5973 223.653 35.6173 222.905 36.184C222.169 36.7507 221.154 37.034 219.862 37.034H219.386V34.637H220.134C220.667 34.637 221.075 34.5577 221.358 34.399C221.642 34.2403 221.902 33.94 222.14 33.498L217.72 25.1H220.61L223.432 30.54L225.608 25.1ZM239.972 24.845C241.728 24.845 243.173 25.4287 244.307 26.596C245.451 27.7633 246.024 29.248 246.024 31.05C246.024 32.8633 245.457 34.3537 244.324 35.521C243.19 36.677 241.74 37.255 239.972 37.255C238.419 37.255 237.093 36.796 235.994 35.878C234.906 34.9487 234.243 33.7303 234.005 32.223H232.611V37H230.027V25.1H232.611V29.843H234.005C234.254 28.347 234.923 27.14 236.011 26.222C237.099 25.304 238.419 24.845 239.972 24.845ZM239.887 34.807C240.941 34.807 241.796 34.4557 242.454 33.753C243.122 33.0503 243.457 32.1493 243.457 31.05C243.457 29.962 243.122 29.061 242.454 28.347C241.785 27.633 240.929 27.276 239.887 27.276C239.207 27.276 238.595 27.4403 238.051 27.769C237.507 28.0863 237.076 28.534 236.759 29.112C236.453 29.69 236.3 30.336 236.3 31.05C236.3 32.138 236.64 33.039 237.32 33.753C238 34.4557 238.855 34.807 239.887 34.807ZM255.03 25.1H262.935V37H260.368V27.497H257.274L256.713 32.648C256.555 34.1213 256.13 35.2207 255.438 35.946C254.758 36.6713 253.795 37.034 252.548 37.034H251.885V34.518H252.565C253.483 34.518 254.01 33.9343 254.146 32.767L255.03 25.1ZM271.637 37.255C269.824 37.255 268.311 36.6657 267.098 35.487C265.897 34.297 265.296 32.818 265.296 31.05C265.296 29.282 265.897 27.8087 267.098 26.63C268.311 25.44 269.824 24.845 271.637 24.845C272.827 24.845 273.904 25.117 274.867 25.661C275.842 26.1937 276.601 26.936 277.145 27.888C277.689 28.8287 277.961 29.8827 277.961 31.05C277.961 32.8293 277.36 34.3083 276.159 35.487C274.958 36.6657 273.45 37.255 271.637 37.255ZM271.637 34.824C272.34 34.824 272.974 34.6653 273.541 34.348C274.108 34.0193 274.55 33.566 274.867 32.988C275.196 32.41 275.36 31.764 275.36 31.05C275.36 29.9733 275.003 29.078 274.289 28.364C273.586 27.6387 272.702 27.276 271.637 27.276C270.583 27.276 269.693 27.6387 268.968 28.364C268.254 29.078 267.897 29.9733 267.897 31.05C267.897 32.1267 268.254 33.0277 268.968 33.753C269.693 34.467 270.583 34.824 271.637 34.824ZM287.094 25.1V27.497H282.912V37H280.328V25.1H287.094ZM297.175 25.1H299.045V37H296.461V29.843L290.953 37H289.168V25.1H291.752V32.172L297.175 25.1ZM307.566 37.255C306.421 37.255 305.378 36.9887 304.438 36.456C303.497 35.912 302.76 35.1697 302.228 34.229C301.695 33.277 301.429 32.223 301.429 31.067C301.429 29.299 302.012 27.82 303.18 26.63C304.358 25.44 305.82 24.845 307.566 24.845C309.016 24.845 310.269 25.2813 311.323 26.154C312.377 27.0267 313.045 28.1713 313.329 29.588H310.745C310.586 29.1233 310.354 28.721 310.048 28.381C309.742 28.0297 309.373 27.7633 308.943 27.582C308.523 27.3893 308.064 27.293 307.566 27.293C306.557 27.293 305.713 27.6557 305.033 28.381C304.364 29.095 304.03 29.9903 304.03 31.067C304.03 32.1323 304.364 33.022 305.033 33.736C305.713 34.45 306.557 34.807 307.566 34.807C308.348 34.807 309.022 34.586 309.589 34.144C310.155 33.702 310.546 33.1013 310.762 32.342H313.363C313.091 33.8153 312.422 35.0053 311.357 35.912C310.303 36.8073 309.039 37.255 307.566 37.255ZM323.576 25.1V27.497H320.261V37H317.677V27.497H314.379V25.1H323.576ZM333.639 25.1H335.509V37H332.925V29.843L327.417 37H325.632V25.1H328.216V32.172L333.639 25.1ZM348.501 37H345.356L341.157 31.186V37H338.573V25.1H341.157V30.591L345.05 25.1H348.059L343.996 30.795L348.501 37ZM356.682 25.1H359.368L356.002 33.124C355.402 34.5973 354.727 35.6173 353.979 36.184C353.243 36.7507 352.228 37.034 350.936 37.034H350.46V34.637H351.208C351.741 34.637 352.149 34.5577 352.432 34.399C352.716 34.2403 352.976 33.94 353.214 33.498L348.794 25.1H351.684L354.506 30.54L356.682 25.1Z" fill="#099FE5"/>
</svg>
