<svg width="249" height="93" viewBox="0 0 249 93" fill="none" xmlns="http://www.w3.org/2000/svg">
<path d="M1.68435 88.5562C0.966047 87.4832 0.449883 86.2636 0.19034 84.9516L0.680834 84.8546C0.562252 84.2552 0.5 83.6351 0.5 83L0.5 80.7188H0L0 76.1562H0.5L0.5 71.5938H0L0 67.0312H0.5L0.5 62.4688H0L0 57.9062H0.5L0.5 53.3438H0L0 48.7812H0.5L0.5 46.5L0.5 44.2188H0L0 39.6562H0.5L0.5 35.0938H0L0 30.5312H0.5L0.5 25.9688H0L0 21.4062H0.5L0.5 16.8438H0L0 12.2812H0.5L0.5 10C0.5 9.3649 0.562251 8.74483 0.680834 8.14541L0.19034 8.04838C0.449883 6.73643 0.966046 5.51676 1.68435 4.44384L2.09983 4.722C2.79355 3.6858 3.6858 2.79355 4.722 2.09983L4.44384 1.68435C5.51676 0.966046 6.73643 0.449883 8.04838 0.19034L8.14541 0.680834C8.74483 0.562251 9.3649 0.5 10 0.5L12.4892 0.5V0L17.4675 0V0.5L22.4457 0.5V0L27.424 0V0.5L32.4022 0.5V0L37.3805 0V0.5L42.3587 0.5V0L47.337 0V0.5L52.3152 0.5V0L57.2935 0V0.5L62.2718 0.5V0L67.25 0V0.5L72.2283 0.5V0L77.2065 0V0.5L82.1848 0.5V0L87.163 0V0.5L92.1413 0.5V0L97.1196 0V0.5L102.098 0.5V0L107.076 0V0.5L112.054 0.5V0L117.033 0V0.5L122.011 0.5V0L126.989 0V0.5L131.967 0.5V0L136.946 0V0.5L141.924 0.5V0L146.902 0V0.5L151.88 0.5V0L156.859 0V0.5L161.837 0.5V0L166.815 0V0.5L171.793 0.5V0L176.772 0V0.5L181.75 0.5V0L186.728 0V0.5L191.707 0.5V0L196.685 0V0.5L201.663 0.5V0L206.641 0V0.5L211.62 0.5V0L216.598 0V0.5L221.576 0.5V0L226.554 0V0.5L231.533 0.5V0L236.511 0V0.5L239 0.5C239.635 0.5 240.255 0.562252 240.855 0.680835L240.952 0.190341C242.264 0.449884 243.483 0.966048 244.556 1.68435L244.278 2.09983C245.314 2.79355 246.206 3.6858 246.9 4.722L247.316 4.44384C248.034 5.51676 248.55 6.73643 248.81 8.04838L248.319 8.14541C248.438 8.74483 248.5 9.3649 248.5 10V12.2813H249V16.8438H248.5V21.4063H249V25.9688H248.5V30.5313H249V35.0938H248.5V39.6563H249V44.2188H248.5V46.5V48.7813H249V53.3438H248.5V57.9063H249V62.4688H248.5V67.0312H249V71.5938H248.5V76.1562H249V80.7188H248.5V83C248.5 83.6351 248.438 84.2552 248.319 84.8546L248.81 84.9516C248.55 86.2636 248.034 87.4832 247.316 88.5562L246.9 88.278C246.206 89.3142 245.314 90.2065 244.278 90.9002L244.556 91.3157C243.483 92.034 242.264 92.5501 240.952 92.8097L240.855 92.3192C240.255 92.4378 239.635 92.5 239 92.5H236.511V93H231.533V92.5H226.554V93H221.576V92.5H216.598V93H211.62V92.5H206.641V93H201.663V92.5H196.685V93H191.706V92.5H186.728V93H181.75V92.5H176.772V93H171.793V92.5H166.815V93H161.837V92.5H156.859V93H151.88V92.5H146.902V93H141.924V92.5H136.946V93H131.967V92.5H126.989V93H122.011V92.5H117.033V93H112.054V92.5H107.076V93H102.098V92.5H97.1196V93H92.1413V92.5H87.163V93H82.1848V92.5H77.2065V93H72.2283V92.5H67.25V93H62.2717V92.5H57.2935V93H52.3152V92.5H47.337V93H42.3587V92.5H37.3804V93H32.4022V92.5H27.4239V93H22.4457V92.5H17.4674V93H12.4891V92.5H10C9.3649 92.5 8.74484 92.4378 8.14542 92.3192L8.04838 92.8097C6.73644 92.5501 5.51676 92.034 4.44385 91.3157L4.72201 90.9002C3.6858 90.2065 2.79355 89.3142 2.09983 88.278L1.68435 88.5562Z" stroke="#099FE5" stroke-dasharray="5 5"/>
<path d="M53.9927 33.829C54.548 34.067 54.9844 34.4467 55.3017 34.968C55.619 35.4893 55.7777 36.073 55.7777 36.719C55.7777 37.6483 55.432 38.4303 54.7407 39.065C54.0494 39.6883 53.1937 40 52.1737 40H47.4137V28.1H52.1057C53.0804 28.1 53.8794 28.389 54.5027 28.967C55.1374 29.545 55.4547 30.2703 55.4547 31.143C55.4547 31.6757 55.3187 32.1913 55.0467 32.69C54.786 33.1887 54.4347 33.5683 53.9927 33.829ZM53.9417 31.347C53.9417 31.007 53.8567 30.701 53.6867 30.429C53.528 30.157 53.307 29.9473 53.0237 29.8C52.7404 29.6413 52.423 29.562 52.0717 29.562H48.8757V33.132H52.0887C52.61 33.132 53.0464 32.962 53.3977 32.622C53.7604 32.2707 53.9417 31.8457 53.9417 31.347ZM52.1567 38.521C52.746 38.521 53.239 38.334 53.6357 37.96C54.0324 37.586 54.2307 37.1157 54.2307 36.549C54.2307 35.9937 54.0324 35.529 53.6357 35.155C53.239 34.781 52.746 34.594 52.1567 34.594H48.8757V38.521H52.1567ZM63.0627 32.333C63.8221 32.333 64.5077 32.4973 65.1197 32.826C65.7317 33.1547 66.2077 33.6137 66.5477 34.203C66.8877 34.781 67.0577 35.4383 67.0577 36.175C67.0577 37.2743 66.6781 38.1867 65.9187 38.912C65.1707 39.6373 64.2187 40 63.0627 40H58.7107V28.1H60.1897V32.333H63.0627ZM68.8427 28.1H70.3217V40H68.8427V28.1ZM62.9437 38.606C63.7031 38.606 64.3207 38.3737 64.7967 37.909C65.2841 37.4443 65.5277 36.8607 65.5277 36.158C65.5277 35.444 65.2841 34.8603 64.7967 34.407C64.3207 33.9423 63.7031 33.71 62.9437 33.71H60.1897V38.606H62.9437ZM78.2607 32.639C79.3714 32.639 80.2837 32.9847 80.9977 33.676C81.7117 34.356 82.0687 35.2287 82.0687 36.294C82.0687 37.3707 81.7061 38.2603 80.9807 38.963C80.2554 39.6543 79.3374 40 78.2267 40H73.9257V28.1H81.2017V29.511H75.4047V32.639H78.2607ZM78.1247 38.538C78.8274 38.538 79.4054 38.3283 79.8587 37.909C80.3121 37.4897 80.5387 36.957 80.5387 36.311C80.5387 35.6537 80.3121 35.121 79.8587 34.713C79.4167 34.305 78.8444 34.101 78.1417 34.101H75.4047V38.538H78.1247ZM86.1705 38.572H91.6105V40H84.6915V28.1H91.4235V29.511H86.1705V33.2H90.9815V34.577H86.1705V38.572ZM98.695 28.1C99.817 28.1 100.752 28.4627 101.5 29.188C102.259 29.9133 102.639 30.82 102.639 31.908C102.639 32.996 102.259 33.9027 101.5 34.628C100.752 35.3533 99.817 35.716 98.695 35.716H95.907V40H94.428V28.1H98.695ZM98.61 34.271C99.3353 34.271 99.9303 34.05 100.395 33.608C100.871 33.1547 101.109 32.588 101.109 31.908C101.109 31.228 100.871 30.667 100.395 30.225C99.9303 29.7717 99.3353 29.545 98.61 29.545H95.907V34.271H98.61ZM113.355 28.1H114.443V40H112.947V30.939L106.164 40H105.144V28.1H106.623V37.093L113.355 28.1ZM124.779 28.1H132.684V40H130.117V30.497H127.023L126.462 35.648C126.303 37.1213 125.878 38.2207 125.187 38.946C124.507 39.6713 123.544 40.034 122.297 40.034H121.634V37.518H122.314C123.232 37.518 123.759 36.9343 123.895 35.767L124.779 28.1ZM142.355 28.1H145.041L141.675 36.124C141.074 37.5973 140.4 38.6173 139.652 39.184C138.915 39.7507 137.901 40.034 136.609 40.034H136.133V37.637H136.881C137.413 37.637 137.821 37.5577 138.105 37.399C138.388 37.2403 138.649 36.94 138.887 36.498L134.467 28.1H137.357L140.179 33.54L142.355 28.1ZM152.655 28.1H155.222V40H152.655V35.767C151.907 36.039 151.182 36.175 150.479 36.175C149.867 36.175 149.295 36.073 148.762 35.869C148.241 35.6537 147.782 35.359 147.385 34.985C147 34.5997 146.694 34.118 146.467 33.54C146.252 32.9507 146.144 32.299 146.144 31.585V28.1H148.728V31.568C148.728 32.316 148.898 32.8827 149.238 33.268C149.589 33.6533 150.088 33.846 150.734 33.846C151.289 33.846 151.93 33.6987 152.655 33.404V28.1ZM169.54 28.1H172.124V40H158.286V28.1H160.87V37.603H163.947V28.1L166.463 28.1V37.603H169.54V28.1ZM181.791 28.1H184.477L181.111 36.124C180.51 37.5973 179.836 38.6173 179.088 39.184C178.351 39.7507 177.337 40.034 176.045 40.034H175.569V37.637H176.317C176.849 37.637 177.257 37.5577 177.541 37.399C177.824 37.2403 178.085 36.94 178.323 36.498L173.903 28.1H176.793L179.615 33.54L181.791 28.1ZM196.154 27.845C197.911 27.845 199.356 28.4287 200.489 29.596C201.634 30.7633 202.206 32.248 202.206 34.05C202.206 35.8633 201.639 37.3537 200.506 38.521C199.373 39.677 197.922 40.255 196.154 40.255C194.601 40.255 193.275 39.796 192.176 38.878C191.088 37.9487 190.425 36.7303 190.187 35.223H188.793V40H186.209V28.1H188.793V32.843H190.187C190.436 31.347 191.105 30.14 192.193 29.222C193.281 28.304 194.601 27.845 196.154 27.845ZM196.069 37.807C197.123 37.807 197.979 37.4557 198.636 36.753C199.305 36.0503 199.639 35.1493 199.639 34.05C199.639 32.962 199.305 32.061 198.636 31.347C197.967 30.633 197.112 30.276 196.069 30.276C195.389 30.276 194.777 30.4403 194.233 30.769C193.689 31.0863 193.258 31.534 192.941 32.112C192.635 32.69 192.482 33.336 192.482 34.05C192.482 35.138 192.822 36.039 193.502 36.753C194.182 37.4557 195.038 37.807 196.069 37.807ZM74.1083 50.1H82.0133V62H79.4463V52.497H76.3523L75.7913 57.648C75.6327 59.1213 75.2077 60.2207 74.5163 60.946C73.8363 61.6713 72.873 62.034 71.6263 62.034H70.9633V59.518H71.6433C72.5613 59.518 73.0883 58.9343 73.2243 57.767L74.1083 50.1ZM90.715 62.255C88.9016 62.255 87.3886 61.6657 86.176 60.487C84.9746 59.297 84.374 57.818 84.374 56.05C84.374 54.282 84.9746 52.8087 86.176 51.63C87.3886 50.44 88.9016 49.845 90.715 49.845C91.905 49.845 92.9816 50.117 93.945 50.661C94.9196 51.1937 95.679 51.936 96.223 52.888C96.767 53.8287 97.039 54.8827 97.039 56.05C97.039 57.8293 96.4383 59.3083 95.237 60.487C94.0356 61.6657 92.5283 62.255 90.715 62.255ZM90.715 59.824C91.4176 59.824 92.0523 59.6653 92.619 59.348C93.1856 59.0193 93.6276 58.566 93.945 57.988C94.2736 57.41 94.438 56.764 94.438 56.05C94.438 54.9733 94.081 54.078 93.367 53.364C92.6643 52.6387 91.7803 52.276 90.715 52.276C89.661 52.276 88.7713 52.6387 88.046 53.364C87.332 54.078 86.975 54.9733 86.975 56.05C86.975 57.1267 87.332 58.0277 88.046 58.753C88.7713 59.467 89.661 59.824 90.715 59.824ZM106.172 50.1V52.497H101.99V62H99.4061V50.1H106.172ZM116.253 50.1H118.123V62H115.539V54.843L110.031 62H108.246V50.1H110.83V57.172L116.253 50.1ZM126.644 62.255C125.499 62.255 124.456 61.9887 123.516 61.456C122.575 60.912 121.838 60.1697 121.306 59.229C120.773 58.277 120.507 57.223 120.507 56.067C120.507 54.299 121.09 52.82 122.258 51.63C123.436 50.44 124.898 49.845 126.644 49.845C128.094 49.845 129.347 50.2813 130.401 51.154C131.455 52.0267 132.123 53.1713 132.407 54.588H129.823C129.664 54.1233 129.432 53.721 129.126 53.381C128.82 53.0297 128.451 52.7633 128.021 52.582C127.601 52.3893 127.142 52.293 126.644 52.293C125.635 52.293 124.791 52.6557 124.111 53.381C123.442 54.095 123.108 54.9903 123.108 56.067C123.108 57.1323 123.442 58.022 124.111 58.736C124.791 59.45 125.635 59.807 126.644 59.807C127.426 59.807 128.1 59.586 128.667 59.144C129.233 58.702 129.624 58.1013 129.84 57.342H132.441C132.169 58.8153 131.5 60.0053 130.435 60.912C129.381 61.8073 128.117 62.255 126.644 62.255ZM142.654 50.1V52.497H139.339V62H136.755V52.497H133.457V50.1H142.654ZM152.717 50.1H154.587V62H152.003V54.843L146.495 62H144.71V50.1H147.294V57.172L152.717 50.1ZM167.579 62H164.434L160.235 56.186V62H157.651V50.1H160.235V55.591L164.128 50.1H167.137L163.074 55.795L167.579 62ZM175.76 50.1H178.446L175.08 58.124C174.48 59.5973 173.805 60.6173 173.057 61.184C172.321 61.7507 171.306 62.034 170.014 62.034H169.538V59.637H170.286C170.819 59.637 171.227 59.5577 171.51 59.399C171.794 59.2403 172.054 58.94 172.292 58.498L167.872 50.1H170.762L173.584 55.54L175.76 50.1Z" fill="#099FE5"/>
</svg>
