<svg width="171" height="77" viewBox="0 0 171 77" fill="none" xmlns="http://www.w3.org/2000/svg">
<path d="M151.732 7.26842L148.949 12.1232C161.253 18.9287 167.369 33.0154 163.857 46.464C160.346 59.9112 148.085 69.3653 133.967 69.51C127.9 69.5922 121.945 67.9187 116.84 64.6994L64.6441 15.6099C53.2872 3.22045 34.794 0.0564495 19.8432 7.94801C4.8923 15.8382 -2.6509 32.7434 1.56855 48.9001C5.78799 65.0554 20.6806 76.2883 37.6459 76.1093L37.5866 70.5348C23.2096 70.6835 10.597 61.1495 7.04878 47.4521C3.50055 33.7533 9.93898 19.4419 22.6343 12.8034C35.3296 6.16496 50.9917 8.91942 60.5545 19.4727L112.239 68.2465C112.32 68.3218 112.405 68.3917 112.493 68.4588L113.586 69.2612C124.861 76.4016 139.195 76.9529 151.007 70.6994C162.821 64.446 170.248 52.3768 170.398 39.1872C170.549 25.9976 163.399 13.7731 151.732 7.26842Z" fill="white"/>
<path d="M48.417 37.4617C47.6123 35.9769 48.7249 35.0718 48.7923 34.2994C49.1024 30.7365 47.8566 28.5714 46.1768 26.8641C43.4009 24.0377 39.8653 23.5384 37.5546 23.582C31.639 23.6871 29.2642 25.5582 27.474 27.5648C23.75 31.7393 24.5859 35.3615 24.5859 35.3615C24.6986 37.5141 27.7621 41.4014 27.7621 41.4014C30.2067 44.7808 29.0513 47.4197 29.0513 47.4197C33.9269 48.4441 37.9886 55.3816 37.9886 55.3816C38.1536 54.3466 40.4445 49.9579 40.4445 49.9579C41.4085 48.7404 43.0531 49.1463 43.9399 49.2432C46.4826 49.5238 47.1062 48.7822 47.1062 48.7822C47.6575 48.4435 47.38 47.0557 47.38 47.0557C47.1688 46.3392 47.4966 45.9842 47.7008 45.7006C48.2493 44.9294 47.9233 44.578 47.9233 44.578C47.7457 44.3636 47.8622 44.2476 47.8622 44.2476C48.4727 44.0401 48.5138 43.7102 48.5138 43.7102L48.4866 42.6046C48.3772 41.8446 48.7263 41.797 48.7263 41.797C50.1289 41.7558 50.0884 40.8632 50.0884 40.8632C50.1396 40.3728 48.417 37.4617 48.417 37.4617ZM39.4036 38.3002L40.0283 42.339L34.5927 39.069C31.0397 38.8804 28.1543 37.007 27.6732 34.2896C27.0768 30.9351 30.3713 27.5656 35.0294 26.7663C39.6909 25.9649 43.9479 28.0384 44.5446 31.3927C45.0399 34.1817 42.8401 36.9769 39.4036 38.3002Z" fill="white"/>
<path d="M121.426 36.6854C122.199 35.1839 121.067 34.3026 120.983 33.5318C120.598 29.9763 121.797 27.7852 123.44 26.0426C126.155 23.1578 129.679 22.5835 131.991 22.5779C137.907 22.5572 140.321 24.3774 142.154 26.3455C145.965 30.4398 145.207 34.079 145.207 34.079C145.14 36.2335 142.16 40.1851 142.16 40.1851C139.788 43.6157 140.999 46.2294 140.999 46.2294C136.146 47.3572 132.233 54.3795 132.233 54.3795C132.046 53.3483 129.662 49.0092 129.662 49.0092C128.672 47.8126 127.037 48.2533 126.152 48.3691C123.616 48.7036 122.977 47.9755 122.977 47.9755C122.419 47.6485 122.667 46.2552 122.667 46.2552C122.862 45.5344 122.527 45.1865 122.317 44.9073C121.752 44.1479 122.071 43.7896 122.071 43.7896C122.244 43.5715 122.125 43.458 122.125 43.458C121.51 43.2635 121.462 42.9345 121.462 42.9345L121.465 41.8287C121.559 41.0664 121.209 41.0263 121.209 41.0263C119.806 41.0149 119.827 40.1217 119.827 40.1217C119.765 39.6325 121.426 36.6854 121.426 36.6854ZM130.455 37.3321L129.916 41.3832L135.281 37.9984C138.829 37.7343 141.674 35.7999 142.097 33.0729C142.622 29.7066 139.257 26.4079 134.583 25.7078C129.905 25.0057 125.693 27.1692 125.168 30.5355C124.732 33.3343 126.991 36.0821 130.455 37.3321Z" fill="white"/>
<path d="M112.118 12.4765L109.175 7.71034C107.426 8.75684 105.767 9.94388 104.218 11.2589L107.918 15.4807C109.231 14.3676 110.636 13.3622 112.118 12.4765Z" fill="white"/>
<path d="M119.995 2.05327L121.187 7.50332C122.881 7.14572 124.602 6.92734 126.333 6.85032L126.08 1.27978C124.033 1.37005 121.998 1.62937 119.995 2.05327Z" fill="white"/>
<path d="M144.045 3.55778C142.205 2.67521 140.294 1.94561 138.33 1.37665L135.2 6.23537C136.865 6.71669 140.005 7.82448 141.564 8.57105L144.045 3.55778Z" fill="white"/>
<path d="M47.7068 76.1658C49.7406 75.9209 51.749 75.5076 53.7128 74.9313L52.0972 69.5882C50.4315 70.0769 48.7284 70.4271 47.0043 70.6347L47.7068 76.1658Z" fill="white"/>
<path d="M92.513 25.3643L95.3189 20.5187L100.246 23.2746L95.4072 28.8205L92.513 25.3643Z" fill="white"/>
<path d="M68.7196 64.5358L64.6869 60.615C63.4719 61.8271 62.1562 62.9382 60.7534 63.9345L64.0559 68.4525C65.7171 67.2738 67.2771 65.9641 68.7196 64.5358Z" fill="white"/>
<path d="M71.1622 51.5578L74.9806 47.4364L79.1721 51.1895L75.3523 55.3123L71.1622 51.5578Z" fill="white"/>
</svg>
