<svg width="85" height="85" viewBox="0 0 85 85" fill="none" xmlns="http://www.w3.org/2000/svg">
<path d="M1.56543 42.4999C2.03754 46.9291 3.66981 51.1554 6.29688 54.7526C13.2105 64.6455 26.853 72.2497 42.5492 72.2497C58.2461 72.2497 71.8886 64.6455 78.8023 54.7526C81.4293 51.1554 83.0616 46.9291 83.5337 42.4999C83.0616 38.0706 81.4293 33.8444 78.8023 30.2471C71.8886 20.3543 58.2461 12.75 42.5492 12.75C26.853 12.75 13.2105 20.3543 6.29688 30.2471C3.66981 33.8444 2.03754 38.0706 1.56543 42.4999Z" fill="#099FE5" fill-opacity="0.88"/>
<path d="M83.4417 42.5001C82.8911 46.0344 81.2349 49.3028 78.7103 51.8359C71.7895 59.3727 58.147 65.1671 42.4508 65.1671C26.7539 65.1671 13.1114 59.3727 6.19775 51.8359C3.67315 49.3028 2.01688 46.0344 1.46631 42.5001C2.01688 38.9658 3.67315 35.6973 6.19775 33.1643C13.1114 25.6275 26.7539 19.8331 42.4508 19.8331C58.147 19.8331 71.7895 25.6275 78.7031 33.1643C81.2303 35.6967 82.8892 38.9651 83.4417 42.5001Z" fill="#099FE5" fill-opacity="0.88"/>
<path d="M76.5002 42.5001C76.0222 45.9754 74.5125 49.2276 72.1662 51.8359C65.8324 59.3727 53.3358 65.1671 38.9586 65.1671C24.5807 65.1671 12.0841 59.3727 5.75026 51.8359C3.40399 49.2276 1.89494 45.9754 1.41699 42.5001C1.89494 39.0248 3.40399 35.7726 5.75026 33.1643C12.0841 25.6275 24.5807 19.8331 38.9586 19.8331C53.3358 19.8331 65.8324 25.6275 72.1662 33.1643C74.5125 35.7726 76.0222 39.0248 76.5002 42.5001Z" fill="white"/>
<path d="M59.4503 42.4999C59.4503 51.8888 51.8389 59.4996 42.4506 59.4996C33.0616 59.4996 25.4502 51.8888 25.4502 42.4999C25.4502 33.1109 33.0616 25.5001 42.4506 25.5001C51.8389 25.5001 59.4503 33.1109 59.4503 42.4999Z" fill="#099FE5" fill-opacity="0.88"/>
<path d="M8.45064 42.5C8.52846 45.7554 7.75156 48.9739 6.19775 51.8358C3.67315 49.3027 2.01688 46.0343 1.46631 42.5C2.01688 38.9657 3.67315 35.6972 6.19775 33.1642C7.75156 36.026 8.52846 39.2445 8.45064 42.5Z" fill="#099FE5" fill-opacity="0.88"/>
<path d="M83.4272 42.5C82.8766 46.031 81.2256 49.2982 78.71 51.8358C78.0661 50.7398 77.5706 49.5628 77.2366 48.3365C76.1789 44.5174 76.1789 40.4825 77.2366 36.6635C77.5706 35.4372 78.0661 34.2601 78.71 33.1642C81.2256 35.7018 82.8766 38.9689 83.4272 42.5Z" fill="#099FE5" fill-opacity="0.88"/>
<path d="M79.3333 42.5001C79.0687 44.5753 78.3527 46.5674 77.2366 48.3365C76.1789 44.5175 76.1789 40.4826 77.2366 36.6636C78.3527 38.4327 79.0687 40.4249 79.3333 42.5001Z" fill="#099FE5" fill-opacity="0.88"/>
<path d="M48.1175 42.5002C48.1175 45.6299 45.5799 48.1668 42.4509 48.1668C39.3213 48.1668 36.7837 45.6299 36.7837 42.5002C36.7837 39.3705 39.3213 36.8336 42.4509 36.8336C45.5799 36.8336 48.1175 39.3705 48.1175 42.5002Z" fill="#099FE5" fill-opacity="0.88"/>
<path d="M53.784 33.292C53.784 36.03 51.5642 38.2498 48.8256 38.2498C46.087 38.2498 43.8672 36.03 43.8672 33.292C43.8672 30.5534 46.087 28.3336 48.8256 28.3336C51.5642 28.3336 53.784 30.5534 53.784 33.292Z" fill="#B0E2FB"/>
<path d="M1.99351 45.2158C2.77949 48.6489 4.2425 51.8914 6.29694 54.7526C13.2106 64.6455 26.8531 72.2497 42.5493 72.2497C43.2581 72.2497 43.9663 72.2173 44.6744 72.1862C29.8802 71.5416 17.1418 64.1947 10.5472 54.7526C8.49276 51.8914 7.02975 48.6489 6.24312 45.2158C5.96232 44.3319 5.76907 43.422 5.6666 42.4999C5.76907 41.5777 5.96232 40.6679 6.24312 39.784C7.02975 36.3508 8.49276 33.1083 10.5472 30.2471C17.1418 20.805 29.8802 13.4582 44.6744 12.8136C43.9663 12.7824 43.2581 12.75 42.5493 12.75C26.8531 12.75 13.2106 20.3543 6.29694 30.2471C4.2425 33.1083 2.77949 36.3508 1.99351 39.784C1.71206 40.6679 1.51881 41.5777 1.41699 42.4999C1.51881 43.422 1.71206 44.3319 1.99351 45.2158Z" fill="white"/>
<path d="M7.45882 53.9421C10.9471 58.754 15.5125 62.6839 20.7894 65.4173C27.4877 68.9828 34.961 70.8433 42.5491 70.8336V73.6669C34.4967 73.6753 26.5662 71.7006 19.458 67.9166C13.7849 64.9731 8.87968 60.7429 5.13525 55.5647L7.45882 53.9421Z" fill="white"/>
<path d="M5.13792 29.4314C2.74367 32.755 1.12048 36.5701 0.386375 40.6005C0.241112 41.1718 0.131516 41.7529 0.0595322 42.3385C0.0465622 42.4455 0.0465622 42.5544 0.0595322 42.6614C0.126976 43.2107 0.226845 43.7548 0.35849 44.2918C0.366921 44.3274 0.377945 44.3631 0.386375 44.3981C1.11918 48.4272 2.74172 52.2417 5.13533 55.5646C6.27863 57.1671 7.5458 58.6774 8.92516 60.0821C9.18391 60.3609 9.54642 60.5204 9.92644 60.523C10.3071 60.5263 10.6716 60.3726 10.9349 60.0976C11.4647 59.5412 11.4718 58.669 10.9524 58.1028C10.608 57.7617 10.3019 57.3947 9.97897 57.0296C18.1488 62.9484 30.1849 66.5833 42.4506 66.5833C55.0827 66.5833 67.4599 62.7214 75.6388 56.4881C68.089 65.2798 55.4835 70.8335 42.5492 70.8335C34.9611 70.8432 27.4878 68.9833 20.7894 65.4173L19.5813 64.7668C18.9166 64.3848 18.0683 64.6001 17.6669 65.2532C17.4704 65.58 17.4127 65.9724 17.5067 66.342C17.6001 66.7117 17.8381 67.0288 18.1669 67.222L19.4522 67.9166C26.5617 71.7012 34.4948 73.6765 42.5492 73.6668C57.5917 73.6668 72.2783 66.5606 79.961 55.5685C82.7288 51.7657 84.448 47.3008 84.9447 42.6232C84.9259 42.5421 84.9259 42.4578 84.9447 42.3768C84.448 37.7004 82.7301 33.2375 79.9623 29.4353C72.2783 18.4394 57.5917 11.3331 42.5492 11.3331C27.5072 11.3331 12.822 18.4394 5.13792 29.4314ZM7.03349 42.5C7.05489 44.7957 6.66384 47.0771 5.87916 49.2346C5.84479 49.1879 5.80847 49.1425 5.7741 49.0933C5.41159 48.6056 5.07567 48.1153 4.78255 47.6212C4.74429 47.5589 4.71316 47.4966 4.67619 47.4344C4.41744 46.9895 4.18074 46.5317 3.96803 46.0628C3.92264 45.9668 3.87595 45.8702 3.82601 45.7794C3.6159 45.2937 3.43432 44.7963 3.28257 44.2892C3.25533 44.1971 3.23393 44.1063 3.20994 44.0142C3.17881 43.9014 3.16584 43.7892 3.13795 43.6757C3.07635 43.2827 3.02901 42.8917 2.99593 42.5026C3.0329 42.1135 3.08024 41.7224 3.13795 41.3301C3.16584 41.2166 3.17881 41.1044 3.20864 40.9909C3.23393 40.8988 3.25533 40.8087 3.28257 40.7166C3.43367 40.2101 3.61525 39.7134 3.82601 39.2289C3.86881 39.1297 3.9168 39.0305 3.96803 38.9313C4.1749 38.4799 4.41096 38.0292 4.67619 37.5785C4.71575 37.5091 4.75012 37.4365 4.79098 37.3729C5.0854 36.8827 5.41872 36.3957 5.78253 35.9125C5.8182 35.8645 5.85776 35.8159 5.89342 35.7705C6.67227 37.9274 7.05878 40.2069 7.03349 42.5ZM7.94333 51.5835C9.26108 48.7398 9.9193 45.6342 9.86678 42.5C9.91866 39.3651 9.26108 36.2595 7.94333 33.4152C15.2856 26.0041 28.6719 21.25 42.4506 21.25C56.2286 21.25 69.6123 26.0028 76.9572 33.4164C75.6394 36.2608 74.9819 39.3658 75.0337 42.5C74.9819 45.6342 75.6394 48.7392 76.9572 51.5835C69.6162 58.9958 56.2286 63.75 42.4506 63.75C28.6719 63.75 15.2882 58.9971 7.94333 51.5835ZM79.1264 35.9041C79.4876 36.3898 79.8236 36.8814 80.118 37.3742C80.1562 37.4384 80.1874 37.502 80.2243 37.5642C80.4831 38.0091 80.7198 38.4663 80.9325 38.9345C80.9766 39.0305 81.0246 39.1271 81.0661 39.2173C81.2775 39.703 81.4591 40.2004 81.6115 40.7082C81.6381 40.8003 81.6595 40.8904 81.6834 40.9825C81.8067 41.4351 81.9013 41.8949 81.9668 42.3599C81.9668 42.4053 81.9824 42.4487 81.9895 42.4941C81.9967 42.5395 81.9727 42.5836 81.9668 42.629C81.9007 43.094 81.806 43.5538 81.6834 44.0071C81.6582 44.0979 81.6381 44.1887 81.6115 44.2794C81.4597 44.7872 81.2775 45.2853 81.0661 45.771C81.0246 45.8676 80.9779 45.9623 80.9338 46.0544C80.723 46.5122 80.4876 46.9707 80.2256 47.4273C80.1906 47.4895 80.1588 47.5518 80.1206 47.614C79.8236 48.1088 79.4876 48.6056 79.129 49.0861L79.0214 49.2275C77.4838 44.8696 77.4838 40.1161 79.0214 35.7582C79.0499 35.8107 79.092 35.8574 79.1264 35.9041ZM42.5492 14.1664C55.4809 14.1664 68.0851 19.7189 75.6368 28.5119C67.456 22.2785 55.0801 18.4167 42.4506 18.4167C30.1252 18.4167 18.0366 22.0885 9.85835 28.0573C17.449 19.5289 29.8405 14.1664 42.5492 14.1664Z" fill="white"/>
<path d="M14.9005 64.0588C15.0601 63.9629 15.1982 63.8364 15.3085 63.6866C15.5199 63.3799 15.6107 63.0063 15.5646 62.6367C15.4946 62.2806 15.3059 61.9583 15.0296 61.7229C14.7391 61.5005 14.374 61.3993 14.0108 61.4395L13.7462 61.5005C13.6548 61.529 13.5672 61.5692 13.4868 61.6211C13.4045 61.6568 13.3273 61.7048 13.2585 61.7625C13.1872 61.8254 13.1204 61.8922 13.0575 61.9635C12.8221 62.2567 12.7119 62.6308 12.7501 63.005C12.778 63.1924 12.8429 63.3734 12.9401 63.5361C13.2261 64.0504 13.7968 64.3383 14.3804 64.2631C14.5653 64.2287 14.7417 64.16 14.9005 64.0588Z" fill="white"/>
<path d="M42.4509 24.0833C32.2792 24.0833 24.0342 32.3289 24.0342 42.5C24.0342 52.671 32.2792 60.9167 42.4509 60.9167C52.6219 60.9167 60.867 52.671 60.867 42.5C60.8553 32.3335 52.6168 24.0949 42.4509 24.0833ZM46.7005 42.5C46.7005 44.8469 44.7978 46.7502 42.4509 46.7502C40.1033 46.7502 38.2006 44.8469 38.2006 42.5C38.2006 40.153 40.1033 38.2497 42.4509 38.2497C44.7978 38.2497 46.7005 40.153 46.7005 42.5ZM45.2842 33.2919C45.2842 31.3354 46.8698 29.7498 48.8256 29.7498C50.7815 29.7498 52.3671 31.3354 52.3671 33.2919C52.3671 35.2478 50.7815 36.8334 48.8256 36.8334C46.8698 36.8334 45.2842 35.2478 45.2842 33.2919ZM42.4509 58.0834C36.3972 58.1093 30.8765 54.6269 28.2922 49.1529C25.708 43.6783 26.5277 37.203 30.3947 32.5455C34.2617 27.888 40.4762 25.8913 46.3322 27.425C43.196 28.7265 41.6571 32.2803 42.8543 35.4579C42.7129 35.4495 42.5897 35.4164 42.4509 35.4164C39.2985 35.4028 36.5132 37.4644 35.606 40.4831C34.6987 43.5012 35.8855 46.7574 38.5229 48.4837C41.1597 50.21 44.6188 49.9953 47.0222 47.9564C49.4255 45.9175 50.2011 42.5402 48.9274 39.6569C52.3048 39.5979 55.048 36.9106 55.1751 33.5351C58.5375 38.286 58.9675 44.5168 56.2886 49.6847C53.6103 54.8519 48.2712 58.0925 42.4509 58.0834Z" fill="white"/>
<path d="M1.41697 12.7501C2.19906 12.7501 2.83329 12.1159 2.83329 11.3332V4.25026C2.83329 3.46752 3.46752 2.83329 4.25026 2.83329H11.3332C12.1159 2.83329 12.7501 2.19906 12.7501 1.41697C12.7501 0.634232 12.1159 0 11.3332 0H4.25026C1.90269 0 0 1.90269 0 4.25026V11.3332C0 12.1159 0.634232 12.7501 1.41697 12.7501Z" fill="white"/>
<path d="M73.667 2.83329H80.7499C81.5326 2.83329 82.1668 3.46752 82.1668 4.25026V11.3332C82.1668 12.1159 82.8011 12.7501 83.5832 12.7501C84.3659 12.7501 85.0001 12.1159 85.0001 11.3332V4.25026C85.0001 1.90269 83.0974 0 80.7499 0H73.667C72.8842 0 72.25 0.634232 72.25 1.41697C72.25 2.19906 72.8842 2.83329 73.667 2.83329Z" fill="white"/>
<path d="M4.25026 85.0001H11.3332C12.1159 85.0001 12.7501 84.3659 12.7501 83.5832C12.7501 82.8011 12.1159 82.1668 11.3332 82.1668H4.25026C3.46752 82.1668 2.83329 81.5326 2.83329 80.7499V73.667C2.83329 72.8842 2.19906 72.25 1.41697 72.25C0.634232 72.25 0 72.8842 0 73.667V80.7499C0 83.0974 1.90269 85.0001 4.25026 85.0001Z" fill="white"/>
<path d="M73.667 85.0001H80.7499C83.0974 85.0001 85.0001 83.0974 85.0001 80.7499V73.667C85.0001 72.8842 84.3659 72.25 83.5832 72.25C82.8011 72.25 82.1668 72.8842 82.1668 73.667V80.7499C82.1668 81.5326 81.5326 82.1668 80.7499 82.1668H73.667C72.8842 82.1668 72.25 82.8011 72.25 83.5832C72.25 84.3659 72.8842 85.0001 73.667 85.0001Z" fill="white"/>
<path d="M9.49135 5.66638C7.38113 5.67222 5.67234 7.38101 5.6665 9.49123V12.7499C5.6665 13.532 6.30074 14.1663 7.08347 14.1663C7.86556 14.1663 8.49979 13.532 8.49979 12.7499V9.49123C8.49979 8.94389 8.94402 8.49967 9.49135 8.49967H12.7501C13.5321 8.49967 14.1664 7.86544 14.1664 7.08335C14.1664 6.30061 13.5321 5.66638 12.7501 5.66638H9.49135Z" fill="white"/>
<path d="M72.2498 8.49967H75.5085C76.0559 8.49967 76.5001 8.94389 76.5001 9.49123V12.7499C76.5001 13.532 77.1343 14.1663 77.9164 14.1663C78.6991 14.1663 79.3334 13.532 79.3334 12.7499V9.49123C79.3275 7.38101 77.6187 5.67222 75.5085 5.66638H72.2498C71.4677 5.66638 70.8335 6.30061 70.8335 7.08335C70.8335 7.86544 71.4677 8.49967 72.2498 8.49967Z" fill="white"/>
<path d="M7.08347 70.8336C6.30074 70.8336 5.6665 71.4678 5.6665 72.2499V75.5086C5.67234 77.6189 7.38113 79.3277 9.49135 79.3335H12.7501C13.5321 79.3335 14.1664 78.6993 14.1664 77.9165C14.1664 77.1344 13.5321 76.5002 12.7501 76.5002H9.49135C8.94402 76.5002 8.49979 76.056 8.49979 75.5086V72.2499C8.49979 71.4678 7.86556 70.8336 7.08347 70.8336Z" fill="white"/>
<path d="M79.3334 75.5086V72.2499C79.3334 71.4678 78.6991 70.8336 77.9164 70.8336C77.1343 70.8336 76.5001 71.4678 76.5001 72.2499V75.5086C76.5001 76.056 76.0559 76.5002 75.5085 76.5002H72.2498C71.4677 76.5002 70.8335 77.1344 70.8335 77.9165C70.8335 78.6993 71.4677 79.3335 72.2498 79.3335H75.5085C77.6187 79.3277 79.3275 77.6189 79.3334 75.5086Z" fill="white"/>
</svg>
