<svg width="171" height="169" viewBox="0 0 171 169" fill="none" xmlns="http://www.w3.org/2000/svg">
<path d="M78.1144 4.75521L82.7043 2.11564L82.9536 2.54909L85.0017 1.37129L87.0594 2.53246L87.3051 2.09701L91.9166 4.69931L91.6709 5.13476L96.2824 7.73706L96.5281 7.30161L101.14 9.90391L100.894 10.3394L105.506 12.9417L105.751 12.5062L110.363 15.1085L110.117 15.544L114.729 18.1463L114.974 17.7108L119.586 20.3131L119.34 20.7486L123.952 23.3509L124.197 22.9154L128.809 25.5177L128.563 25.9532L133.175 28.5555L133.42 28.12L138.032 30.7223L137.786 31.1578L142.398 33.7601L142.643 33.3246L147.255 35.9269L147.009 36.3624L151.621 38.9647L151.867 38.5292L156.478 41.1315L156.232 41.567L158.285 42.7253L158.295 45.0556L158.795 45.0536L158.816 50.2955L158.316 50.2975L158.338 55.5394L158.838 55.5374L158.86 60.7792L158.36 60.7813L158.381 66.0231L158.881 66.0211L158.903 71.263L158.403 71.265L158.424 76.5069L158.924 76.5049L158.946 81.7467L158.446 81.7488L158.468 86.9906L158.968 86.9886L158.989 92.2305L158.489 92.2325L158.511 97.4744L159.011 97.4723L159.033 102.714L158.533 102.716L158.554 107.958L159.054 107.956L159.076 113.198L158.576 113.2L158.597 118.442L159.097 118.44L159.119 123.682L158.619 123.684L158.629 126.014L156.586 127.189L156.835 127.622L152.245 130.262L151.996 129.829L147.406 132.468L147.655 132.902L143.065 135.541L142.816 135.108L138.226 137.747L138.475 138.181L133.885 140.82L133.636 140.387L129.046 143.026L129.295 143.46L124.706 146.099L124.456 145.666L119.866 148.306L120.116 148.739L115.526 151.379L115.276 150.945L110.687 153.585L110.936 154.018L106.346 156.658L106.097 156.224L101.507 158.864L101.756 159.297L97.1661 161.937L96.9168 161.503L92.3269 164.143L92.5762 164.576L87.9863 167.216L87.737 166.783L85.6889 167.96L83.6313 166.799L83.3855 167.235L78.774 164.632L79.0197 164.197L74.4082 161.595L74.1625 162.03L69.5509 159.428L69.7966 158.992L65.1851 156.39L64.9394 156.825L60.3279 154.223L60.5736 153.788L55.962 151.185L55.7163 151.621L51.1048 149.019L51.3505 148.583L46.739 145.981L46.4933 146.416L41.8817 143.814L42.1274 143.378L37.5159 140.776L37.2702 141.212L32.6587 138.609L32.9044 138.174L28.2928 135.572L28.0471 136.007L23.4356 133.405L23.6813 132.969L19.0698 130.367L18.8241 130.802L14.2125 128.2L14.4582 127.765L12.4056 126.606L12.3959 124.276L11.8959 124.278L11.8743 119.036L12.3743 119.034L12.3527 113.792L11.8527 113.794L11.8311 108.552L12.3311 108.55L12.3094 103.308L11.8094 103.311L11.7878 98.0686L12.2878 98.0666L12.2662 92.8247L11.7662 92.8268L11.7446 87.5849L12.2446 87.5829L12.2229 82.341L11.7229 82.343L11.7013 77.1012L12.2013 77.0991L12.1797 71.8573L11.6797 71.8593L11.6581 66.6174L12.1581 66.6154L12.1364 61.3735L11.6364 61.3755L11.6148 56.1337L12.1148 56.1316L12.0932 50.8898L11.5932 50.8918L11.5716 45.6499L12.0716 45.6479L12.0619 43.3176L14.105 42.1426L13.8557 41.7092L18.4456 39.0696L18.6949 39.5031L23.2848 36.8635L23.0355 36.4301L27.6254 33.7905L27.8747 34.2239L32.4646 31.5844L32.2153 31.1509L36.8053 28.5114L37.0545 28.9448L41.6445 26.3052L41.3952 25.8718L45.9851 23.2322L46.2344 23.6656L50.8243 21.0261L50.575 20.5926L55.1649 17.9531L55.4142 18.3865L60.0041 15.7469L59.7548 15.3135L64.3447 12.6739L64.594 13.1074L69.1839 10.4678L68.9346 10.0344L73.5245 7.39478L73.7738 7.82823L78.3637 5.18866L78.1144 4.75521Z" stroke="#585858" stroke-opacity="0.3" stroke-dasharray="5 5"/>
<path d="M84.9994 15.735L145.763 50.0242L146.048 119.094L85.5693 153.874L24.8056 119.585L24.5206 50.5153L84.9994 15.735Z" fill="#099FE5" fill-opacity="0.03"/>
<path d="M25.0218 50.8038L85.0018 16.3105L145.264 50.3168L145.547 118.805L85.5669 153.298L25.3044 119.292L25.0218 50.8038Z" stroke="#099FE5" stroke-opacity="0.4"/>
<g clip-path="url(#clip0)">
<path d="M84.2914 85.7866L71.052 91.8335L61.8812 87.6246L71.9046 82.9762L70.1953 79.2902L56.177 85.7913C55.4579 86.1252 54.9986 86.8465 55 87.6388C55.0014 88.4318 55.4638 89.1503 56.1844 89.4815L70.2027 95.9149C70.4715 96.0382 70.7607 96.0999 71.0498 96.0999C71.3377 96.0999 71.6262 96.0382 71.8936 95.9156L85.9796 89.4822L84.2914 85.7866Z" fill="#099FE5"/>
<path d="M84.2846 102.517L71.0519 108.624L59.0633 103.064V87.6346H55V104.362C55 105.153 55.4591 105.873 56.177 106.205L70.1952 112.706C70.4661 112.832 70.7579 112.894 71.0498 112.894C71.3403 112.894 71.6316 112.832 71.9018 112.707L85.9878 106.206L84.2846 102.517Z" fill="#099FE5"/>
<path d="M73.0816 94.4068H69.0183V110.66H73.0816V94.4068Z" fill="#099FE5"/>
<path d="M113.823 85.7913L99.8056 79.2902L98.0957 82.9762L108.119 87.6246L98.9491 91.8335L85.709 85.7873L84.0208 89.4829L98.1073 95.9163C98.3749 96.0382 98.6627 96.0999 98.9511 96.0999C99.2403 96.0999 99.5301 96.0382 99.7975 95.9149L113.815 89.4815C114.536 89.1503 114.998 88.4318 115 87.6388C115.001 86.8465 114.542 86.1245 113.823 85.7913Z" fill="#099FE5"/>
<path d="M110.937 87.6346V103.065L98.949 108.625L85.7164 102.518L84.0132 106.207L98.0997 112.708C98.37 112.832 98.6605 112.895 98.951 112.895C99.2429 112.895 99.5354 112.832 99.8057 112.706L113.823 106.205C114.541 105.872 115 105.153 115 104.362V87.6346H110.937Z" fill="#099FE5"/>
<path d="M100.982 94.4068H96.9192V110.66H100.982V94.4068Z" fill="#099FE5"/>
<path d="M99.8733 62.6986L85.8551 56.1974C85.3133 55.9462 84.6882 55.9462 84.1457 56.1974L70.1275 62.6986C69.4083 63.0325 68.9485 63.753 68.9504 64.5459C68.9524 65.339 69.415 66.0582 70.1349 66.3886L84.1531 72.8221C84.422 72.9453 84.7112 73.007 85.0003 73.007C85.2894 73.007 85.5786 72.9453 85.8474 72.8221L99.8658 66.3886C100.586 66.0575 101.049 65.339 101.05 64.5459C101.052 63.7529 100.593 63.0325 99.8733 62.6986ZM85.0004 68.7399L75.8317 64.5324L85.0004 60.2803L94.1691 64.5325L85.0004 68.7399Z" fill="#099FE5"/>
<path d="M96.9868 64.5419V79.9715L85.0003 85.5306L73.0137 79.9714V64.5419H68.9504V81.269C68.9504 82.06 69.4096 82.7792 70.1275 83.1117L84.1457 89.6136C84.4167 89.7388 84.7085 89.8019 85.0004 89.8019C85.2923 89.8019 85.5841 89.7389 85.8551 89.6143L99.874 83.1124C100.591 82.7792 101.05 82.06 101.05 81.269V64.5419H96.9868Z" fill="#099FE5"/>
<path d="M87.032 71.3139H82.9688V104.429H87.032V71.3139Z" fill="#099FE5"/>
</g>
<defs>
<clipPath id="clip0">
<rect width="60" height="60" fill="white" transform="translate(55 54.4517)"/>
</clipPath>
</defs>
</svg>
