<svg width="110" height="110" viewBox="0 0 110 110" fill="none" xmlns="http://www.w3.org/2000/svg">
<g clip-path="url(#clip0)">
<path d="M63.1742 48.4235C62.881 48.6 62.5878 48.7856 62.2916 48.9591C61.9984 49.1326 61.7022 49.2762 61.4089 49.4408C61.9026 49.6143 62.3903 49.7699 62.872 49.9195C62.9828 49.4378 63.0785 48.9322 63.1742 48.4235ZM69.67 38.0471C69.308 38.3792 68.9639 38.7173 68.5719 39.0554C68.5779 38.7203 68.5929 38.3792 68.5929 38.0471C68.5929 37.7119 68.5779 37.3708 68.5719 37.0387C68.9639 37.3738 69.308 37.7119 69.67 38.0471ZM49.1116 49.9195C49.0039 49.4378 48.9081 48.9322 48.8094 48.4235C49.1056 48.6 49.3868 48.7826 49.692 48.9561C49.9853 49.1296 50.2725 49.2733 50.5747 49.4378C50.084 49.6114 49.5963 49.7669 49.1116 49.9195ZM62.8122 26.1925C62.9229 26.6712 63.0306 27.144 63.1264 27.6377C62.8481 27.4701 62.5728 27.2996 62.2916 27.135C61.9984 26.9645 61.7022 26.8209 61.4089 26.6533C61.8817 26.4917 62.3514 26.3361 62.8122 26.1925ZM50.3772 21.86C52.0228 17.3689 54.1951 14.8556 55.9933 14.8556C57.7078 14.8556 59.7184 17.1715 61.2384 20.9026C61.3611 21.2048 61.4478 21.5608 61.5615 21.869C59.7483 22.4315 57.8843 23.1227 55.9933 23.9515C54.0844 23.1257 52.2054 22.4195 50.3772 21.86ZM42.3465 38.0471C42.6996 37.7209 43.0407 37.3948 43.4147 37.0746C43.4087 37.3978 43.3938 37.7239 43.3938 38.0471C43.3938 38.3672 43.4087 38.6963 43.4147 39.0195C43.0407 38.6993 42.6936 38.3702 42.3465 38.0471ZM55.9933 28.9003C57.3457 29.5496 58.7041 30.2438 60.0505 31.0187C61.4418 31.8266 62.7135 32.6464 63.9253 33.4752C64.039 34.9652 64.1048 36.4882 64.1048 38.0441C64.1048 39.6388 64.039 41.1558 63.9282 42.6069C62.7135 43.4328 61.4418 44.2616 60.0475 45.0634C58.7011 45.8414 57.3427 46.5355 55.9903 47.1818C54.6379 46.5355 53.2795 45.8384 51.9391 45.0634C50.5896 44.2825 49.2911 43.4627 48.0584 42.6159C47.9507 41.1618 47.8759 39.6418 47.8759 38.0441C47.8759 36.4463 47.9417 34.9263 48.0584 33.4692C49.2911 32.6225 50.5867 31.7996 51.9361 31.0217C53.2825 30.2468 54.6379 29.5496 55.9933 28.9003ZM50.5777 26.6533C50.2755 26.8209 49.9882 26.9645 49.695 27.135C49.3898 27.3116 49.1086 27.4911 48.8124 27.6706C48.9051 27.1619 49.0009 26.6533 49.1146 26.1776C49.5963 26.3272 50.084 26.4857 50.5777 26.6533ZM40.9642 24.7294C42.1461 24.7294 43.4446 24.867 44.812 25.1094C44.3781 26.9944 44.043 28.9692 43.8097 30.9888C42.1491 32.2125 40.6111 33.4812 39.2079 34.7827C38.9984 34.5284 38.7321 34.2711 38.5287 34.0168C36.0572 30.8392 35.0519 27.9399 35.9106 26.4558C36.5419 25.3577 38.3821 24.7294 40.9642 24.7294ZM68.18 31.0067C67.9466 28.9781 67.6115 26.9974 67.1776 25.1064C68.542 24.867 69.8376 24.7294 71.0194 24.7294C73.5986 24.7294 75.4417 25.3577 76.073 26.4558C76.9706 28.0117 75.8426 31.1534 72.7788 34.8186C71.3635 33.5021 69.8226 32.2275 68.18 31.0067ZM39.2049 41.3114C40.6081 42.6099 42.1431 43.8786 43.8037 45.1023C44.037 47.128 44.3722 49.0997 44.803 50.9877C43.4356 51.2271 42.1371 51.3677 40.9612 51.3677C38.385 51.3677 36.5389 50.7424 35.9106 49.6443C35.0519 48.1572 36.0542 45.2609 38.5287 42.0803C38.7291 41.823 38.9924 41.5687 39.2049 41.3114ZM11.6181 60.2332C11.6181 60.2332 11.5134 63.315 16.2887 63.4107C16.2887 63.4107 17.4736 63.5693 17.1295 66.1993L17.0756 70.0232C17.0756 70.0232 17.2282 71.1631 19.3137 71.8543C19.3137 71.8543 19.7116 72.2523 19.1162 73.0033C19.1162 73.0033 18.0241 74.227 19.9181 76.875C20.6122 77.8444 21.7492 79.0592 21.058 81.5486C21.058 81.5486 20.1634 86.3538 22.0514 87.5088C22.0514 87.5088 24.1967 90.058 32.8348 88.9868C35.8568 88.6158 41.425 87.1587 44.7492 91.3266C44.7492 91.3266 52.6961 106.422 53.2945 109.994C53.2945 109.994 66.8515 85.8571 83.4006 82.132C83.4006 82.132 79.3732 73.0452 87.5685 61.2684C87.5685 61.2684 97.8492 47.7084 98.1514 40.2612C98.1514 40.2612 100.862 27.7095 88.0472 13.3985C81.8836 6.52573 73.7392 0.140675 53.6176 4.87039e-05C45.7575 -0.0627845 33.7533 1.79828 24.4151 11.6691C18.7601 17.6322 14.6042 25.1692 15.789 37.4816C16.0463 40.1565 19.8552 43.2472 17.1803 48.4056C17.1773 48.4145 11.4236 58.5456 11.6181 60.2332ZM36.0423 38.0471C35.6772 37.6192 35.3122 37.1973 34.9831 36.7724C31.1981 31.9074 30.1539 27.4462 32.0239 24.2088C33.0682 22.4016 35.4618 20.2413 40.9582 20.2413C42.529 20.2413 44.2465 20.4268 46.0357 20.7679C48.1511 14.6731 51.4992 10.3675 55.9903 10.3675C60.4814 10.3675 63.8295 14.6701 65.9419 20.7679C67.7341 20.4298 69.4396 20.2443 71.0164 20.2443C76.5098 20.2443 78.9125 22.4016 79.9567 24.2118C82.2037 28.1044 80.1422 33.164 75.9084 38.0471C80.1392 42.9301 82.2037 47.9897 79.9567 51.8853C78.9095 53.6925 76.5098 55.8558 71.0164 55.8558C69.4396 55.8558 67.7341 55.6673 65.9419 55.3262C63.8265 61.418 60.4784 65.7266 55.9903 65.7266C51.5022 65.7266 48.1511 61.424 46.0357 55.3262C44.2405 55.6643 42.532 55.8558 40.9582 55.8558C35.4678 55.8558 33.0622 53.6955 32.0239 51.8913C30.1539 48.6539 31.2041 44.1927 34.9831 39.3277C35.3122 38.8968 35.6772 38.4719 36.0423 38.0471ZM61.6094 54.2371C59.9638 58.7252 57.7945 61.2325 55.9933 61.2385V63.4825V61.2385C54.1921 61.2385 52.0199 58.7252 50.3772 54.2371C52.2054 53.6746 54.0844 52.9684 55.9933 52.1367C57.8993 52.9684 59.7813 53.6716 61.6094 54.2371ZM72.7817 41.2725C75.8426 44.9378 76.9736 48.0794 76.076 49.6383C75.4417 50.7334 73.5986 51.3617 71.0224 51.3617C69.8435 51.3617 68.545 51.2211 67.1836 50.9847C67.6175 49.0907 67.9526 47.11 68.1859 45.0814C69.8226 43.8666 71.3635 42.589 72.7817 41.2725Z" fill="white"/>
</g>
<defs>
<clipPath id="clip0">
<rect width="110" height="110" fill="white" transform="matrix(-1 0 0 1 110 0)"/>
</clipPath>
</defs>
</svg>
