<svg width="230" height="211" viewBox="0 0 230 211" fill="none" xmlns="http://www.w3.org/2000/svg">
<path d="M27.4909 105.878L71.6807 32.3408H158.319L202.509 105.878L158.323 177.738H71.6774L27.4909 105.878Z" stroke="#099FE5" stroke-opacity="0.1"/>
<path d="M115.947 21.0341L191.469 62.2609L190.847 147.415L114.052 189.045L38.5311 147.818L38.263 64.1205L115.947 21.0341Z" fill="#F8FCFE"/>
<path d="M38.7743 64.3963L115.939 21.5983L190.956 62.5501L190.339 147.135L114.064 188.482L39.0406 147.527L38.7743 64.3963Z" stroke="#099FE5" stroke-opacity="0.2"/>
<path d="M142.194 103.789C142.194 115.907 131.414 125.768 118.067 125.768C104.719 125.768 93.9395 115.907 93.9395 103.789C93.9395 91.6716 104.719 81.8101 118.067 81.8101C131.414 81.8101 142.194 91.6716 142.194 103.789Z" stroke="#099FE5" stroke-opacity="0.4" stroke-width="0.5"/>
<path d="M104.253 85.6354C114.887 77.099 127.817 76.7438 136.899 79.9233" stroke="#099FE5" stroke-opacity="0.4" stroke-width="0.5"/>
<path d="M122.774 125.446C109.231 129.241 97.2836 125.282 90.439 118.979" stroke="#099FE5" stroke-opacity="0.4" stroke-width="0.5"/>
<path d="M150.32 103.789C150.32 119.999 135.902 133.178 118.067 133.178C100.231 133.178 85.8135 119.999 85.8135 103.789C85.8135 87.5794 100.231 74.4004 118.067 74.4004C135.902 74.4004 150.32 87.5794 150.32 103.789Z" stroke="#099FE5" stroke-opacity="0.4" stroke-width="0.5"/>
<path d="M86.7826 111.199C80.5643 93.6783 91.0763 73.9928 110.29 68.3225" stroke="#099FE5" stroke-opacity="0.4" stroke-width="0.5"/>
<ellipse rx="2.01515" ry="1.87013" transform="matrix(0.959106 -0.283046 0.334473 0.942405 111.575 68.3327)" fill="#099FE5"/>
<path d="M150.164 100.455C153.82 120.09 142.653 137.545 122.536 139.726" stroke="#099FE5" stroke-opacity="0.4" stroke-width="0.5"/>
<ellipse rx="2.03575" ry="1.88188" transform="matrix(-0.994021 0.107769 -0.126567 -0.99214 121.954 139.96)" fill="#099FE5"/>
<path d="M115.166 117.789C106.803 116.979 100.782 110.149 101.665 102.575C102.547 95.0007 110.008 89.4765 118.371 90.2868C126.734 91.097 132.755 97.9273 131.872 105.501C130.99 113.075 123.53 118.6 115.166 117.789Z" stroke="#099FE5" stroke-opacity="0.4" stroke-width="0.5"/>
<path d="M130.101 97.5989C138.381 103.419 137.162 114.163 132.287 121.572" stroke="#099FE5" stroke-opacity="0.4" stroke-width="0.5"/>
<path d="M107.097 93.4155C112.785 86.0059 125.38 84.5242 133.1 86.747" stroke="#099FE5" stroke-opacity="0.4" stroke-width="0.5"/>
<g filter="url(#filter0_d)">
<path d="M116.203 110.97C116.391 110.623 116.565 110.263 116.719 109.889C116.873 109.514 117.003 109.137 117.114 108.757C116.245 108.409 115.669 107.501 115.758 106.486C115.847 105.47 116.574 104.663 117.493 104.454C117.405 103.659 117.234 102.879 116.98 102.131C116.071 102.381 115.082 102.005 114.577 101.139C114.072 100.272 114.208 99.1855 114.842 98.4607C114.326 97.8854 113.746 97.3632 113.102 96.912C112.5 97.6667 111.476 97.9671 110.569 97.5806C109.662 97.194 109.155 96.2412 109.262 95.2756C108.494 95.1247 107.721 95.0702 106.956 95.0998C106.892 96.0673 106.225 96.928 105.264 97.1698C104.302 97.4114 103.346 96.9582 102.884 96.123C102.181 96.4635 101.515 96.8864 100.896 97.3812C101.393 98.1936 101.338 99.2863 100.688 100.063C100.039 100.841 98.9983 101.059 98.1452 100.672C97.9567 101.019 97.783 101.379 97.6288 101.753C97.4746 102.127 97.3444 102.505 97.2333 102.885C98.1028 103.233 98.679 104.14 98.5898 105.156C98.5004 106.172 97.7734 106.979 96.8551 107.187C96.9423 107.983 97.1134 108.762 97.3673 109.511C98.2766 109.261 99.2655 109.636 99.77 110.503C100.275 111.369 100.139 112.456 99.5055 113.181C100.021 113.756 100.601 114.278 101.246 114.73C101.848 113.975 102.871 113.675 103.778 114.061C104.685 114.448 105.193 115.401 105.086 116.366C105.854 116.517 106.627 116.572 107.391 116.542C107.456 115.575 108.122 114.714 109.084 114.472C110.045 114.231 111.002 114.683 111.464 115.519C112.166 115.178 112.833 114.756 113.452 114.261C112.954 113.448 113.01 112.355 113.659 111.578C114.309 110.802 115.349 110.583 116.203 110.97ZM105.742 109.296C103.897 108.509 103.042 106.316 103.833 104.397C104.624 102.478 106.761 101.56 108.606 102.346C110.451 103.132 111.305 105.326 110.515 107.245C109.724 109.163 107.587 110.082 105.742 109.296Z" fill="#099FE5"/>
<path d="M115.262 106.437L115.262 106.437C115.168 107.503 115.678 108.483 116.513 109.009C116.436 109.238 116.352 109.466 116.259 109.693C116.166 109.919 116.065 110.14 115.957 110.357C115.003 110.12 113.959 110.438 113.278 111.253L113.278 111.253C112.594 112.07 112.45 113.18 112.823 114.111C112.439 114.394 112.038 114.648 111.624 114.872C110.997 114.107 109.98 113.729 108.96 113.985L108.96 113.985C107.935 114.242 107.192 115.068 106.963 116.048C106.507 116.046 106.049 116.013 105.592 115.945C105.532 114.945 104.941 114.013 103.969 113.599C102.997 113.185 101.929 113.41 101.186 114.067C100.818 113.784 100.474 113.475 100.153 113.145C100.679 112.292 100.737 111.175 100.199 110.251C99.6631 109.332 98.6841 108.86 97.7087 108.942C97.5747 108.484 97.4723 108.015 97.4017 107.538C98.3155 107.156 98.9916 106.274 99.0857 105.204L99.0857 105.204C99.1793 104.139 98.6697 103.159 97.8349 102.634C97.9112 102.404 97.9955 102.175 98.0887 101.949C98.182 101.723 98.2829 101.502 98.3904 101.285C99.3443 101.522 100.389 101.204 101.07 100.389C101.753 99.5711 101.898 98.462 101.525 97.5313C101.909 97.2481 102.309 96.9935 102.724 96.7697C103.351 97.5344 104.368 97.9134 105.388 97.6571L105.388 97.657C106.413 97.3994 107.155 96.5738 107.384 95.5942C107.841 95.5954 108.299 95.6286 108.755 95.6967C108.816 96.6966 109.407 97.6286 110.379 98.0429C111.351 98.4571 112.418 98.2319 113.162 97.5747C113.53 97.8579 113.874 98.1665 114.195 98.4966C113.669 99.3496 113.611 100.467 114.149 101.391L114.149 101.391C114.684 102.31 115.663 102.781 116.639 102.7C116.773 103.158 116.875 103.627 116.946 104.103C116.032 104.485 115.356 105.368 115.262 106.437ZM103.373 104.201C102.483 106.36 103.438 108.857 105.552 109.758C107.665 110.659 110.085 109.6 110.975 107.441C111.864 105.281 110.91 102.785 108.796 101.884C106.682 100.983 104.263 102.042 103.373 104.201Z" stroke="#099FE5"/>
</g>
<g filter="url(#filter1_d)">
<path d="M151.387 83.6237C151.165 83.0024 150.912 82.3868 150.619 81.7797C150.326 81.1726 150.003 80.5917 149.655 80.0335C148.272 80.76 146.518 80.4972 145.361 79.269C144.205 78.0405 144.007 76.2289 144.758 74.8304C143.68 74.0681 142.529 73.4306 141.326 72.9324C140.637 74.3657 139.087 75.2121 137.463 74.9045C135.838 74.5964 134.646 73.2304 134.446 71.628C133.17 71.6534 131.888 71.8192 130.623 72.1449C130.894 73.7396 130.141 75.3731 128.668 76.104C127.194 76.8351 125.461 76.4352 124.386 75.2392C123.356 76.052 122.44 76.9766 121.637 77.9832C122.761 79.1268 123.092 80.9201 122.335 82.4099C121.577 83.8999 119.967 84.6208 118.429 84.2922C118.077 85.5609 117.868 86.8737 117.799 88.2052C119.349 88.4631 120.637 89.7333 120.883 91.413C121.13 93.0933 120.257 94.6582 118.843 95.3201C119.064 95.9407 119.317 96.5565 119.61 97.1636C119.903 97.7707 120.227 98.3514 120.574 98.9102C121.958 98.1839 123.711 98.4461 124.867 99.6744C126.024 100.903 126.222 102.715 125.471 104.113C126.549 104.875 127.699 105.513 128.903 106.011C129.592 104.578 131.142 103.731 132.766 104.039C134.39 104.347 135.582 105.713 135.782 107.315C137.059 107.29 138.341 107.124 139.606 106.798C139.335 105.204 140.088 103.571 141.561 102.84C143.035 102.109 144.768 102.509 145.843 103.704C146.872 102.891 147.789 101.967 148.592 100.961C147.468 99.8172 147.137 98.0231 147.894 96.5334C148.652 95.0441 150.262 94.3226 151.8 94.651C152.151 93.383 152.361 92.0703 152.43 90.7386C150.88 90.4808 149.592 89.2099 149.345 87.5303C149.1 85.851 149.972 84.2855 151.387 83.6237ZM137.833 95.1086C134.836 96.5953 131.189 95.2767 129.688 92.1638C128.187 89.051 129.399 85.3214 132.396 83.8346C135.393 82.3478 139.04 83.6665 140.541 86.7794C142.042 89.8923 140.83 93.6217 137.833 95.1086Z" fill="#099FE5"/>
<path d="M144.999 79.6161L144.999 79.6162C146.191 80.882 147.955 81.2479 149.457 80.6713C149.711 81.1013 149.95 81.5442 150.171 82.0019C150.392 82.4597 150.59 82.923 150.769 83.391C149.397 84.2398 148.6 85.8763 148.853 87.607L148.853 87.6073C149.108 89.3417 150.347 90.6945 151.906 91.1357C151.831 92.1371 151.674 93.125 151.434 94.0877C149.833 93.94 148.238 94.7603 147.452 96.3064L147.452 96.3066C146.663 97.8576 146.916 99.6882 147.937 100.975C147.315 101.716 146.629 102.406 145.878 103.033C144.659 101.946 142.884 101.626 141.344 102.389C139.805 103.153 138.964 104.771 139.061 106.415C138.112 106.631 137.154 106.757 136.196 106.8C135.821 105.192 134.552 103.866 132.861 103.546C131.175 103.226 129.558 104 128.689 105.372C127.792 104.973 126.927 104.492 126.101 103.937C126.715 102.419 126.423 100.596 125.229 99.3273L125.229 99.3273C124.038 98.0613 122.275 97.696 120.772 98.2724C120.518 97.8421 120.279 97.3991 120.058 96.9414C119.837 96.4838 119.639 96.0205 119.461 95.5528C120.832 94.704 121.63 93.0679 121.376 91.3361C121.121 89.6014 119.882 88.2491 118.323 87.8081C118.398 86.8067 118.555 85.8187 118.795 84.8555C120.396 85.0034 121.99 84.1836 122.777 82.6367L122.777 82.6366C123.566 81.0855 123.313 79.2557 122.292 77.9685C122.913 77.2281 123.599 76.5378 124.35 75.9107C125.57 76.9982 127.345 77.3183 128.885 76.5544C130.424 75.7906 131.265 74.1728 131.168 72.5284C132.117 72.3122 133.075 72.1867 134.033 72.1437C134.407 73.752 135.676 75.0773 137.368 75.3981L137.368 75.3981C139.054 75.7175 140.671 74.9441 141.54 73.5714C142.437 73.9709 143.302 74.4512 144.128 75.0058C143.513 76.5246 143.806 78.3475 144.999 79.6161ZM129.24 92.386C130.854 95.7337 134.792 97.1752 138.05 95.559C141.308 93.9426 142.603 89.9049 140.989 86.5572C139.374 83.2095 135.437 81.7679 132.179 83.3843C128.921 85.0005 127.625 89.0384 129.24 92.386Z" stroke="#099FE5"/>
</g>
<defs>
<filter id="filter0_d" x="92.855" y="95.092" width="28.6375" height="29.4578" filterUnits="userSpaceOnUse" color-interpolation-filters="sRGB">
<feFlood flood-opacity="0" result="BackgroundImageFix"/>
<feColorMatrix in="SourceAlpha" type="matrix" values="0 0 0 0 0 0 0 0 0 0 0 0 0 0 0 0 0 0 127 0" result="hardAlpha"/>
<feOffset dy="4"/>
<feGaussianBlur stdDeviation="2"/>
<feColorMatrix type="matrix" values="0 0 0 0 0 0 0 0 0 0 0 0 0 0 0 0 0 0 0.25 0"/>
<feBlend mode="normal" in2="BackgroundImageFix" result="effect1_dropShadow"/>
<feBlend mode="normal" in="SourceGraphic" in2="effect1_dropShadow" result="shape"/>
</filter>
<filter id="filter1_d" x="113.799" y="71.6279" width="42.6312" height="43.6872" filterUnits="userSpaceOnUse" color-interpolation-filters="sRGB">
<feFlood flood-opacity="0" result="BackgroundImageFix"/>
<feColorMatrix in="SourceAlpha" type="matrix" values="0 0 0 0 0 0 0 0 0 0 0 0 0 0 0 0 0 0 127 0" result="hardAlpha"/>
<feOffset dy="4"/>
<feGaussianBlur stdDeviation="2"/>
<feColorMatrix type="matrix" values="0 0 0 0 0 0 0 0 0 0 0 0 0 0 0 0 0 0 0.25 0"/>
<feBlend mode="normal" in2="BackgroundImageFix" result="effect1_dropShadow"/>
<feBlend mode="normal" in="SourceGraphic" in2="effect1_dropShadow" result="shape"/>
</filter>
</defs>
</svg>
