<svg width="25" height="25" viewBox="0 0 25 25" fill="none" xmlns="http://www.w3.org/2000/svg">
<g clip-path="url(#clip0)">
<path d="M24.6441 6.56475C24.644 6.56475 24.644 6.56475 24.644 6.56475L24.6431 6.56392L23.0295 6.3337C22.8027 6.30139 22.645 6.09133 22.6773 5.86453C22.6928 5.75553 22.751 5.65722 22.8391 5.59116L24.1433 4.613C24.3266 4.47554 24.3637 4.21554 24.2262 4.03224L22.7329 2.04108C22.5954 1.85778 22.3354 1.82065 22.1521 1.95811L20.8483 2.93627C20.6658 3.07477 20.4056 3.0391 20.2671 2.85657C20.1998 2.76796 20.171 2.65601 20.1871 2.54592L20.4177 0.932249C20.4502 0.705443 20.2928 0.495282 20.066 0.462718C20.0659 0.462718 20.0657 0.462666 20.0655 0.462666L17.6031 0.110894C17.3764 0.0783298 17.1661 0.235756 17.1336 0.462562C17.1336 0.462614 17.1336 0.462614 17.1336 0.462666L16.9029 2.07634C16.8706 2.30314 16.6606 2.46083 16.4337 2.42853C16.3247 2.41302 16.2264 2.35479 16.1604 2.26674L15.1826 0.962531C15.0452 0.77923 14.7852 0.742103 14.6019 0.879566L13.3553 1.815C12.7914 1.75506 12.2226 1.75506 11.6587 1.815C7.96538 2.23714 5.06912 5.1825 4.7091 8.88239C4.6979 8.99978 4.69376 9.11635 4.68795 9.23291H4.5635C4.36667 9.23328 4.19716 9.37193 4.1578 9.56478L3.87116 10.9279L2.72292 10.136C2.55813 10.0223 2.33557 10.0426 2.19402 10.1841L0.949537 11.4286C0.808186 11.5701 0.787963 11.7923 0.901418 11.9571L1.68959 13.1032L0.326054 13.3899C0.135338 13.4317 -0.000413878 13.6008 9.481e-07 13.796V15.4553C-0.000102758 15.6515 0.13736 15.821 0.329373 15.8614L1.69291 16.1481L0.904736 17.2942C0.791281 17.459 0.811504 17.6812 0.952856 17.8227L2.19733 19.0672C2.33889 19.2088 2.56145 19.229 2.72624 19.1153L3.8724 18.3251L4.15905 19.6886C4.1984 19.8814 4.36791 20.0201 4.56474 20.0205H6.22405C6.42026 20.0206 6.58972 19.8831 6.63016 19.6911L6.91681 18.3276L8.06297 19.1157C8.22771 19.2292 8.44995 19.209 8.59146 19.0676L9.23568 18.4213V19.6036C9.23755 20.1937 9.5537 20.7381 10.0653 21.0322V23.337C10.0653 24.2534 10.8082 24.9963 11.7246 24.9963H13.3839C14.3003 24.9963 15.0432 24.2534 15.0432 23.337V21.0322C15.5549 20.7381 15.871 20.1937 15.8729 19.6036V17.9617C15.8842 17.2708 16.2456 16.633 16.8324 16.2684C17.1766 16.045 17.5031 15.7954 17.8089 15.5217L17.2555 14.9036C16.982 15.1487 16.6897 15.3722 16.3815 15.5719C15.5578 16.0888 15.0536 16.9892 15.0432 17.9617V19.6036C15.0432 20.0618 14.6718 20.4332 14.2136 20.4332H10.895C10.4368 20.4332 10.0653 20.0618 10.0653 19.6036V17.9272C10.0557 16.9732 9.55946 16.0902 8.74951 15.586C5.46165 13.52 4.47105 9.17997 6.53698 5.89211C7.81879 3.85216 10.0558 2.61053 12.4651 2.60192C12.4589 2.6167 12.4535 2.63179 12.4489 2.64714C12.4335 2.75603 12.462 2.86663 12.5282 2.95453L13.5059 4.25832C13.609 4.39174 13.6189 4.57499 13.5308 4.71878C13.446 4.86345 13.2819 4.94237 13.116 4.91831L11.5023 4.68767C11.2755 4.65516 11.0653 4.81263 11.0328 5.03939C11.0328 5.03954 11.0327 5.0397 11.0327 5.03985L10.6805 7.50351C10.648 7.73026 10.8055 7.94047 11.0322 7.97304C11.0324 7.97304 11.0326 7.97309 11.0327 7.97309L12.6464 8.20373C12.8732 8.23604 13.0309 8.44609 12.9986 8.6729C12.9831 8.7819 12.9248 8.88021 12.8368 8.94627L11.533 9.92401C11.3497 10.0615 11.3126 10.3215 11.45 10.5048L12.9434 12.4959C13.0809 12.6792 13.3409 12.7164 13.5242 12.5789L14.8284 11.6012C15.0118 11.464 15.2718 11.5014 15.409 11.685C15.4747 11.7727 15.5029 11.883 15.4875 11.9915L15.2573 13.6052C15.2247 13.8319 15.3822 14.0422 15.609 14.0748C15.609 14.0748 15.609 14.0748 15.6091 14.0748L18.0731 14.4269C18.0925 14.4294 18.1121 14.4307 18.1316 14.4307C18.3382 14.4309 18.5134 14.2792 18.5427 14.0748L18.7729 12.4611C18.8053 12.2343 19.0153 12.0766 19.2421 12.1089C19.3511 12.1244 19.4494 12.1826 19.5155 12.2707L20.4936 13.5745C20.6311 13.7578 20.8911 13.7949 21.0744 13.6574L23.0656 12.1641C23.2489 12.0266 23.286 11.7666 23.1485 11.5833L22.1708 10.2795C22.0682 10.1459 22.0583 9.96296 22.1459 9.81906C22.2289 9.67247 22.3944 9.59303 22.5607 9.61995L24.1744 9.85018C24.4011 9.88274 24.6114 9.72526 24.644 9.49851C24.644 9.49846 24.644 9.49846 24.644 9.4984L24.9958 7.03434C25.0283 6.80753 24.8709 6.59732 24.6441 6.56475ZM10.895 21.2629H14.2136V22.0925H10.895V21.2629ZM10.895 22.9222H14.2136V23.337C14.2136 23.7952 13.8422 24.1666 13.3839 24.1666H11.7246C11.2664 24.1666 10.895 23.7952 10.895 23.337V22.9222ZM7.59256 15.7685C7.81905 15.9537 8.05571 16.1262 8.3015 16.285C8.69345 16.5327 8.9885 16.9074 9.13737 17.3465L8.24757 18.2346L7.38598 17.6406C7.00869 17.3806 6.49208 17.4757 6.23203 17.853C6.16971 17.9435 6.12594 18.0454 6.10333 18.1529L5.88597 19.1887H4.89992L4.68256 18.1546C4.58818 17.7062 4.14821 17.4192 3.69983 17.5136C3.59234 17.5362 3.4904 17.5799 3.39991 17.6423L2.53791 18.2346L1.78209 17.4805L2.37571 16.6193C2.63596 16.2422 2.54117 15.7255 2.16404 15.4653C2.07351 15.4028 1.97146 15.3589 1.86381 15.3362L0.829653 15.1185V14.1328L1.86381 13.9151C2.31203 13.82 2.59837 13.3796 2.50332 12.9313C2.48076 12.825 2.43757 12.7241 2.37612 12.6345L1.78209 11.7708L2.53791 11.0167L3.40033 11.6107C3.77777 11.8704 4.29438 11.775 4.55412 11.3976C4.61634 11.3072 4.66 11.2054 4.68256 11.098L4.75515 10.7528C4.82163 11.2308 4.93171 11.7016 5.08411 12.1595C3.71917 12.3222 2.74459 13.5607 2.90731 14.9256C3.07002 16.2906 4.30849 17.2651 5.67342 17.1024C6.49509 17.0044 7.21434 16.5045 7.59256 15.7685ZM6.94833 15.184C6.63856 16.045 5.68949 16.4919 4.82847 16.1822C3.96745 15.8724 3.52058 14.9233 3.8303 14.0623C4.06726 13.4036 4.69267 12.9649 5.39269 12.9663C5.39808 12.9663 5.40306 12.9663 5.40845 12.9663C5.78993 13.7889 6.3109 14.5392 6.94833 15.184ZM23.879 8.96908L22.676 8.79735C21.9956 8.70017 21.3653 9.17302 21.2681 9.85339C21.2215 10.1801 21.3065 10.512 21.5046 10.7761L22.2334 11.748L20.906 12.7436L20.1767 11.7721C19.7644 11.2222 18.9844 11.1106 18.4345 11.523C18.1705 11.7209 17.9959 12.0157 17.9491 12.3424L17.7811 13.5471L16.1388 13.3123L16.3105 12.1093C16.408 11.429 15.9354 10.7984 15.255 10.701C14.9281 10.6542 14.596 10.7393 14.3318 10.9374L13.3599 11.6663L12.3643 10.3388L13.3358 9.60958C13.8857 9.19724 13.9973 8.41721 13.5849 7.86736C13.387 7.60332 13.0922 7.42873 12.7654 7.38196L11.5624 7.21022L11.7972 5.56793L13.0002 5.73967C13.6806 5.8371 14.3111 5.36451 14.4085 4.68414C14.4553 4.35721 14.3703 4.02514 14.1721 3.76095L13.4408 2.78818L14.7682 1.7926L15.4975 2.76453C15.9098 3.31444 16.6898 3.42597 17.2397 3.01364C17.5037 2.81566 17.6783 2.52088 17.7251 2.19415L17.8968 0.991154L19.5391 1.22553L19.3674 2.42853C19.2702 3.10894 19.743 3.73927 20.4234 3.83644C20.7502 3.88311 21.0821 3.79807 21.3461 3.59999L22.318 2.87115L23.3136 4.19859L22.3417 4.92785C21.7918 5.34019 21.6803 6.12022 22.0926 6.67007C22.2906 6.93411 22.5854 7.1087 22.9121 7.15547L24.1151 7.32721L23.879 8.96908Z" fill="white"/>
<path d="M17.8375 3.94971C16.0047 3.94971 14.5189 5.43551 14.5189 7.26832C14.5189 9.10112 16.0047 10.5869 17.8375 10.5869C19.6703 10.5869 21.1561 9.10112 21.1561 7.26832C21.1541 5.43634 19.6695 3.95173 17.8375 3.94971ZM17.8375 9.75727C16.4629 9.75727 15.3486 8.64295 15.3486 7.26832C15.3486 5.89369 16.4629 4.77936 17.8375 4.77936C19.2122 4.77936 20.3265 5.89369 20.3265 7.26832C20.3249 8.64227 19.2115 9.75566 17.8375 9.75727Z" fill="white"/>
<path d="M12.969 18.3591H12.1394V19.6035H12.969V18.3591Z" fill="white"/>
<path d="M10.7398 14.2851C8.17901 13.2847 6.91405 10.3978 7.91446 7.83707C8.30211 6.8448 8.99783 6.00307 9.89935 5.43559L9.4559 4.7337C6.74211 6.44336 5.92806 10.0293 7.63772 12.7431C8.29983 13.7941 9.28152 14.6051 10.4386 15.0571C11.4628 15.4495 12.1392 16.4326 12.1394 17.5294H12.9691C12.9704 16.0904 12.0836 14.7998 10.7398 14.2851Z" fill="white"/>
<path d="M23.3397 15.4553H20.4359V16.285H23.3397V15.4553Z" fill="white"/>
<path d="M20.2868 17.6253L19.7557 18.2627L22.2449 20.3365L22.7759 19.6991L20.2868 17.6253Z" fill="white"/>
<path d="M18.7767 18.7739H17.947V21.6777H18.7767V18.7739Z" fill="white"/>
<path d="M3.74196 6.34133L0.423584 7.17084L0.624674 7.97528L3.94305 7.14577L3.74196 6.34133Z" fill="white"/>
<path d="M1.59462 2.25866L1.11267 2.93341L4.01622 5.00732L4.49817 4.33257L1.59462 2.25866Z" fill="white"/>
<path d="M5.47076 0.00347962L4.66699 0.208984L5.51542 3.52733L6.31918 3.32183L5.47076 0.00347962Z" fill="white"/>
</g>
<defs>
<clipPath id="clip0">
<rect width="25" height="25" fill="white"/>
</clipPath>
</defs>
</svg>
