<svg width="352" height="349" viewBox="0 0 352 349" fill="none" xmlns="http://www.w3.org/2000/svg">
<path d="M230.819 64.9523L236.64 64.914L236.638 65.4117L239.261 65.3945L240.578 67.6291L241.012 67.375L243.936 72.3354L243.502 72.5895L246.426 77.5498L246.86 77.2957L249.784 82.2561L249.35 82.5102L252.274 87.4705L252.708 87.2164L255.632 92.1768L255.197 92.4309L258.121 97.3912L258.556 97.1371L261.48 102.097L261.045 102.352L263.969 107.312L264.404 107.058L267.327 112.018L266.893 112.272L269.817 117.233L270.251 116.979L273.175 121.939L272.741 122.193L275.665 127.153L276.099 126.899L279.023 131.86L278.589 132.114L281.513 137.074L281.947 136.82L284.871 141.78L284.437 142.034L287.361 146.995L287.795 146.741L290.719 151.701L290.284 151.955L293.208 156.915L293.643 156.661L296.567 161.622L296.132 161.876L299.056 166.836L299.49 166.582L302.414 171.542L301.98 171.796L303.296 174.029L301.993 176.277L302.428 176.522L299.531 181.52L299.096 181.276L296.199 186.274L296.633 186.519L293.736 191.518L293.301 191.273L290.404 196.272L290.839 196.516L287.942 201.515L287.507 201.27L284.61 206.269L285.045 206.514L282.148 211.512L281.713 211.267L278.816 216.266L279.251 216.511L276.354 221.509L275.919 221.265L273.021 226.263L273.456 226.508L270.559 231.507L270.124 231.262L267.227 236.261L267.662 236.505L264.765 241.504L264.33 241.259L261.433 246.258L261.868 246.503L258.971 251.501L258.536 251.256L255.639 256.255L256.074 256.5L253.176 261.498L252.742 261.254L249.844 266.252L250.279 266.497L247.382 271.496L246.947 271.251L244.05 276.25L244.485 276.494L241.588 281.493L241.153 281.248L239.85 283.496L237.23 283.514L237.229 284.011L231.408 284.05L231.409 283.552L225.588 283.59L225.587 284.088L219.766 284.126L219.767 283.629L213.946 283.667L213.945 284.165L208.124 284.203L208.125 283.705L202.304 283.743L202.303 284.241L196.481 284.279L196.483 283.782L190.662 283.82L190.66 284.318L184.839 284.356L184.841 283.858L179.02 283.896L179.018 284.394L173.197 284.432L173.199 283.935L167.378 283.973L167.376 284.471L161.555 284.509L161.557 284.011L155.736 284.05L155.734 284.547L149.913 284.586L149.915 284.088L144.094 284.126L144.092 284.624L138.271 284.662L138.272 284.164L132.451 284.203L132.45 284.7L126.629 284.739L126.63 284.241L120.809 284.279L120.808 284.777L114.987 284.815L114.988 284.318L112.366 284.335L111.049 282.1L110.614 282.354L107.69 277.394L108.125 277.14L105.201 272.179L104.767 272.434L101.843 267.473L102.277 267.219L99.353 262.259L98.9187 262.513L95.9948 257.552L96.4291 257.298L93.5052 252.338L93.0709 252.592L90.147 247.632L90.5813 247.378L87.6574 242.417L87.2231 242.671L84.2991 237.711L84.7335 237.457L81.8095 232.497L81.3752 232.751L78.4513 227.79L78.8856 227.536L75.9617 222.576L75.5274 222.83L72.6035 217.87L73.0378 217.616L70.1139 212.655L69.6796 212.909L66.7557 207.949L67.19 207.695L64.2661 202.735L63.8318 202.989L60.9079 198.028L61.3422 197.774L58.4182 192.814L57.9839 193.068L55.06 188.108L55.4943 187.853L52.5704 182.893L52.1361 183.147L49.2122 178.187L49.6465 177.933L48.3307 175.7L49.6338 173.452L49.1988 173.207L52.096 168.209L52.5309 168.454L55.428 163.455L54.9931 163.21L57.8902 158.211L58.3252 158.456L61.2223 153.458L60.7874 153.213L63.6845 148.214L64.1195 148.459L67.0166 143.46L66.5816 143.216L69.4788 138.217L69.9137 138.462L72.8109 133.463L72.3759 133.218L75.273 128.22L75.708 128.465L78.6051 123.466L78.1702 123.221L81.0673 118.222L81.5023 118.467L84.3994 113.469L83.9644 113.224L86.8616 108.225L87.2965 108.47L90.1937 103.471L89.7587 103.227L92.6558 98.228L93.0908 98.4728L95.9879 93.4742L95.553 93.2293L98.4501 88.2307L98.8851 88.4755L101.782 83.4769L101.347 83.2321L104.244 78.2335L104.679 78.4783L107.576 73.4797L107.142 73.2348L110.039 68.2362L110.474 68.481L111.777 66.2327L114.396 66.2155L114.398 65.7178L120.219 65.6795L120.217 66.1772L126.038 66.1389L126.04 65.6412L131.861 65.6029L131.859 66.1007L137.681 66.0624L137.682 65.5647L143.503 65.5264L143.502 66.0241L149.323 65.9858L149.324 65.4881L155.145 65.4498L155.144 65.9476L160.965 65.9093L160.966 65.4116L166.787 65.3733L166.786 65.871L172.607 65.8327L172.608 65.335L178.429 65.2967L178.428 65.7945L184.249 65.7562L184.25 65.2585L190.071 65.2202L190.07 65.7179L195.891 65.6796L195.892 65.1819L201.713 65.1436L201.712 65.6414L207.533 65.6031L207.535 65.1054L213.356 65.0671L213.354 65.5648L219.175 65.5265L219.177 65.0288L224.998 64.9905L224.996 65.4883L230.817 65.45L230.819 64.9523Z" fill="#099FE5" fill-opacity="0.03" stroke="#CDCDCD" stroke-dasharray="6 6"/>
<path d="M175.71 48.6979L286.985 111.016L287.325 237.106L176.391 300.877L65.1157 238.559L64.7754 112.469L175.71 48.6979Z" fill="#B9E9FF" fill-opacity="0.06"/>
<path d="M168.146 53.046L173.189 50.1473L173.437 50.5805L175.712 49.2728L177.994 50.5508L178.239 50.1143L183.297 52.9469L183.051 53.3834L188.109 56.216L188.355 55.7796L193.413 58.6122L193.167 59.0487L198.225 61.8813L198.471 61.4448L203.529 64.2775L203.283 64.714L208.341 67.5466L208.587 67.1101L213.645 69.9428L213.399 70.3792L218.457 73.2119L218.703 72.7754L223.761 75.608L223.515 76.0445L228.573 78.8772L228.819 78.4407L233.877 81.2733L233.631 81.7098L238.689 84.5425L238.935 84.106L243.993 86.9386L243.747 87.3751L248.805 90.2077L249.05 89.7713L254.108 92.6039L253.863 93.0404L258.921 95.873L259.166 95.4365L264.224 98.2692L263.979 98.7057L269.037 101.538L269.282 101.102L274.34 103.934L274.095 104.371L279.153 107.204L279.398 106.767L284.456 109.6L284.211 110.036L286.486 111.311L286.493 113.885L286.993 113.882L287.008 119.613L286.508 119.616L286.524 125.348L287.024 125.344L287.039 131.076L286.539 131.079L286.555 136.81L287.055 136.807L287.07 142.538L286.57 142.542L286.586 148.273L287.086 148.27L287.101 154.001L286.601 154.004L286.617 159.736L287.117 159.732L287.132 165.464L286.632 165.467L286.648 171.198L287.148 171.195L287.163 176.926L286.663 176.93L286.679 182.661L287.179 182.658L287.194 188.389L286.694 188.392L286.709 194.124L287.209 194.121L287.225 199.852L286.725 199.855L286.74 205.586L287.24 205.583L287.256 211.315L286.756 211.318L286.771 217.049L287.271 217.046L287.287 222.777L286.787 222.78L286.802 228.512L287.302 228.509L287.318 234.24L286.818 234.243L286.825 236.818L284.556 238.122L284.804 238.555L279.762 241.454L279.514 241.02L274.471 243.919L274.719 244.352L269.677 247.251L269.429 246.818L264.386 249.716L264.634 250.15L259.592 253.048L259.344 252.615L254.301 255.514L254.549 255.947L249.507 258.846L249.259 258.413L244.216 261.311L244.464 261.745L239.422 264.643L239.174 264.21L234.131 267.109L234.379 267.542L229.337 270.441L229.089 270.007L224.046 272.906L224.294 273.339L219.252 276.238L219.004 275.805L213.962 278.703L214.209 279.137L209.167 282.035L208.919 281.602L203.877 284.501L204.124 284.934L199.082 287.833L198.834 287.4L193.792 290.298L194.039 290.731L188.997 293.63L188.749 293.197L183.707 296.096L183.955 296.529L178.912 299.428L178.664 298.994L176.389 300.302L174.107 299.024L173.862 299.461L168.804 296.628L169.049 296.191L163.991 293.359L163.746 293.795L158.688 290.963L158.933 290.526L153.876 287.694L153.63 288.13L148.572 285.297L148.818 284.861L143.76 282.028L143.514 282.465L138.456 279.632L138.702 279.196L133.644 276.363L133.398 276.799L128.34 273.967L128.586 273.53L123.528 270.698L123.282 271.134L118.224 268.302L118.47 267.865L113.412 265.032L113.166 265.469L108.108 262.636L108.354 262.2L103.296 259.367L103.05 259.804L97.9925 256.971L98.238 256.534L93.1801 253.702L92.9345 254.138L87.8765 251.306L88.1221 250.869L83.0642 248.037L82.8186 248.473L77.7606 245.64L78.0062 245.204L72.9482 242.371L72.7027 242.808L67.6447 239.975L67.8903 239.539L65.6149 238.264L65.608 235.69L65.108 235.693L65.0925 229.962L65.5925 229.958L65.577 224.227L65.0771 224.23L65.0616 218.499L65.5616 218.496L65.5461 212.764L65.0461 212.768L65.0306 207.036L65.5306 207.033L65.5152 201.302L65.0152 201.305L64.9997 195.574L65.4997 195.57L65.4842 189.839L64.9842 189.842L64.9688 184.111L65.4688 184.108L65.4533 178.376L64.9533 178.38L64.9378 172.648L65.4378 172.645L65.4223 166.914L64.9224 166.917L64.9069 161.186L65.4069 161.182L65.3914 155.451L64.8914 155.454L64.8759 149.723L65.3759 149.72L65.3605 143.988L64.8605 143.992L64.845 138.26L65.345 138.257L65.3295 132.526L64.8295 132.529L64.8141 126.798L65.3141 126.794L65.2986 121.063L64.7986 121.066L64.7831 115.335L65.2831 115.332L65.2762 112.757L67.5446 111.453L67.2967 111.02L72.3391 108.121L72.5871 108.554L77.6296 105.656L77.3816 105.223L82.4241 102.324L82.672 102.757L87.7145 99.8584L87.4666 99.4251L92.5091 96.5264L92.757 96.9597L97.7995 94.061L97.5516 93.6277L102.594 90.729L102.842 91.1623L107.884 88.2636L107.637 87.8303L112.679 84.9316L112.927 85.3649L117.969 82.4662L117.722 82.033L122.764 79.1343L123.012 79.5675L128.054 76.6688L127.806 76.2356L132.849 73.3369L133.097 73.7701L138.139 70.8714L137.891 70.4382L142.934 67.5395L143.182 67.9727L148.224 65.074L147.976 64.6408L153.019 61.7421L153.267 62.1753L158.309 59.2766L158.061 58.8434L163.104 55.9447L163.352 56.3779L168.394 53.4792L168.146 53.046Z" stroke="#CDCDCD" stroke-opacity="0.7" stroke-dasharray="6 6"/>
<path d="M132.395 146.629L146.219 146.594C146.215 149.306 145.66 151.744 144.553 153.907C143.446 156.046 141.883 157.717 139.866 158.923C137.848 160.128 135.543 160.733 132.951 160.74C129.063 160.75 125.849 159.51 123.309 157.02C120.792 154.53 119.537 151.378 119.542 147.562C119.548 143.721 120.8 140.55 123.3 138.048C125.823 135.522 129.029 134.253 132.917 134.244C136.205 134.235 139.072 135.164 141.517 137.03C143.962 138.896 145.447 141.292 145.971 144.219L138.699 144.237C138.244 143.182 137.489 142.344 136.434 141.723C135.403 141.078 134.252 140.756 132.98 140.76C131.084 140.764 129.547 141.392 128.369 142.643C127.215 143.894 126.637 145.528 126.634 147.544C126.632 148.84 126.883 150.003 127.385 151.034C127.912 152.041 128.655 152.831 129.614 153.404C130.573 153.954 131.688 154.227 132.96 154.224C134.28 154.221 135.457 153.93 136.49 153.351C137.546 152.748 138.268 151.955 138.653 150.97L132.389 150.985L132.395 146.629ZM162.281 160.666C158.225 160.676 154.891 159.449 152.279 156.983C149.69 154.494 148.399 151.317 148.404 147.453C148.41 143.589 149.71 140.418 152.306 137.939C154.925 135.436 158.263 134.18 162.319 134.17C166.351 134.16 169.661 135.399 172.25 137.889C174.838 140.354 176.129 143.519 176.124 147.383C176.118 151.247 174.818 154.431 172.222 156.933C169.627 159.412 166.313 160.656 162.281 160.666ZM157.505 152.29C158.775 153.559 160.37 154.191 162.29 154.186C164.21 154.181 165.783 153.541 167.009 152.266C168.259 150.991 168.885 149.37 168.888 147.401C168.891 145.433 168.269 143.815 167.023 142.546C165.801 141.277 164.23 140.645 162.31 140.65C160.39 140.655 158.793 141.295 157.519 142.57C156.269 143.845 155.643 145.467 155.64 147.435C155.637 149.403 156.259 151.021 157.505 152.29ZM192.234 160.591C188.178 160.601 184.844 159.374 182.231 156.908C179.643 154.419 178.351 151.242 178.357 147.378C178.362 143.514 179.663 140.342 182.258 137.864C184.878 135.361 188.216 134.105 192.272 134.095C196.304 134.084 199.614 135.324 202.202 137.814C204.791 140.279 206.082 143.444 206.076 147.308C206.071 151.172 204.77 154.355 202.175 156.858C199.579 159.336 196.266 160.581 192.234 160.591ZM187.458 152.215C188.728 153.484 190.323 154.116 192.243 154.111C194.163 154.106 195.736 153.466 196.962 152.191C198.211 150.916 198.838 149.294 198.841 147.326C198.843 145.358 198.222 143.74 196.976 142.471C195.753 141.202 194.182 140.57 192.262 140.575C190.342 140.579 188.746 141.219 187.472 142.495C186.222 143.77 185.596 145.391 185.593 147.359C185.59 149.328 186.212 150.946 187.458 152.215ZM219.847 134.673C223.663 134.664 226.782 135.832 229.202 138.178C231.623 140.524 232.83 143.545 232.825 147.241C232.82 150.913 231.591 153.94 229.14 156.322C226.713 158.68 223.603 159.864 219.811 159.874L209.623 159.899L209.66 134.699L219.847 134.673ZM219.496 153.502C221.344 153.498 222.845 152.918 223.999 151.763C225.152 150.608 225.731 149.095 225.733 147.223C225.736 145.375 225.162 143.888 224.012 142.763C222.885 141.614 221.386 141.041 219.514 141.046L216.598 141.053L216.58 153.51L219.496 153.502ZM137.371 179.881L137.362 186.145L130.486 186.163L130.459 205.099L123.511 205.116L123.538 186.18L116.699 186.197L116.708 179.933L137.371 179.881ZM153.978 205.04L149.886 197.346L147.402 197.352L147.391 205.056L140.443 205.074L140.479 179.873L151.387 179.846C153.187 179.841 154.794 180.209 156.209 180.95C157.624 181.69 158.726 182.743 159.516 184.11C160.33 185.475 160.736 187.022 160.734 188.751C160.732 189.759 160.575 190.719 160.262 191.632C159.948 192.521 159.491 193.326 158.89 194.047C158.289 194.769 157.568 195.371 156.728 195.853L161.718 205.02L153.978 205.04ZM147.418 186.012L147.41 191.484L150.578 191.476C151.514 191.474 152.258 191.22 152.811 190.714C153.364 190.209 153.641 189.548 153.642 188.732C153.643 188.204 153.523 187.737 153.284 187.329C153.045 186.922 152.685 186.599 152.205 186.36C151.75 186.121 151.21 186.002 150.586 186.004L147.418 186.012ZM181.369 204.971L179.971 200.87L171.043 200.893L169.633 205L162.217 205.019L172.153 179.794L178.921 179.777L189 204.952L181.369 204.971ZM178.286 195.438L175.526 187.633L172.742 195.452L178.286 195.438ZM201.678 179.719C205.493 179.71 208.612 180.878 211.032 183.224C213.453 185.57 214.661 188.591 214.655 192.287C214.65 195.959 213.422 198.986 210.97 201.368C208.543 203.727 205.433 204.91 201.641 204.92L191.454 204.946L191.49 179.745L201.678 179.719ZM201.327 198.549C203.174 198.544 204.675 197.964 205.829 196.809C206.983 195.654 207.561 194.141 207.563 192.269C207.566 190.421 206.992 188.934 205.842 187.809C204.716 186.66 203.216 186.088 201.344 186.092L198.428 186.1L198.411 198.556L201.327 198.549ZM225.198 198.849L234.702 198.825L234.693 204.837L218.277 204.878L218.313 179.678L234.441 179.637L234.433 185.649L225.217 185.672L225.211 189.38L233.491 189.36L233.483 195.048L225.203 195.069L225.198 198.849Z" fill="#099FE5"/>
</svg>
