<svg width="230" height="211" viewBox="0 0 230 211" fill="none" xmlns="http://www.w3.org/2000/svg">
<path d="M27.4909 105.878L71.6807 32.3408H158.319L202.509 105.878L158.323 177.738H71.6774L27.4909 105.878Z" stroke="#099FE5" stroke-opacity="0.1"/>
<path d="M115.947 21.0341L191.469 62.2609L190.847 147.415L114.052 189.045L38.5311 147.818L38.263 64.1205L115.947 21.0341Z" fill="#F8FCFE"/>
<path d="M38.7743 64.3963L115.939 21.5983L190.956 62.5501L190.339 147.135L114.064 188.482L39.0406 147.527L38.7743 64.3963Z" stroke="#099FE5" stroke-opacity="0.2"/>
<g clip-path="url(#clip0)">
<path d="M84.7901 119.708C84.8084 119.718 84.8202 119.72 84.8248 119.72L84.7901 119.708ZM84.7901 119.708L85.2612 119.439L85.4328 120.058C85.871 121.64 86.6544 123.01 87.5983 123.982C88.5404 124.953 89.6097 125.498 90.6349 125.525C91.5628 125.475 92.6653 124.924 93.664 123.949C94.6604 122.975 95.5083 121.621 95.9312 120.065L96.0371 119.675L96.4403 119.697C96.4406 119.697 96.4431 119.697 96.4489 119.696C96.455 119.694 96.4657 119.691 96.4808 119.682C96.5122 119.665 96.5575 119.631 96.6089 119.569C96.7129 119.443 96.8132 119.236 96.8594 118.968C96.9057 118.694 96.8742 118.456 96.8112 118.298C96.783 118.228 96.7555 118.187 96.7347 118.164L96.2277 118.248L96.2135 117.673C96.148 115.017 95.4878 113.31 94.5269 112.26C93.5741 111.219 92.2606 110.754 90.7277 110.716C89.1674 110.728 87.7181 111.276 86.681 112.383C85.6445 113.489 84.9699 115.208 85.0651 117.656L85.0866 118.212L84.5328 118.175C84.5128 118.196 84.4845 118.237 84.4553 118.31C84.3932 118.467 84.3619 118.706 84.4084 118.984C84.4574 119.266 84.5662 119.482 84.6759 119.608C84.7258 119.666 84.7644 119.694 84.7901 119.708ZM132.528 119.711C132.543 119.718 132.553 119.72 132.557 119.721L132.528 119.711ZM132.528 119.711L133.005 119.473L133.167 120.058C133.606 121.64 134.388 123.01 135.332 123.982C136.273 124.953 137.342 125.498 138.367 125.525C139.297 125.475 140.4 124.924 141.399 123.949C142.395 122.975 143.243 121.621 143.666 120.065L143.772 119.675L144.175 119.697C144.175 119.697 144.178 119.697 144.183 119.696C144.189 119.694 144.2 119.691 144.215 119.682C144.247 119.665 144.292 119.631 144.343 119.569C144.447 119.443 144.548 119.236 144.594 118.968L144.594 118.968C144.641 118.694 144.61 118.456 144.547 118.298C144.518 118.226 144.49 118.185 144.469 118.162L143.959 118.235L143.946 117.672C143.882 115.017 143.224 113.309 142.264 112.26C141.312 111.219 139.999 110.754 138.464 110.716C136.904 110.728 135.454 111.276 134.416 112.383C133.379 113.489 132.703 115.208 132.797 117.657L132.819 118.214L132.267 118.175C132.247 118.196 132.218 118.237 132.189 118.31C132.127 118.467 132.096 118.705 132.145 118.982L132.145 118.986C132.192 119.268 132.3 119.483 132.409 119.609C132.462 119.672 132.503 119.699 132.528 119.711ZM113.997 92.4056L114.02 92.2233H114.417H114.97L114.992 92.4007L115.483 96.2847L115.687 97.8978L116.425 96.4488L119.305 90.7904C121.757 91.1583 123.8 91.874 125.244 93.077C126.636 94.2375 127.514 95.8879 127.623 98.2518L101.379 98.2836C101.482 95.9216 102.357 94.2693 103.747 93.1055C105.188 91.899 107.231 91.1783 109.685 90.8062L112.578 96.4586L113.32 97.9091L113.519 96.2919L113.997 92.4056ZM109.146 82.79L108.665 82.9962C108.639 82.984 108.598 82.9562 108.544 82.893C108.435 82.7669 108.328 82.5517 108.282 82.2723L108.281 82.2708C108.234 81.9907 108.265 81.7503 108.327 81.5933C108.355 81.5234 108.382 81.4836 108.402 81.4613L108.959 81.5409L108.936 80.9417C108.84 78.4933 109.515 76.7738 110.551 75.6671C111.588 74.5598 113.037 74.0124 114.598 74.0015C116.13 74.0391 117.443 74.5038 118.395 75.5442C119.355 76.5933 120.014 78.2999 120.077 80.9554L120.09 81.4796L120.597 81.4434C120.618 81.4655 120.648 81.5068 120.679 81.5827C120.741 81.7395 120.773 81.9772 120.726 82.2509L120.726 82.2514C120.679 82.5205 120.579 82.727 120.475 82.8525C120.424 82.9145 120.379 82.9487 120.348 82.9655C120.332 82.9737 120.322 82.9772 120.316 82.9787C120.31 82.9802 120.307 82.98 120.306 82.98L119.903 82.9586L119.797 83.3479C119.373 84.9044 118.526 86.2586 117.53 87.2319C116.532 88.2074 115.43 88.7585 114.501 88.8084C113.476 88.781 112.407 88.2362 111.465 87.2655C110.522 86.293 109.738 84.9233 109.299 83.3411L109.146 82.79ZM120.451 80.4619C120.451 80.4619 120.451 80.4619 120.451 80.4618L120.451 80.4619ZM109.088 83.8939C109.088 83.8937 109.088 83.8938 109.088 83.894L109.088 83.8939ZM101.376 129.795C102.769 130.955 103.647 132.604 103.754 134.964L77.5104 134.998C77.6142 132.635 78.4888 130.983 79.8795 129.819C81.3213 128.613 83.365 127.893 85.8187 127.521L88.7116 133.171L89.454 134.621L89.653 133.004L90.131 129.12L90.1533 128.939L90.5491 128.938H90.5504H91.0989L91.1215 129.117L91.6106 133.001L91.8139 134.616L92.5522 133.166L95.4325 127.507C97.8864 127.876 99.9317 128.592 101.376 129.795ZM84.8266 119.721C84.8266 119.721 84.8267 119.721 84.8268 119.721C84.8269 119.721 84.8269 119.721 84.827 119.721C84.827 119.721 84.8268 119.721 84.8266 119.721ZM85.2207 120.612C85.2216 120.612 85.2213 120.612 85.22 120.613L85.2207 120.612ZM149.109 129.795C150.502 130.955 151.38 132.604 151.487 134.964L125.243 134.998C125.346 132.635 126.221 130.983 127.612 129.819C129.053 128.613 131.096 127.893 133.549 127.521L136.442 133.171L137.184 134.621L137.383 133.004L137.861 129.12L137.883 128.939L138.281 128.938H138.283H138.831L138.854 129.117L139.343 133.001L139.546 134.616L140.285 133.166L143.165 127.507C145.619 127.876 147.665 128.592 149.109 129.795ZM132.559 119.721C132.559 119.721 132.559 119.721 132.559 119.721C132.559 119.721 132.559 119.721 132.559 119.721C132.559 119.721 132.559 119.721 132.559 119.721ZM144.306 117.182C144.303 117.183 144.306 117.182 144.31 117.18L144.306 117.182ZM115.103 113.596V113.884L115.353 114.029L127.186 120.861L126.585 121.901L114.751 115.068L114.501 114.924L114.251 115.068L102.417 121.901L101.816 120.861L113.65 114.029L113.9 113.884V113.596V102.728H115.103V113.596Z" fill="#099FE5" stroke="#099FE5"/>
</g>
<defs>
<clipPath id="clip0">
<rect width="75" height="75" fill="white" transform="translate(77 67)"/>
</clipPath>
</defs>
</svg>
