<svg width="230" height="211" viewBox="0 0 230 211" fill="none" xmlns="http://www.w3.org/2000/svg">
<path d="M27.4909 105.878L71.6807 32.3408H158.319L202.509 105.878L158.323 177.738H71.6774L27.4909 105.878Z" stroke="#099FE5" stroke-opacity="0.1"/>
<path d="M115.947 21.0341L191.469 62.2609L190.847 147.415L114.052 189.045L38.5311 147.818L38.263 64.1205L115.947 21.0341Z" fill="#F8FCFE"/>
<path d="M38.7743 64.3963L115.939 21.5983L190.956 62.5501L190.339 147.135L114.064 188.482L39.0406 147.527L38.7743 64.3963Z" stroke="#099FE5" stroke-opacity="0.2"/>
<path d="M116.303 102.625H105.568C104.758 102.625 104.209 103.306 104.209 103.988V135.827C104.209 136.653 104.889 137.19 105.568 137.19H116.303C116.982 137.19 117.661 136.64 117.661 135.827V103.988C117.661 103.175 116.982 102.625 116.303 102.625ZM114.945 134.465H106.926V105.363H114.945V134.465Z" fill="#099FE5"/>
<path d="M95.0935 107.277H84.3582C83.5485 107.277 83 107.958 83 108.64V135.841C83 136.666 83.6791 137.203 84.3582 137.203H95.0935C95.7726 137.203 96.4518 136.653 96.4518 135.841V108.64C96.4518 107.814 95.7726 107.277 95.0935 107.277ZM93.7353 134.465H85.7165V110.002H93.7353V134.465Z" fill="#099FE5"/>
<path d="M146.746 92.2347L133.294 73.511C132.745 72.8297 131.661 72.8297 131.126 73.511L117.674 92.2347C117.126 93.0078 117.335 94.2788 118.758 94.2788H125.419V135.827C125.419 136.653 126.098 137.19 126.777 137.19H137.512C138.191 137.19 138.871 136.64 139.001 135.827V94.2919H145.662C146.994 94.2919 147.281 92.9292 146.746 92.2347ZM137.499 91.5534C136.69 91.5534 136.141 92.2347 136.141 92.9161V134.465H128.122H127.992V92.9161C127.992 92.0906 127.312 91.5534 126.633 91.5534H121.2L132.066 76.5246L142.932 91.5534H137.499Z" fill="#099FE5"/>
</svg>
