<svg width="171" height="169" viewBox="0 0 171 169" fill="none" xmlns="http://www.w3.org/2000/svg">
<path d="M78.1144 4.75521L82.7043 2.11564L82.9536 2.54909L85.0017 1.37129L87.0594 2.53246L87.3051 2.09701L91.9166 4.69931L91.6709 5.13476L96.2824 7.73706L96.5281 7.30161L101.14 9.90391L100.894 10.3394L105.506 12.9417L105.751 12.5062L110.363 15.1085L110.117 15.544L114.729 18.1463L114.974 17.7108L119.586 20.3131L119.34 20.7486L123.952 23.3509L124.197 22.9154L128.809 25.5177L128.563 25.9532L133.175 28.5555L133.42 28.12L138.032 30.7223L137.786 31.1578L142.398 33.7601L142.643 33.3246L147.255 35.9269L147.009 36.3624L151.621 38.9647L151.867 38.5292L156.478 41.1315L156.232 41.567L158.285 42.7253L158.295 45.0556L158.795 45.0536L158.816 50.2955L158.316 50.2975L158.338 55.5394L158.838 55.5374L158.86 60.7792L158.36 60.7813L158.381 66.0231L158.881 66.0211L158.903 71.263L158.403 71.265L158.424 76.5069L158.924 76.5049L158.946 81.7467L158.446 81.7488L158.468 86.9906L158.968 86.9886L158.989 92.2305L158.489 92.2325L158.511 97.4744L159.011 97.4723L159.033 102.714L158.533 102.716L158.554 107.958L159.054 107.956L159.076 113.198L158.576 113.2L158.597 118.442L159.097 118.44L159.119 123.682L158.619 123.684L158.629 126.014L156.586 127.189L156.835 127.622L152.245 130.262L151.996 129.829L147.406 132.468L147.655 132.902L143.065 135.541L142.816 135.108L138.226 137.747L138.475 138.181L133.885 140.82L133.636 140.387L129.046 143.026L129.295 143.46L124.706 146.099L124.456 145.666L119.866 148.306L120.116 148.739L115.526 151.379L115.276 150.945L110.687 153.585L110.936 154.018L106.346 156.658L106.097 156.224L101.507 158.864L101.756 159.297L97.1661 161.937L96.9168 161.503L92.3269 164.143L92.5762 164.576L87.9863 167.216L87.737 166.783L85.6889 167.96L83.6313 166.799L83.3855 167.235L78.774 164.632L79.0197 164.197L74.4082 161.595L74.1625 162.03L69.5509 159.428L69.7966 158.992L65.1851 156.39L64.9394 156.825L60.3279 154.223L60.5736 153.788L55.962 151.185L55.7163 151.621L51.1048 149.019L51.3505 148.583L46.739 145.981L46.4933 146.416L41.8817 143.814L42.1274 143.378L37.5159 140.776L37.2702 141.212L32.6587 138.609L32.9044 138.174L28.2928 135.572L28.0471 136.007L23.4356 133.405L23.6813 132.969L19.0698 130.367L18.8241 130.802L14.2125 128.2L14.4582 127.765L12.4056 126.606L12.3959 124.276L11.8959 124.278L11.8743 119.036L12.3743 119.034L12.3527 113.792L11.8527 113.794L11.8311 108.552L12.3311 108.55L12.3094 103.308L11.8094 103.311L11.7878 98.0686L12.2878 98.0666L12.2662 92.8247L11.7662 92.8268L11.7446 87.5849L12.2446 87.5829L12.2229 82.341L11.7229 82.343L11.7013 77.1012L12.2013 77.0991L12.1797 71.8573L11.6797 71.8593L11.6581 66.6174L12.1581 66.6154L12.1364 61.3735L11.6364 61.3755L11.6148 56.1337L12.1148 56.1316L12.0932 50.8898L11.5932 50.8918L11.5716 45.6499L12.0716 45.6479L12.0619 43.3176L14.105 42.1426L13.8557 41.7092L18.4456 39.0696L18.6949 39.5031L23.2848 36.8635L23.0355 36.4301L27.6254 33.7905L27.8747 34.2239L32.4646 31.5844L32.2153 31.1509L36.8053 28.5114L37.0545 28.9448L41.6445 26.3052L41.3952 25.8718L45.9851 23.2322L46.2344 23.6656L50.8243 21.0261L50.575 20.5926L55.1649 17.9531L55.4142 18.3865L60.0041 15.7469L59.7548 15.3135L64.3447 12.6739L64.594 13.1074L69.1839 10.4678L68.9346 10.0344L73.5245 7.39478L73.7738 7.82823L78.3637 5.18866L78.1144 4.75521Z" stroke="#585858" stroke-opacity="0.3" stroke-dasharray="5 5"/>
<path d="M84.9994 15.735L145.763 50.0242L146.048 119.094L85.5693 153.874L24.8056 119.585L24.5206 50.5153L84.9994 15.735Z" fill="#099FE5" fill-opacity="0.03"/>
<path d="M25.0218 50.8038L85.0018 16.3105L145.264 50.3168L145.547 118.805L85.5669 153.298L25.3044 119.292L25.0218 50.8038Z" stroke="#099FE5" stroke-opacity="0.4"/>
<g clip-path="url(#clip0)">
<path d="M100.315 90.124C96.1446 90.124 92.752 93.5167 92.752 97.687C92.752 101.857 96.1446 105.25 100.315 105.25C104.486 105.25 107.878 101.857 107.878 97.687C107.878 93.5167 104.485 90.124 100.315 90.124ZM100.315 101.469C98.2295 101.469 96.5335 99.7725 96.5335 97.687C96.5335 95.6015 98.2295 93.9055 100.315 93.9055C102.4 93.9055 104.097 95.6015 104.097 97.687C104.097 99.7726 102.4 101.469 100.315 101.469Z" fill="#099FE5"/>
<path d="M74.4749 90.124C70.3046 90.124 66.9119 93.5167 66.9119 97.687C66.9119 101.857 70.3046 105.25 74.4749 105.25C78.6453 105.25 82.038 101.857 82.038 97.687C82.038 93.5167 78.6453 90.124 74.4749 90.124ZM74.4749 101.469C72.3894 101.469 70.6934 99.7725 70.6934 97.687C70.6934 95.6015 72.3894 93.9055 74.4749 93.9055C76.5598 93.9055 78.2564 95.6015 78.2564 97.687C78.2564 99.7726 76.5604 101.469 74.4749 101.469Z" fill="#099FE5"/>
<path d="M105.408 68.4761C105.087 67.8377 104.433 67.4349 103.719 67.4349H93.7605V71.2165H102.552L107.701 81.4568L111.08 79.7576L105.408 68.4761Z" fill="#099FE5"/>
<path d="M94.6429 95.8594H80.3362V99.641H94.6429V95.8594Z" fill="#099FE5"/>
<path d="M68.8024 95.8594H62.2479C61.2035 95.8594 60.3572 96.7059 60.3572 97.7501C60.3572 98.7945 61.2036 99.6408 62.2479 99.6408H68.8025C69.8469 99.6408 70.6932 98.7944 70.6932 97.7501C70.6932 96.7058 69.8468 95.8594 68.8024 95.8594Z" fill="#099FE5"/>
<path d="M114.603 84.3004L110.884 79.5105C110.527 79.0491 109.975 78.7794 109.391 78.7794H95.6512V65.5441C95.6512 64.4997 94.8048 63.6534 93.7605 63.6534H62.2479C61.2035 63.6534 60.3572 64.4998 60.3572 65.5441C60.3572 66.5883 61.2036 67.4348 62.2479 67.4348H91.8697V80.6701C91.8697 81.7144 92.7162 82.5608 93.7604 82.5608H108.465L111.218 86.1078V95.8591H105.987C104.943 95.8591 104.097 96.7055 104.097 97.7498C104.097 98.7942 104.943 99.6405 105.987 99.6405H113.109C114.154 99.6405 115 98.794 115 97.7498V85.4601C115 85.0403 114.86 84.6319 114.603 84.3004Z" fill="#099FE5"/>
<path d="M68.6764 86.2795H59.9788C58.9345 86.2795 58.0881 87.1259 58.0881 88.1702C58.0881 89.2146 58.9346 90.0609 59.9788 90.0609H68.6763C69.7206 90.0609 70.567 89.2144 70.567 88.1702C70.5671 87.1259 69.7206 86.2795 68.6764 86.2795Z" fill="#099FE5"/>
<path d="M73.0252 78.8424H56.8907C55.8464 78.8424 55 79.6889 55 80.7332C55 81.7776 55.8464 82.6239 56.8907 82.6239H73.0252C74.0696 82.6239 74.9159 81.7775 74.9159 80.7332C74.9159 79.689 74.0696 78.8424 73.0252 78.8424Z" fill="#099FE5"/>
<path d="M76.1133 71.4055H59.9788C58.9345 71.4055 58.0881 72.2519 58.0881 73.2962C58.0881 74.3405 58.9346 75.1869 59.9788 75.1869H76.1133C77.1577 75.1869 78.004 74.3404 78.004 73.2962C78.0042 72.2519 77.1577 71.4055 76.1133 71.4055Z" fill="#099FE5"/>
</g>
<defs>
<clipPath id="clip0">
<rect width="60" height="60" fill="white" transform="translate(55 54.4517)"/>
</clipPath>
</defs>
</svg>
