<svg width="171" height="169" viewBox="0 0 171 169" fill="none" xmlns="http://www.w3.org/2000/svg">
<path d="M84.9994 15.735L145.763 50.0242L146.048 119.094L85.5693 153.874L24.8056 119.585L24.5206 50.5153L84.9994 15.735Z" fill="#099FE5" fill-opacity="0.03"/>
<path d="M25.0218 50.8038L85.0018 16.3105L145.264 50.3168L145.547 118.805L85.5669 153.298L25.3044 119.292L25.0218 50.8038Z" stroke="#099FE5" stroke-opacity="0.4"/>
<path d="M78.1144 4.75521L82.7043 2.11564L82.9536 2.54909L85.0017 1.3713L87.0594 2.53245L87.3051 2.09701L91.9166 4.69931L91.6709 5.13476L96.2824 7.73706L96.5281 7.30161L101.14 9.90392L100.894 10.3394L105.506 12.9417L105.751 12.5062L110.363 15.1085L110.117 15.544L114.729 18.1463L114.974 17.7108L119.586 20.3131L119.34 20.7486L123.952 23.3509L124.197 22.9154L128.809 25.5177L128.563 25.9532L133.175 28.5555L133.42 28.12L138.032 30.7223L137.786 31.1578L142.398 33.7601L142.643 33.3246L147.255 35.9269L147.009 36.3624L151.621 38.9647L151.867 38.5292L156.478 41.1315L156.232 41.567L158.285 42.7253L158.295 45.0556L158.795 45.0536L158.816 50.2955L158.316 50.2975L158.338 55.5394L158.838 55.5374L158.86 60.7792L158.36 60.7813L158.381 66.0231L158.881 66.0211L158.903 71.263L158.403 71.265L158.424 76.5069L158.924 76.5049L158.946 81.7467L158.446 81.7488L158.468 86.9906L158.968 86.9886L158.989 92.2305L158.489 92.2325L158.511 97.4744L159.011 97.4724L159.033 102.714L158.533 102.716L158.554 107.958L159.054 107.956L159.076 113.198L158.576 113.2L158.597 118.442L159.097 118.44L159.119 123.682L158.619 123.684L158.629 126.014L156.586 127.189L156.835 127.622L152.245 130.262L151.996 129.829L147.406 132.468L147.655 132.902L143.065 135.541L142.816 135.108L138.226 137.747L138.475 138.181L133.885 140.82L133.636 140.387L129.046 143.026L129.295 143.46L124.706 146.099L124.456 145.666L119.866 148.306L120.116 148.739L115.526 151.379L115.276 150.945L110.687 153.585L110.936 154.018L106.346 156.658L106.097 156.224L101.507 158.864L101.756 159.297L97.1661 161.937L96.9168 161.503L92.3269 164.143L92.5762 164.576L87.9863 167.216L87.737 166.783L85.6889 167.96L83.6313 166.799L83.3856 167.235L78.774 164.632L79.0197 164.197L74.4082 161.595L74.1625 162.03L69.5509 159.428L69.7967 158.992L65.1851 156.39L64.9394 156.825L60.3279 154.223L60.5736 153.788L55.962 151.185L55.7163 151.621L51.1048 149.019L51.3505 148.583L46.739 145.981L46.4933 146.416L41.8817 143.814L42.1274 143.378L37.5159 140.776L37.2702 141.212L32.6587 138.609L32.9044 138.174L28.2928 135.572L28.0471 136.007L23.4356 133.405L23.6813 132.969L19.0698 130.367L18.8241 130.802L14.2125 128.2L14.4582 127.765L12.4056 126.606L12.3959 124.276L11.8959 124.278L11.8743 119.036L12.3743 119.034L12.3527 113.792L11.8527 113.794L11.8311 108.552L12.3311 108.55L12.3094 103.308L11.8094 103.311L11.7878 98.0686L12.2878 98.0666L12.2662 92.8248L11.7662 92.8268L11.7446 87.5849L12.2446 87.5829L12.2229 82.341L11.7229 82.343L11.7013 77.1012L12.2013 77.0991L12.1797 71.8573L11.6797 71.8593L11.6581 66.6174L12.1581 66.6154L12.1364 61.3735L11.6364 61.3755L11.6148 56.1337L12.1148 56.1317L12.0932 50.8898L11.5932 50.8918L11.5716 45.6499L12.0716 45.6479L12.0619 43.3176L14.105 42.1427L13.8557 41.7092L18.4456 39.0696L18.6949 39.5031L23.2848 36.8635L23.0355 36.4301L27.6254 33.7905L27.8747 34.2239L32.4646 31.5844L32.2153 31.1509L36.8052 28.5114L37.0545 28.9448L41.6444 26.3052L41.3952 25.8718L45.9851 23.2322L46.2344 23.6657L50.8243 21.0261L50.575 20.5926L55.1649 17.9531L55.4142 18.3865L60.0041 15.7469L59.7548 15.3135L64.3447 12.6739L64.594 13.1074L69.1839 10.4678L68.9346 10.0344L73.5245 7.39478L73.7738 7.82823L78.3637 5.18866L78.1144 4.75521Z" stroke="#585858" stroke-opacity="0.3" stroke-dasharray="5 5"/>
<g clip-path="url(#clip0)">
<path d="M113.237 84.4524L115.869 77.5869C116.158 76.8295 115.933 75.9708 115.299 75.4571L109.592 70.8302L108.437 63.5673C108.31 62.7649 107.68 62.1387 106.878 62.0112L99.6146 60.8563L94.9914 55.1457C94.4777 54.5121 93.6078 54.2871 92.8654 54.5758L85.9962 57.2117L79.1307 54.5795C78.3921 54.2908 77.5147 54.5158 77.0047 55.1532L72.3778 60.8601L65.1186 62.0149C64.3162 62.1424 63.6863 62.7686 63.5588 63.571L62.4039 70.8339L56.6971 75.4609C56.0634 75.9708 55.8347 76.8295 56.1234 77.5869L58.7556 84.4524L56.1234 91.3178C55.8347 92.0752 56.0634 92.9339 56.6971 93.4438L62.4039 98.0708L63.5588 105.334C63.6863 106.136 64.3162 106.762 65.1186 106.89L72.3815 108.045L77.0047 113.755C77.5184 114.393 78.3921 114.618 79.1307 114.325L85.9962 111.693L92.8616 114.325C93.0791 114.408 93.3041 114.449 93.5328 114.449C94.084 114.449 94.6277 114.205 94.9914 113.751L99.6146 108.041L106.878 106.886C107.68 106.759 108.31 106.132 108.437 105.33L109.592 98.067L115.299 93.4401C115.933 92.9264 116.158 92.0677 115.869 91.3103L113.237 84.4524ZM109.483 85.1198L111.887 91.3816L106.675 95.6036C106.311 95.896 106.075 96.3085 106 96.7659L104.95 103.391L98.321 104.445C97.8636 104.516 97.4511 104.756 97.1549 105.116L92.9329 110.328L86.6674 107.925C86.4499 107.853 86.2249 107.808 85.9962 107.808C85.7675 107.808 85.5425 107.85 85.325 107.932L79.0595 110.336L74.8375 105.124C74.545 104.764 74.1326 104.524 73.6714 104.453L67.0421 103.399L65.9922 96.7734C65.9173 96.316 65.681 95.9035 65.3173 95.6111L60.1129 91.3891L62.5164 85.1273C62.6776 84.6923 62.6776 84.2124 62.5126 83.7812L60.1129 77.5157L65.3248 73.2936C65.6885 73.0012 65.9248 72.5887 65.9997 72.1313L67.0496 65.5058L73.6789 64.4522C74.1363 64.3809 74.5488 64.1409 74.845 63.781L79.067 58.5691L85.3325 60.9726C85.7637 61.1375 86.2399 61.1375 86.6711 60.9726L92.9329 58.5691L97.1549 63.781C97.4474 64.1409 97.8598 64.3809 98.321 64.4522L104.95 65.5058L106 72.1313C106.075 72.5887 106.311 73.0012 106.675 73.2936L111.887 77.5157L109.483 83.7774C109.319 84.2086 109.319 84.6886 109.483 85.1198Z" fill="#099FE5"/>
<path d="M87.6898 82.5565H84.3103C83.714 82.5565 83.1422 82.3297 82.7206 81.926C82.2989 81.5223 82.0621 80.9748 82.0621 80.4039V79.2374C82.0621 78.9547 82.1202 78.6748 82.2332 78.4136C82.3462 78.1524 82.5118 77.9151 82.7206 77.7152C82.9293 77.5153 83.1772 77.3568 83.4499 77.2486C83.7227 77.1404 84.015 77.0848 84.3103 77.0848H87.6898C87.985 77.0848 88.2773 77.1404 88.5501 77.2486C88.8228 77.3568 89.0707 77.5153 89.2794 77.7152C89.4882 77.9151 89.6538 78.1524 89.7668 78.4136C89.8798 78.6748 89.9379 78.9547 89.9379 79.2374C89.9379 79.8801 90.2046 80.4965 90.6792 80.951C91.1539 81.4054 91.7977 81.6608 92.4689 81.6608C93.1402 81.6608 93.7839 81.4054 94.2586 80.951C94.7333 80.4965 94.9999 79.8801 94.9999 79.2374C95.0086 77.5078 94.3429 75.8374 93.133 74.553C91.9231 73.2687 90.2562 72.463 88.4585 72.2935C88.324 71.7682 88.0094 71.3013 87.565 70.9674C87.1206 70.6336 86.5721 70.4521 86.0073 70.4521C85.4424 70.4521 84.8939 70.6336 84.4495 70.9674C84.0051 71.3013 83.6905 71.7682 83.556 72.2935C81.7583 72.463 80.0914 73.2687 78.8815 74.553C77.6716 75.8374 77.0059 77.5078 77.0146 79.2374V80.4039C77.0146 81.3158 77.2022 82.2188 77.5666 83.0612C77.9311 83.9037 78.4653 84.6692 79.1387 85.314C80.4987 86.6162 82.3433 87.3478 84.2667 87.3478H87.6462C88.2425 87.3478 88.8143 87.5746 89.2359 87.9783C89.6575 88.382 89.8944 88.9295 89.8944 89.5004V90.6669C89.8944 91.2379 89.6575 91.7854 89.2359 92.1891C88.8143 92.5928 88.2425 92.8195 87.6462 92.8195H84.3103C83.714 92.8195 83.1422 92.5928 82.7206 92.1891C82.2989 91.7854 82.0621 91.2379 82.0621 90.6669C82.0621 90.0242 81.7954 89.4078 81.3208 88.9533C80.8461 88.4989 80.2023 88.2435 79.5311 88.2435C78.8598 88.2435 78.2161 88.4989 77.7414 88.9533C77.2667 89.4078 77.0001 90.0242 77.0001 90.6669C76.9914 92.3965 77.6571 94.0669 78.867 95.3513C80.0769 96.6356 81.7438 97.4413 83.5415 97.6108C83.676 98.1361 83.9906 98.603 84.435 98.9369C84.8794 99.2707 85.4279 99.4521 85.9927 99.4521C86.5576 99.4521 87.1061 99.2707 87.5505 98.9369C87.9949 98.603 88.3095 98.1361 88.444 97.6108C90.2417 97.4413 91.9086 96.6356 93.1185 95.3513C94.3284 94.0669 94.9941 92.3965 94.9854 90.6669V89.5004C94.9854 88.585 94.7964 87.6786 94.4292 86.8334C94.0621 85.9882 93.524 85.2209 92.8459 84.5755C92.1679 83.9302 91.3633 83.4196 90.4784 83.0731C89.5935 82.7266 88.6458 82.551 87.6898 82.5565Z" fill="#099FE5"/>
</g>
<defs>
<clipPath id="clip0">
<rect width="60" height="60" fill="white" transform="translate(56 54.4517)"/>
</clipPath>
</defs>
</svg>
