<?xml version="1.0" encoding="utf-8"?>
<!-- Generator: Adobe Illustrator 19.0.0, SVG Export Plug-In . SVG Version: 6.00 Build 0)  -->
<svg version="1.1" id="Слой_1" xmlns="http://www.w3.org/2000/svg" xmlns:xlink="http://www.w3.org/1999/xlink" x="0px" y="0px"
	 viewBox="0 0 592.9 87.3" style="enable-background:new 0 0 592.9 87.3;" xml:space="preserve">
<g id="XMLID_28_">
	<path id="XMLID_29_" d="M74.8,38H49.3c-0.9,0-1.4,0.4-1.7,1.3l-4,13.9C43.5,54.4,43.9,55,45,55h12.8c0,3.8,0,7.6,0,11.4
		c-0.4,0.3-0.9,0.7-1.3,1c-2.2,1.2-6.3,3-11.7,3.2c-1.3,0-5.3,0.1-10.2-1.7c-1.9-0.7-5.5-2.3-8.8-5.4c-8.4-7.8-8.5-19.1-8.4-20.1
		c0.1-9.3,5.1-17.6,11.1-21.7c3.3-2.2,7.3-3.4,7.5-3.5c0.9-0.3,4.2-1.2,8.6-1.2c5.2,0,9.4,1.3,12.3,2.5c1.8,0.8,3.6,1.5,5.3,2.3
		c0.1,0,0.6,0.2,1.1-0.1c0.5-0.3,0.7-0.8,0.7-0.9c1.7-4.4,3.4-8.8,5.1-13.2c-5-3.5-10.8-6-17-7.2C49.5,0.1,47,0,44.5,0
		c-4.2-0.1-12.4,0.4-21.1,4.9c-2.5,1.3-7.6,4.2-12.2,9.3C-0.2,26.6-0.1,42.9,0,47.3c0.6,5.3,3,18.5,13.8,28.3c4.5,4,8.9,6.2,11,7.1
		c3.8,1.8,12.7,5.8,24.4,4.4c1.1-0.1,16.1-2.4,27.2-14.1c0.2-0.2,0.3-0.3,0.4-0.5V39.5C76.1,39,75.5,38.5,74.8,38z"/>
</g>
<g id="XMLID_27_">
	<path id="XMLID_35_" d="M374.7,30.4v9.3c0,0.7-0.3,1-1,1h-15.8V85c0,0.7-0.3,1-1,1H346c-0.7,0-1-0.3-1-1V40.7h-15.8
		c-0.7,0-1-0.3-1-1v-9.3c0-0.7,0.3-1,1-1h44.5C374.3,29.3,374.7,29.7,374.7,30.4z"/>
	<path id="XMLID_37_" d="M383.7,29.3H406c6.3,0,11.3,1.5,14.8,4.6c3.5,3.1,5.3,7.3,5.3,12.8c0,3.4-0.9,6.4-2.7,8.8
		c-1.8,2.5-4.1,4.3-6.7,5.5c-1,0.5-1,1-0.1,1.5c2.7,1.7,5,4.6,7,8.8l5.6,13.5c0.3,0.8,0,1.2-0.8,1.2h-11.5c-0.6,0-1-0.3-1.2-0.8
		l-3.5-8.6c-1.6-3.9-3.4-6.7-5.3-8.3c-1.9-1.7-4.9-2.5-9-2.5h-2.2V85c0,0.7-0.3,1-1,1h-10.9c-0.7,0-1-0.3-1-1V30.4
		C382.7,29.7,383,29.3,383.7,29.3z M395.6,54.6h8.7c5.9,0,8.8-2.3,8.8-7c0-2.1-0.7-3.8-2-5.1c-1.3-1.3-3-1.9-5.2-1.9h-10.4V54.6z"/>
	<path id="XMLID_41_" d="M473.8,78.5h-23.5l-2.4,6.7c-0.2,0.5-0.6,0.8-1.2,0.8h-11.3c-0.9,0-1.1-0.4-0.9-1.2l11.3-30.6
		c3.5-9.5,6-17.5,7.6-24.1c0.2-0.6,0.6-0.9,1.2-0.9h14.9c0.6,0,1,0.3,1.2,0.9c1.6,6.6,4.1,14.6,7.6,24.1l11.3,30.6
		c0.3,0.8,0,1.2-0.9,1.2h-11.3c-0.6,0-1-0.3-1.2-0.8L473.8,78.5z M469.7,67.3l-1.1-3.2c-3.1-8.5-5-14.8-5.8-19
		c-0.1-0.5-0.3-0.7-0.7-0.7c-0.4,0-0.6,0.2-0.7,0.7c-0.9,4.4-2.8,10.7-5.8,19l-1.1,3.2H469.7z"/>
	<path id="XMLID_48_" d="M498.2,29.3H518c7.9,0,14.2,2.5,18.8,7.6c4.6,5.1,6.8,12,6.8,20.8c0,8.5-2.3,15.4-7,20.6
		c-4.6,5.2-10.9,7.8-18.6,7.8h-19.8c-0.7,0-1-0.3-1-1V30.4C497.2,29.7,497.5,29.3,498.2,29.3z M510.1,40.7v34.1h7.9
		c3.9,0,7-1.5,9.2-4.5c2.2-3,3.4-7.2,3.4-12.6c0-5.4-1.1-9.6-3.4-12.6c-2.2-3-5.3-4.4-9.2-4.4H510.1z"/>
	<path id="XMLID_51_" d="M565.4,51.3H585c0.7,0,1,0.3,1,1v9.2c0,0.7-0.3,1-1,1h-19.6v12.2h26.2c0.7,0,1,0.3,1,1V85c0,0.7-0.3,1-1,1
		h-38.1c-0.7,0-1-0.3-1-1V30.4c0-0.7,0.3-1,1-1H592c0.7,0,1,0.4,0.9,1.2l-2.6,9.3c-0.2,0.6-0.5,0.9-1.1,0.9h-23.8V51.3z"/>
</g>
<g id="XMLID_1_">
	<g id="XMLID_15_">
		<path id="XMLID_24_" d="M160.2,69.3c-5.3-7.2-8.4-16.2-8.4-25.8c0-10.6,3.8-20.3,10-27.9c6,7,9.6,15.8,9.1,25.5c0,0,0,0,0,0
			c-0.1,0.5-0.1,0.9-0.1,1.4c0,0.1,0,0.2,0,0.3C169.9,52.2,166,61.6,160.2,69.3z"/>
		<path id="XMLID_23_" d="M161.8,15.6c2-2.5,4.3-4.7,6.9-6.7c4.2,4.9,7.4,10.6,9.6,16.8c-4.1,4-6.8,9.3-7.4,15.3
			C171.3,31.4,167.8,22.6,161.8,15.6z"/>
		<path id="XMLID_22_" d="M168.6,78.1c4.2-4.9,7.4-10.6,9.6-16.8c4.5,4.4,10.6,7.1,17.3,7.1c13.7,0,24.8-11.1,24.8-24.8
			c0-13.7-11.2-24.8-24.8-24.8c-6.7,0-12.9,2.7-17.3,7.1c-2.2-6.2-5.5-11.9-9.6-16.8c7.4-5.8,16.8-9.3,27-9.3
			c24.2,0,43.8,19.6,43.8,43.8c0,24.2-19.6,43.8-43.8,43.8C185.4,87.3,176.1,83.9,168.6,78.1z"/>
	</g>
	<g id="XMLID_21_">
	</g>
</g>
<g id="XMLID_4_">
	<g id="XMLID_2_">
		<path id="XMLID_13_" d="M162.2,17.7c5.3,7.2,8.4,16.2,8.4,25.8c0,10.6-3.8,20.3-10,27.9c-6-7-9.6-15.8-9.1-25.5c0,0,0,0,0,0
			c0.1-0.5,0.1-0.9,0.1-1.4c0-0.1,0-0.2,0-0.3C152.5,34.8,156.4,25.4,162.2,17.7z"/>
		<path id="XMLID_12_" d="M160.6,71.4c-2,2.5-4.3,4.7-6.9,6.7c-4.2-4.9-7.4-10.6-9.6-16.8c4.1-4,6.8-9.3,7.4-15.3
			C151.1,55.6,154.6,64.4,160.6,71.4z"/>
		<path id="XMLID_11_" d="M153.8,8.9c-4.2,4.9-7.4,10.6-9.6,16.8c-4.5-4.4-10.6-7.1-17.3-7.1c-13.7,0-24.8,11.1-24.8,24.8
			c0,13.7,11.2,24.8,24.8,24.8c6.7,0,12.9-2.7,17.3-7.1c2.2,6.2,5.5,11.9,9.6,16.8c-7.4,5.8-16.8,9.3-27,9.3
			C102.6,87.3,83,67.7,83,43.5c0-24.2,19.6-43.8,43.8-43.8C137-0.3,146.3,3.1,153.8,8.9z"/>
	</g>
	<g id="XMLID_3_">
	</g>
</g>
<g id="XMLID_31_">
	<path id="XMLID_32_" d="M247.7,1h29.8c4-0.2,11.8,0.1,20.1,4.2c1.7,0.8,6.4,3.2,11,7.8C321.8,26,322,43.5,322,43.5
		c0.1,13.1-5.9,25.5-15,32.7c-4.5,3.6-9.4,5.6-11.3,6.3c-7.3,2.9-13.9,3.5-18.1,3.6h-29.8c-1,0-1.6-0.5-1.6-1.6v-82
		C246.7,2,247.2,1.5,247.7,1z M265.6,18v51.1h11.9c2.2,0.1,5.7-0.1,9.8-1.6c1.7-0.7,5-2.1,8-4.8c8.2-7.4,8-18.5,8-19.5
		c0-0.7-0.5-11.1-8.5-18.5c-3.7-3.4-7.5-4.9-8.3-5.2c-3.7-1.4-6.9-1.5-8.9-1.5H265.6z"/>
</g>
</svg>
